  0
SECTION
  2
HEADER
  9
$ACADVER
  1
AC1015
  9
$ACADMAINTVER
 70
     6
  9
$DWGCODEPAGE
  3
ANSI_1252
  9
$INSBASE
 10
0.0
 20
0.0
 30
0.0
  9
$EXTMIN
 10
-51.679670006
 20
-44.2593812738
 30
0.0
  9
$EXTMAX
 10
51.5936419928
 20
50.5691672247
 30
0.0
  9
$LIMMIN
 10
0.0
 20
0.0
  9
$LIMMAX
 10
420.0
 20
297.0
  9
$ORTHOMODE
 70
     0
  9
$REGENMODE
 70
     1
  9
$FILLMODE
 70
     1
  9
$QTEXTMODE
 70
     0
  9
$MIRRTEXT
 70
     1
  9
$LTSCALE
 40
1.0
  9
$ATTMODE
 70
     1
  9
$TEXTSIZE
 40
3.5
  9
$TRACEWID
 40
1.0
  9
$TEXTSTYLE
  7
Standard
  9
$CLAYER
  8
0
  9
$CELTYPE
  6
ByLayer
  9
$CECOLOR
 62
   256
  9
$CELTSCALE
 40
1.0
  9
$DISPSILH
 70
     0
  9
$DIMSCALE
 40
1.0
  9
$DIMASZ
 40
3.556
  9
$DIMEXO
 40
0.0
  9
$DIMDLI
 40
3.75
  9
$DIMRND
 40
0.0
  9
$DIMDLE
 40
0.0
  9
$DIMEXE
 40
1.0
  9
$DIMTP
 40
0.0
  9
$DIMTM
 40
0.0
  9
$DIMTXT
 40
3.5
  9
$DIMCEN
 40
2.5
  9
$DIMTSZ
 40
0.0
  9
$DIMTOL
 70
     0
  9
$DIMLIM
 70
     0
  9
$DIMTIH
 70
     1
  9
$DIMTOH
 70
     1
  9
$DIMSE1
 70
     0
  9
$DIMSE2
 70
     0
  9
$DIMTAD
 70
     1
  9
$DIMZIN
 70
     1
  9
$DIMBLK
  1

  9
$DIMASO
 70
     1
  9
$DIMSHO
 70
     1
  9
$DIMPOST
  1

  9
$DIMAPOST
  1

  9
$DIMALT
 70
     0
  9
$DIMALTD
 70
     3
  9
$DIMALTF
 40
0.0393700787
  9
$DIMLFAC
 40
1.0
  9
$DIMTOFL
 70
     1
  9
$DIMTVP
 40
0.0
  9
$DIMTIX
 70
     0
  9
$DIMSOXD
 70
     0
  9
$DIMSAH
 70
     0
  9
$DIMBLK1
  1

  9
$DIMBLK2
  1

  9
$DIMSTYLE
  2
ISO-25
  9
$DIMCLRD
 70
     0
  9
$DIMCLRE
 70
     0
  9
$DIMCLRT
 70
     0
  9
$DIMTFAC
 40
1.0
  9
$DIMGAP
 40
1.524
  9
$DIMJUST
 70
     0
  9
$DIMSD1
 70
     0
  9
$DIMSD2
 70
     0
  9
$DIMTOLJ
 70
     0
  9
$DIMTZIN
 70
     1
  9
$DIMALTZ
 70
     0
  9
$DIMALTTZ
 70
     0
  9
$DIMUPT
 70
     0
  9
$DIMDEC
 70
     2
  9
$DIMTDEC
 70
     2
  9
$DIMALTU
 70
     2
  9
$DIMALTTD
 70
     3
  9
$DIMTXSTY
  7
Standard
  9
$DIMAUNIT
 70
     0
  9
$DIMADEC
 70
     2
  9
$DIMALTRND
 40
0.0
  9
$DIMAZIN
 70
     0
  9
$DIMDSEP
 70
    44
  9
$DIMATFIT
 70
     3
  9
$DIMFRAC
 70
     0
  9
$DIMLDRBLK
  1

  9
$DIMLUNIT
 70
     2
  9
$DIMLWD
 70
    -2
  9
$DIMLWE
 70
    -2
  9
$DIMTMOVE
 70
     0
  9
$LUNITS
 70
     2
  9
$LUPREC
 70
     2
  9
$SKETCHINC
 40
1.0
  9
$FILLETRAD
 40
10.0
  9
$AUNITS
 70
     0
  9
$AUPREC
 70
     2
  9
$MENU
  1
.
  9
$ELEVATION
 40
0.0
  9
$PELEVATION
 40
0.0
  9
$THICKNESS
 40
0.0
  9
$LIMCHECK
 70
     0
  9
$CHAMFERA
 40
0.0
  9
$CHAMFERB
 40
0.0
  9
$CHAMFERC
 40
0.0
  9
$CHAMFERD
 40
0.0
  9
$SKPOLY
 70
     0
  9
$TDCREATE
 40
2459171.574106991
  9
$TDUCREATE
 40
2459171.949106991
  9
$TDUPDATE
 40
2459171.574328403
  9
$TDUUPDATE
 40
2459171.949328403
  9
$TDINDWG
 40
0.0000000116
  9
$TDUSRTIMER
 40
0.0000000116
  9
$USRTIMER
 70
     1
  9
$ANGBASE
 50
0.0
  9
$ANGDIR
 70
     0
  9
$PDMODE
 70
     0
  9
$PDSIZE
 40
-1.0
  9
$PLINEWID
 40
0.0
  9
$SPLFRAME
 70
     0
  9
$SPLINETYPE
 70
     6
  9
$SPLINESEGS
 70
     8
  9
$HANDSEED
  5
1D3
  9
$SURFTAB1
 70
     6
  9
$SURFTAB2
 70
     6
  9
$SURFTYPE
 70
     6
  9
$SURFU
 70
     6
  9
$SURFV
 70
     6
  9
$UCSBASE
  2

  9
$UCSNAME
  2

  9
$UCSORG
 10
0.0
 20
0.0
 30
0.0
  9
$UCSXDIR
 10
1.0
 20
0.0
 30
0.0
  9
$UCSYDIR
 10
0.0
 20
1.0
 30
0.0
  9
$UCSORTHOREF
  2

  9
$UCSORTHOVIEW
 70
     0
  9
$UCSORGTOP
 10
0.0
 20
0.0
 30
0.0
  9
$UCSORGBOTTOM
 10
0.0
 20
0.0
 30
0.0
  9
$UCSORGLEFT
 10
0.0
 20
0.0
 30
0.0
  9
$UCSORGRIGHT
 10
0.0
 20
0.0
 30
0.0
  9
$UCSORGFRONT
 10
0.0
 20
0.0
 30
0.0
  9
$UCSORGBACK
 10
0.0
 20
0.0
 30
0.0
  9
$PUCSBASE
  2

  9
$PUCSNAME
  2

  9
$PUCSORG
 10
0.0
 20
0.0
 30
0.0
  9
$PUCSXDIR
 10
1.0
 20
0.0
 30
0.0
  9
$PUCSYDIR
 10
0.0
 20
1.0
 30
0.0
  9
$PUCSORTHOREF
  2

  9
$PUCSORTHOVIEW
 70
     0
  9
$PUCSORGTOP
 10
0.0
 20
0.0
 30
0.0
  9
$PUCSORGBOTTOM
 10
0.0
 20
0.0
 30
0.0
  9
$PUCSORGLEFT
 10
0.0
 20
0.0
 30
0.0
  9
$PUCSORGRIGHT
 10
0.0
 20
0.0
 30
0.0
  9
$PUCSORGFRONT
 10
0.0
 20
0.0
 30
0.0
  9
$PUCSORGBACK
 10
0.0
 20
0.0
 30
0.0
  9
$USERI1
 70
     0
  9
$USERI2
 70
     0
  9
$USERI3
 70
     0
  9
$USERI4
 70
     0
  9
$USERI5
 70
     0
  9
$USERR1
 40
0.0
  9
$USERR2
 40
0.0
  9
$USERR3
 40
0.0
  9
$USERR4
 40
0.0
  9
$USERR5
 40
0.0
  9
$WORLDVIEW
 70
     1
  9
$SHADEDGE
 70
     3
  9
$SHADEDIF
 70
    70
  9
$TILEMODE
 70
     1
  9
$MAXACTVP
 70
    64
  9
$PINSBASE
 10
0.0
 20
0.0
 30
0.0
  9
$PLIMCHECK
 70
     0
  9
$PEXTMIN
 10
1.0000000000E+20
 20
1.0000000000E+20
 30
1.0000000000E+20
  9
$PEXTMAX
 10
-1.0000000000E+20
 20
-1.0000000000E+20
 30
-1.0000000000E+20
  9
$PLIMMIN
 10
0.0
 20
0.0
  9
$PLIMMAX
 10
420.0
 20
297.0
  9
$UNITMODE
 70
     0
  9
$VISRETAIN
 70
     1
  9
$PLINEGEN
 70
     0
  9
$PSLTSCALE
 70
     1
  9
$TREEDEPTH
 70
  3020
  9
$CMLSTYLE
  2
Standard
  9
$CMLJUST
 70
     0
  9
$CMLSCALE
 40
20.0
  9
$PROXYGRAPHICS
 70
     1
  9
$MEASUREMENT
 70
     1
  9
$CELWEIGHT
370
    -1
  9
$ENDCAPS
280
     0
  9
$JOINSTYLE
280
     0
  9
$LWDISPLAY
290
     1
  9
$INSUNITS
 70
     4
  9
$HYPERLINKBASE
  1

  9
$STYLESHEET
  1

  9
$XEDIT
290
     1
  9
$CEPSNTYPE
380
     0
  9
$PSTYLEMODE
290
     1
  9
$FINGERPRINTGUID
  2
{cbffc8dc-99b5-4ec4-b298-caa6a27db217}
  9
$VERSIONGUID
  2
{FAEB1C32-E019-11D5-929B-00C0DF256EC4}
  9
$EXTNAMES
290
     1
  9
$PSVPSCALE
 40
0.0
  9
$OLESTARTUP
290
     0
  0
ENDSEC
  0
SECTION
  2
CLASSES
  0
CLASS
  1
ACDBDICTIONARYWDFLT
  2
AcDbDictionaryWithDefault
  3
ObjectDBX Classes
 90
        0
280
     0
281
     0
  0
CLASS
  1
VISUALSTYLE
  2
AcDbVisualStyle
  3
ObjectDBX Classes
 90
     4095
280
     0
281
     0
  0
CLASS
  1
MATERIAL
  2
AcDbMaterial
  3
ObjectDBX Classes
 90
     1153
280
     0
281
     0
  0
CLASS
  1
SCALE
  2
AcDbScale
  3
ObjectDBX Classes
 90
     1153
280
     0
281
     0
  0
CLASS
  1
TABLESTYLE
  2
AcDbTableStyle
  3
ObjectDBX Classes
 90
     4095
280
     0
281
     0
  0
CLASS
  1
MLEADERSTYLE
  2
AcDbMLeaderStyle
  3
ACDB_MLEADERSTYLE_CLASS
 90
     4095
280
     0
281
     0
  0
CLASS
  1
SUN
  2
AcDbSun
  3
SCENEOE
 90
     1153
280
     0
281
     0
  0
CLASS
  1
ACDBPLACEHOLDER
  2
AcDbPlaceHolder
  3
ObjectDBX Classes
 90
        0
280
     0
281
     0
  0
CLASS
  1
LAYOUT
  2
AcDbLayout
  3
ObjectDBX Classes
 90
        0
280
     0
281
     0
  0
ENDSEC
  0
SECTION
  2
TABLES
  0
TABLE
  2
VPORT
  5
8
330
0
100
AcDbSymbolTable
 70
     1
  0
VPORT
  5
29
330
8
100
AcDbSymbolTableRecord
100
AcDbViewportTableRecord
  2
*Active
 70
     0
 10
0.0
 20
0.0
 11
1.0
 21
1.0
 12
-0.0430140066
 22
3.1548929754
 13
0.0
 23
0.0
 14
10.0
 24
10.0
 15
10.0
 25
10.0
 16
0.0
 26
0.0
 36
1.0
 17
0.0
 27
0.0
 37
0.0
 40
96.7251194685
 41
1.0890529659
 42
50.0
 43
0.0
 44
0.0
 50
0.0
 51
0.0
 71
     0
 72
   100
 73
     1
 74
     3
 75
     0
 76
     0
 77
     0
 78
     0
281
     0
 65
     1
110
0.0
120
0.0
130
0.0
111
1.0
121
0.0
131
0.0
112
0.0
122
1.0
132
0.0
 79
     0
146
0.0
  0
ENDTAB
  0
TABLE
  2
LTYPE
  5
5
330
0
100
AcDbSymbolTable
 70
     6
  0
LTYPE
  5
14
330
5
100
AcDbSymbolTableRecord
100
AcDbLinetypeTableRecord
  2
ByBlock
 70
     0
  3

 72
    65
 73
     0
 40
0.0
  0
LTYPE
  5
15
330
5
100
AcDbSymbolTableRecord
100
AcDbLinetypeTableRecord
  2
ByLayer
 70
     0
  3

 72
    65
 73
     0
 40
0.0
  0
LTYPE
  5
16
330
5
100
AcDbSymbolTableRecord
100
AcDbLinetypeTableRecord
  2
Continuous
 70
     0
  3
Solid line
 72
    65
 73
     0
 40
0.0
  0
LTYPE
  5
6E
330
5
100
AcDbSymbolTableRecord
100
AcDbLinetypeTableRecord
  2
HIDDEN
 70
     0
  3
Hidden __ __ __ __ __ __ __ __ __ __ __ __ __ __
 72
    65
 73
     2
 40
1.905
 49
1.27
 74
     0
 49
-0.635
 74
     0
  0
LTYPE
  5
6F
330
5
100
AcDbSymbolTableRecord
100
AcDbLinetypeTableRecord
  2
PHANTOM
 70
     0
  3
Phantom ______  __  __  ______  __  __  ______
 72
    65
 73
     6
 40
12.7
 49
6.35
 74
     0
 49
-1.27
 74
     0
 49
1.27
 74
     0
 49
-1.27
 74
     0
 49
1.27
 74
     0
 49
-1.27
 74
     0
  0
LTYPE
  5
70
330
5
100
AcDbSymbolTableRecord
100
AcDbLinetypeTableRecord
  2
CENTER
 70
     0
  3
Center ____ _ ____ _ ____ _ ____ _ ____ _ ____
 72
    65
 73
     4
 40
10.16
 49
6.35
 74
     0
 49
-1.27
 74
     0
 49
1.27
 74
     0
 49
-1.27
 74
     0
  0
LTYPE
  5
71
330
5
100
AcDbSymbolTableRecord
100
AcDbLinetypeTableRecord
  2
CENTERX2
 70
     0
  3
Center (2x) ________  __  ________  __  _____
 72
    65
 73
     4
 40
20.32
 49
12.7
 74
     0
 49
-2.54
 74
     0
 49
2.54
 74
     0
 49
-2.54
 74
     0
  0
LTYPE
  5
72
330
5
100
AcDbSymbolTableRecord
100
AcDbLinetypeTableRecord
  2
DOT2
 70
     0
  3
Dot (.5x) ........................................
 72
    65
 73
     2
 40
0.635
 49
0.0
 74
     0
 49
-0.635
 74
     0
  0
ENDTAB
  0
TABLE
  2
LAYER
  5
2
330
0
100
AcDbSymbolTable
 70
     1
  0
LAYER
  5
10
330
2
100
AcDbSymbolTableRecord
100
AcDbLayerTableRecord
  2
0
 70
     0
 62
     7
  6
Continuous
370
    -3
390
F
  0
ENDTAB
  0
TABLE
  2
STYLE
  5
3
330
0
100
AcDbSymbolTable
 70
     2
  0
STYLE
  5
11
330
3
100
AcDbSymbolTableRecord
100
AcDbTextStyleTableRecord
  2
Standard
 70
     0
 40
0.0
 41
1.0
 50
0.0
 71
     0
 42
3.5
  3
txt
  4

  0
STYLE
  5
1CF
330
3
100
AcDbSymbolTableRecord
100
AcDbTextStyleTableRecord
  2
SLDTEXTSTYLE0
 70
     0
 40
0.0
 41
0.7
 50
0.0
 71
     0
 42
3.5
  3
TXT
  4

  0
ENDTAB
  0
TABLE
  2
VIEW
  5
6
330
0
100
AcDbSymbolTable
 70
     0
  0
ENDTAB
  0
TABLE
  2
UCS
  5
7
330
0
100
AcDbSymbolTable
 70
     0
  0
ENDTAB
  0
TABLE
  2
APPID
  5
9
330
0
100
AcDbSymbolTable
 70
     1
  0
APPID
  5
12
330
9
100
AcDbSymbolTableRecord
100
AcDbRegAppTableRecord
  2
ACAD
 70
     0
  0
ENDTAB
  0
TABLE
  2
DIMSTYLE
  5
A
330
0
100
AcDbSymbolTable
 70
     1
100
AcDbDimStyleTable
  0
DIMSTYLE
105
27
330
A
100
AcDbSymbolTableRecord
100
AcDbDimStyleTableRecord
  2
ISO-25
 70
     0
 41
2.5
 42
0.625
 43
3.75
 44
1.25
 73
     0
 74
     0
 77
     1
 78
     8
140
2.5
141
2.5
143
0.0393700787
147
0.625
171
     3
172
     1
178
     0
271
     2
272
     2
274
     3
278
    44
283
     0
284
     8
340
11
  0
ENDTAB
  0
TABLE
  2
BLOCK_RECORD
  5
1
330
0
100
AcDbSymbolTable
 70
     1
  0
BLOCK_RECORD
  5
1F
330
1
100
AcDbSymbolTableRecord
100
AcDbBlockTableRecord
  2
*Model_Space
340
22
  0
BLOCK_RECORD
  5
1B
330
1
100
AcDbSymbolTableRecord
100
AcDbBlockTableRecord
  2
*Paper_Space
340
1E
  0
BLOCK_RECORD
  5
23
330
1
100
AcDbSymbolTableRecord
100
AcDbBlockTableRecord
  2
*Paper_Space0
340
26
  0
ENDTAB
  0
ENDSEC
  0
SECTION
  2
BLOCKS
  0
BLOCK
  5
20
330
1F
100
AcDbEntity
  8
0
100
AcDbBlockBegin
  2
*Model_Space
 70
     0
 10
0.0
 20
0.0
 30
0.0
  3
*Model_Space
  1

  0
ENDBLK
  5
21
330
1F
100
AcDbEntity
  8
0
100
AcDbBlockEnd
  0
BLOCK
  5
1C
330
1B
100
AcDbEntity
 67
     1
  8
0
100
AcDbBlockBegin
  2
*Paper_Space
 70
     0
 10
0.0
 20
0.0
 30
0.0
  3
*Paper_Space
  1

  0
ENDBLK
  5
1D
330
1B
100
AcDbEntity
 67
     1
  8
0
100
AcDbBlockEnd
  0
BLOCK
  5
24
330
23
100
AcDbEntity
  8
0
100
AcDbBlockBegin
  2
*Paper_Space0
 70
     0
 10
0.0
 20
0.0
 30
0.0
  3
*Paper_Space0
  1

  0
ENDBLK
  5
25
330
23
100
AcDbEntity
  8
0
100
AcDbBlockEnd
  0
ENDSEC
  0
SECTION
  2
ENTITIES
  0
LWPOLYLINE
  5
73
330
1F
100
AcDbEntity
  8
0
  6
Continuous
 62
     7
100
AcDbPolyline
 90
       17
 70
   128
 43
0.0
 10
-2.4982511258
 20
-0.2736097101
 10
-2.0834392618
 20
-1.0209409038
 10
-1.3648605268
 20
-1.5538191737
 10
-0.4519120193
 20
-1.7911186337
 10
0.5164181265
 20
-1.6967125921
 10
1.3927104237
 20
-1.284973513
 10
2.0435573136
 20
-0.6185849387
 10
2.3698732573
 20
0.2010015111
 10
2.3219796104
 20
1.0490112291
 10
1.9071677464
 20
1.7963424228
 10
1.1885890114
 20
2.3292206927
 10
0.2756405039
 20
2.5665201527
 10
-0.6926896419
 20
2.4721141111
 10
-1.5689819391
 20
2.060375032
 10
-2.219828829
 20
1.3939864577
 10
-2.5461447727
 20
0.5744000079
 10
-2.4982511258
 20
-0.2736097101
  0
LWPOLYLINE
  5
74
330
1F
100
AcDbEntity
  8
0
  6
Continuous
 62
     7
100
AcDbPolyline
 90
       17
 70
   128
 43
0.0
 10
-17.0600205325
 20
14.7338321901
 10
-16.8775033123
 20
14.4050064649
 10
-16.5613286689
 20
14.1705400261
 10
-16.1596313256
 20
14.0661282637
 10
-15.7335660615
 20
14.107666922
 10
-15.3479974507
 20
14.2888321168
 10
-15.0616248191
 20
14.5820430895
 10
-14.9180458039
 20
14.9426611274
 10
-14.9391190086
 20
15.3157854033
 10
-15.1216362287
 20
15.6446111286
 10
-15.4378108721
 20
15.8790775673
 10
-15.8395082154
 20
15.9834893297
 10
-16.2655734796
 20
15.9419506714
 10
-16.6511420903
 20
15.7607854766
 10
-16.9375147219
 20
15.4675745039
 10
-17.0810937371
 20
15.106956466
 10
-17.0600205325
 20
14.7338321901
  0
LWPOLYLINE
  5
75
330
1F
100
AcDbEntity
  8
0
  6
Continuous
 62
     7
100
AcDbPolyline
 90
       17
 70
   128
 43
0.0
 10
-18.7704598531
 20
-14.8301202241
 10
-18.587942633
 20
-15.1589459493
 10
-18.2717679896
 20
-15.3934123881
 10
-17.8700706463
 20
-15.4978241505
 10
-17.4440053821
 20
-15.4562854922
 10
-17.0584367714
 20
-15.2751202974
 10
-16.7720641398
 20
-14.9819093247
 10
-16.6284851246
 20
-14.6212912868
 10
-16.6495583292
 20
-14.2481670109
 10
-16.8320755494
 20
-13.9193412856
 10
-17.1482501928
 20
-13.6848748469
 10
-17.5499475361
 20
-13.5804630845
 10
-17.9760128002
 20
-13.6220017428
 10
-18.361581411
 20
-13.8031669376
 10
-18.6479540426
 20
-14.0963779103
 10
-18.7915330578
 20
-14.4569959482
 10
-18.7704598531
 20
-14.8301202241
  0
LWPOLYLINE
  5
76
330
1F
100
AcDbEntity
  8
0
  6
Continuous
 62
     7
100
AcDbPolyline
 90
       17
 70
   128
 43
0.0
 10
16.4906603742
 20
15.044668648
 10
16.6731775943
 20
14.7158429228
 10
16.9893522377
 20
14.481376484
 10
17.391049581
 20
14.3769647216
 10
17.8171148452
 20
14.4185033799
 10
18.2026834559
 20
14.5996685748
 10
18.4890560875
 20
14.8928795474
 10
18.6326351027
 20
15.2534975854
 10
18.6115618981
 20
15.6266218613
 10
18.4290446779
 20
15.9554475865
 10
18.1128700345
 20
16.1899140253
 10
17.7111726912
 20
16.2943257876
 10
17.2851074271
 20
16.2527871293
 10
16.8995388163
 20
16.0716219345
 10
16.6131661847
 20
15.7784109619
 10
16.4695871695
 20
15.4177929239
 10
16.4906603742
 20
15.044668648
  0
LWPOLYLINE
  5
77
330
1F
100
AcDbEntity
  8
0
  6
Continuous
 62
     7
100
AcDbPolyline
 90
       17
 70
   128
 43
0.0
 10
14.7802210535
 20
-14.5192837662
 10
14.9627382736
 20
-14.8481094914
 10
15.278912917
 20
-15.0825759302
 10
15.6806102604
 20
-15.1869876926
 10
16.1066755245
 20
-15.1454490343
 10
16.4922441353
 20
-14.9642838394
 10
16.7786167668
 20
-14.6710728668
 10
16.9221957821
 20
-14.3104548288
 10
16.9011225774
 20
-13.9373305529
 10
16.7186053573
 20
-13.6085048277
 10
16.4024307139
 20
-13.3740383889
 10
16.0007333706
 20
-13.2696266265
 10
15.5746681064
 20
-13.3111652849
 10
15.1890994957
 20
-13.4923304797
 10
14.9027268641
 20
-13.7855414523
 10
14.7591478488
 20
-14.1461594903
 10
14.7802210535
 20
-14.5192837662
  0
LWPOLYLINE
  5
78
330
1F
100
AcDbEntity
  8
0
  6
CENTERX2
 62
     7
100
AcDbPolyline
 90
        9
 70
   128
 43
0.0
 10
2.378462461
 20
8.7259635523
 10
2.2660756725
 20
9.3940093374
 10
1.8685628349
 20
9.9575510872
 10
1.2464416741
 20
10.3307946789
 10
0.4944244973
 20
10.4569171592
 10
-0.2730008972
 20
10.3167175236
 10
-0.93900095
 20
9.9315398958
 10
-1.4021831904
 20
9.360024078
 10
-1.5920323208
 20
8.6891781727
  0
LWPOLYLINE
  5
79
330
1F
100
AcDbEntity
  8
0
  6
CENTERX2
 62
     7
100
AcDbPolyline
 90
        9
 70
   128
 43
0.0
 10
-2.5535218798
 20
-7.929611646
 10
-2.4411350913
 20
-8.597657431
 10
-2.0436222537
 20
-9.1611991809
 10
-1.4215010929
 20
-9.5344427726
 10
-0.6694839161
 20
-9.6605652529
 10
0.0979414784
 20
-9.5203656173
 10
0.7639415313
 20
-9.1351879895
 10
1.2271237716
 20
-8.5636721717
 10
1.4169729021
 20
-7.8928262663
  0
LWPOLYLINE
  5
7A
330
1F
100
AcDbEntity
  8
0
  6
Continuous
 62
     7
100
AcDbPolyline
 90
        9
 70
   128
 43
0.0
 10
3.3709944662
 20
8.7335843578
 10
3.2030306053
 20
9.735960326
 10
2.60713638
 20
10.5817142412
 10
1.6740655177
 20
11.1420391491
 10
0.5459232026
 20
11.3315984719
 10
-0.6054763143
 20
11.1215226312
 10
-1.6047767476
 20
10.5438058379
 10
-2.2997862565
 20
9.686433426
 10
-2.5846560163
 20
8.6799818277
  0
LWPOLYLINE
  5
7B
330
1F
100
AcDbEntity
  8
0
  6
Continuous
 62
     7
100
AcDbPolyline
 90
        9
 70
   128
 43
0.0
 10
-3.5461455753
 20
-7.9388079909
 10
-3.3775653926
 20
-8.9408766685
 10
-2.7812961361
 20
-9.7861892933
 10
-1.8481143949
 20
-10.3460546809
 10
-0.7200886298
 20
-10.5352384012
 10
0.4310494621
 20
-10.3249389478
 10
1.4300495413
 20
-9.7471725062
 10
2.1248229018
 20
-8.8898987795
 10
2.4095965975
 20
-7.8836299214
  0
LWPOLYLINE
  5
7C
330
1F
100
AcDbEntity
  8
0
  6
Continuous
 62
     7
100
AcDbPolyline
 90
       18
 70
   128
 43
0.0
 10
-16.0165882255
 20
-3.982900134
 10
-13.4976354849
 20
-8.6641878763
 10
-9.1676555015
 20
-12.1229679001
 10
-3.6114360653
 20
-13.8921127974
 10
2.4206246007
 20
-13.7326897467
 10
8.1138632787
 20
-11.6662297143
 10
12.6993765381
 20
-7.9718195783
 10
15.5578654038
 20
-3.148409899
 10
16.3032751152
 20
2.152571119
 10
14.8349339603
 20
7.2151966154
 10
11.3511495484
 20
11.3557309641
 10
6.3224262686
 20
14.0149720577
 10
0.427921065
 20
14.8337746511
 10
-5.5362804721
 20
13.701554917
 10
-10.7646798762
 20
10.7712254043
 10
-14.5511528364
 20
6.4385433513
 10
-16.3843151978
 20
1.2886614773
 10
-16.0165882255
 20
-3.982900134
  0
LWPOLYLINE
  5
7D
330
1F
100
AcDbEntity
  8
0
  6
CENTERX2
 62
     7
100
AcDbPolyline
 90
       17
 70
   128
 43
0.0
 10
-17.927662065
 20
14.4957604211
 10
-17.5958125738
 20
13.897895466
 10
-17.0209495858
 20
13.4715928501
 10
-16.2905907798
 20
13.2817532822
 10
-15.5159266632
 20
13.3572781154
 10
-14.8148928254
 20
13.6866693787
 10
-14.2942153135
 20
14.2197802382
 10
-14.0331625585
 20
14.875449398
 10
-14.071477476
 20
15.5538571724
 10
-14.4033269672
 20
16.1517221274
 10
-14.9781899552
 20
16.5780247433
 10
-15.7085487613
 20
16.7678643113
 10
-16.4832128779
 20
16.692339478
 10
-17.1842467156
 20
16.3629482147
 10
-17.7049242276
 20
15.8298373553
 10
-17.9659769826
 20
15.1741681954
 10
-17.927662065
 20
14.4957604211
  0
LWPOLYLINE
  5
7E
330
1F
100
AcDbEntity
  8
0
  6
CENTERX2
 62
     7
100
AcDbPolyline
 90
       17
 70
   128
 43
0.0
 10
19.4038604213
 20
14.8416251816
 10
19.002438251
 20
14.2369666964
 10
18.3776042473
 20
13.7995492669
 10
17.6244837234
 20
13.5959657316
 10
16.8577324518
 20
13.6572098384
 10
16.194081363
 20
13.973957727
 10
15.7345653194
 20
14.4979874028
 10
15.5491414729
 20
15.149520098
 10
15.6660389235
 20
15.829365866
 10
16.0674610938
 20
16.4340243512
 10
16.6922950974
 20
16.8714417807
 10
17.4454156214
 20
17.075025316
 10
18.212166893
 20
17.0137812092
 10
18.8758179818
 20
16.6970333206
 10
19.3353340254
 20
16.1730036448
 10
19.5207578718
 20
15.5214709495
 10
19.4038604213
 20
14.8416251816
  0
LWPOLYLINE
  5
7F
330
1F
100
AcDbEntity
  8
0
  6
CENTERX2
 62
     7
100
AcDbPolyline
 90
       17
 70
   128
 43
0.0
 10
17.7513905496
 20
-13.7203589021
 10
17.4195410584
 20
-13.1224939471
 10
16.8446780704
 20
-12.6961913312
 10
16.1143192644
 20
-12.5063517632
 10
15.3396551478
 20
-12.5818765965
 10
14.63862131
 20
-12.9112678598
 10
14.1179437981
 20
-13.4443787192
 10
13.8568910431
 20
-14.100047879
 10
13.8952059606
 20
-14.7784556534
 10
14.2270554518
 20
-15.3763206084
 10
14.8019184398
 20
-15.8026232243
 10
15.5322772459
 20
-15.9924627923
 10
16.3069413625
 20
-15.916937959
 10
17.0079752002
 20
-15.5875466957
 10
17.5286527122
 20
-15.0544358363
 10
17.7897054672
 20
-14.3987666764
 10
17.7513905496
 20
-13.7203589021
  0
LWPOLYLINE
  5
80
330
1F
100
AcDbEntity
  8
0
  6
CENTERX2
 62
     7
100
AcDbPolyline
 90
       17
 70
   128
 43
0.0
 10
-19.5801319367
 20
-14.0662236626
 10
-19.1787097664
 20
-13.4615651774
 10
-18.5538757627
 20
-13.0241477479
 10
-17.8007552388
 20
-12.8205642126
 10
-17.0340039672
 20
-12.8818083194
 10
-16.3703528784
 20
-13.198556208
 10
-15.9108368348
 20
-13.7225858838
 10
-15.7254129883
 20
-14.3741185791
 10
-15.8423104389
 20
-15.053964347
 10
-16.2437326092
 20
-15.6586228322
 10
-16.8685666128
 20
-16.0960402617
 10
-17.6216871368
 20
-16.299623797
 10
-18.3884384084
 20
-16.2383796902
 10
-19.0520894972
 20
-15.9216318016
 10
-19.5116055408
 20
-15.3976021258
 10
-19.6970293872
 20
-14.7460694306
 10
-19.5801319367
 20
-14.0662236626
  0
LINE
  5
81
330
1F
100
AcDbEntity
  8
0
  6
Continuous
 62
     7
100
AcDbLine
 10
43.50441103
 20
42.228856305
 30
0.0
 11
-38.8833556934
 21
41.4655596775
 31
0.0
  0
LINE
  5
82
330
1F
100
AcDbEntity
  8
0
  6
Continuous
 62
     7
100
AcDbLine
 10
43.4234434882
 20
40.8293792676
 30
0.0
 11
-38.9643232352
 21
40.0660826402
 31
0.0
  0
LINE
  5
83
330
1F
100
AcDbEntity
  8
0
  6
Continuous
 62
     7
100
AcDbLine
 10
-38.9643232352
 20
40.0660826402
 30
0.0
 11
-38.8833556934
 21
41.4655596775
 31
0.0
  0
LINE
  5
84
330
1F
100
AcDbEntity
  8
0
  6
Continuous
 62
     7
100
AcDbLine
 10
43.50441103
 20
42.228856305
 30
0.0
 11
43.4234434882
 21
40.8293792676
 31
0.0
  0
LINE
  5
85
330
1F
100
AcDbEntity
  8
0
  6
Continuous
 62
     7
100
AcDbLine
 10
-39.2138759158
 20
-41.4120712339
 30
0.0
 11
34.2402775484
 21
-40.7315417106
 31
0.0
  0
LINE
  5
86
330
1F
100
AcDbEntity
  8
0
  6
Continuous
 62
     7
100
AcDbLine
 10
-43.6553801886
 20
-41.0161182118
 30
0.0
 11
-39.0149279488
 21
39.1914094918
 31
0.0
  0
LINE
  5
87
330
1F
100
AcDbEntity
  8
0
  6
Continuous
 62
     7
100
AcDbLine
 10
38.7323865348
 20
-40.2528215844
 30
0.0
 11
43.3728387746
 21
39.9547061193
 31
0.0
  0
LINE
  5
88
330
1F
100
AcDbEntity
  8
0
  6
Continuous
 62
     7
100
AcDbLine
 10
-45.038403307
 20
36.2507296673
 30
0.0
 11
-49.2234131242
 21
-36.0847397012
 31
0.0
  0
LINE
  5
89
330
1F
100
AcDbEntity
  8
0
  6
Continuous
 62
     7
100
AcDbLine
 10
44.8621317916
 20
-35.4753281483
 30
0.0
 11
49.0623230228
 21
37.1225431647
 31
0.0
  0
LINE
  5
8A
330
1F
100
AcDbEntity
  8
0
  6
Continuous
 62
     7
100
AcDbLine
 10
44.8773132057
 20
-35.2129262038
 30
0.0
 11
44.7780508362
 21
-35.2138458383
 31
0.0
  0
LINE
  5
8B
330
1F
100
AcDbEntity
  8
0
  6
CENTERX2
 62
     7
100
AcDbLine
 10
-47.6537614085
 20
33.9151030008
 30
0.0
 11
51.4100833987
 21
34.8328982227
 31
0.0
  0
LINE
  5
8C
330
1F
100
AcDbEntity
  8
0
  6
CENTERX2
 62
     7
100
AcDbLine
 10
-0.3527052569
 20
-4.185229709
 30
0.0
 11
2.815141592
 21
50.5691672247
 31
0.0
  0
LINE
  5
8D
330
1F
100
AcDbEntity
  8
0
  6
CENTERX2
 62
     7
100
AcDbLine
 10
-47.7308829921
 20
32.5821011227
 30
0.0
 11
51.3329618151
 21
33.4998963446
 31
0.0
  0
LINE
  5
8E
330
1F
100
AcDbEntity
  8
0
  6
CENTERX2
 62
     7
100
AcDbLine
 10
-37.8922378878
 20
33.3393967465
 30
0.0
 11
8.312538247
 21
33.7674693985
 31
0.0
  0
LINE
  5
8F
330
1F
100
AcDbEntity
  8
0
  6
CENTERX2
 62
     7
100
AcDbLine
 10
-25.4187742179
 20
42.6987061781
 30
0.0
 11
-26.1506708732
 21
30.0482966443
 31
0.0
  0
LINE
  5
90
330
1F
100
AcDbEntity
  8
0
  6
Continuous
 62
     7
100
AcDbLine
 10
-31.8301684947
 20
32.9296090059
 30
0.0
 11
-31.8430220919
 21
32.7074420262
 31
0.0
  0
LINE
  5
91
330
1F
100
AcDbEntity
  8
0
  6
Continuous
 62
     7
100
AcDbLine
 10
-31.7659005084
 20
34.0404439043
 30
0.0
 11
-31.7787541056
 21
33.8182769246
 31
0.0
  0
LINE
  5
92
330
1F
100
AcDbEntity
  8
0
  6
CENTERX2
 62
     7
100
AcDbLine
 10
-7.1537826114
 20
6.9766621213
 30
0.0
 11
-1.6881812767
 21
7.0272991908
 31
0.0
  0
LINE
  5
93
330
1F
100
AcDbEntity
  8
0
  6
CENTERX2
 62
     7
100
AcDbLine
 10
-7.9229742585
 20
-6.3183697336
 30
0.0
 11
-7.1537826114
 21
6.9766621213
 31
0.0
  0
LINE
  5
94
330
1F
100
AcDbEntity
  8
0
  6
CENTERX2
 62
     7
100
AcDbLine
 10
-1.6881812767
 20
7.0272991908
 30
0.0
 11
-1.5920323208
 21
8.6891781727
 31
0.0
  0
LINE
  5
95
330
1F
100
AcDbEntity
  8
0
  6
CENTERX2
 62
     7
100
AcDbLine
 10
2.378462461
 20
8.7259635523
 30
0.0
 11
2.2761424955
 21
7.064027398
 31
0.0
  0
LINE
  5
96
330
1F
100
AcDbEntity
  8
0
  6
CENTERX2
 62
     7
100
AcDbLine
 10
2.2761424955
 20
7.064027398
 30
0.0
 11
7.7355728206
 21
7.114607295
 31
0.0
  0
LINE
  5
97
330
1F
100
AcDbEntity
  8
0
  6
CENTERX2
 62
     7
100
AcDbLine
 10
7.7355728206
 20
7.114607295
 30
0.0
 11
6.9663811734
 21
-6.1804245599
 31
0.0
  0
LINE
  5
98
330
1F
100
AcDbEntity
  8
0
  6
CENTERX2
 62
     7
100
AcDbLine
 10
6.9663811734
 20
-6.1804245599
 30
0.0
 11
1.5131218579
 21
-6.2309472845
 31
0.0
  0
LINE
  5
99
330
1F
100
AcDbEntity
  8
0
  6
CENTERX2
 62
     7
100
AcDbLine
 10
1.5131218579
 20
-6.2309472845
 30
0.0
 11
1.4169729021
 21
-7.8928262663
 31
0.0
  0
LINE
  5
9A
330
1F
100
AcDbEntity
  8
0
  6
CENTERX2
 62
     7
100
AcDbLine
 10
-2.5535218798
 20
-7.929611646
 30
0.0
 11
-2.4573729239
 21
-6.2677326641
 31
0.0
  0
LINE
  5
9B
330
1F
100
AcDbEntity
  8
0
  6
CENTERX2
 62
     7
100
AcDbLine
 10
-2.4573729239
 20
-6.2677326641
 30
0.0
 11
-7.9229742585
 21
-6.3183697336
 31
0.0
  0
LINE
  5
9C
330
1F
100
AcDbEntity
  8
0
  6
Continuous
 62
     7
100
AcDbLine
 10
-8.0958015932
 20
7.8421389248
 30
0.0
 11
-2.6302002586
 21
7.8927759942
 31
0.0
  0
LINE
  5
9D
330
1F
100
AcDbEntity
  8
0
  6
Continuous
 62
     7
100
AcDbLine
 10
-2.6302002586
 20
7.8927759942
 30
0.0
 11
-2.5846560163
 21
8.6799818277
 31
0.0
  0
LINE
  5
9E
330
1F
100
AcDbEntity
  8
0
  6
Continuous
 62
     7
100
AcDbLine
 10
3.3709944662
 20
8.7335843578
 30
0.0
 11
3.322624118
 21
7.9479270312
 31
0.0
  0
LINE
  5
9F
330
1F
100
AcDbEntity
  8
0
  6
Continuous
 62
     7
100
AcDbLine
 10
3.322624118
 20
7.9479270312
 30
0.0
 11
8.7788012297
 21
7.9984767882
 31
0.0
  0
LINE
  5
A0
330
1F
100
AcDbEntity
  8
0
  6
Continuous
 62
     7
100
AcDbLine
 10
8.7788012297
 20
7.9984767882
 30
0.0
 11
7.9084001553
 21
-7.0459013634
 31
0.0
  0
LINE
  5
A1
330
1F
100
AcDbEntity
  8
0
  6
Continuous
 62
     7
100
AcDbLine
 10
7.9084001553
 20
-7.0459013634
 30
0.0
 11
2.4551408398
 21
-7.0964240879
 31
0.0
  0
LINE
  5
A2
330
1F
100
AcDbEntity
  8
0
  6
Continuous
 62
     7
100
AcDbLine
 10
2.4551408398
 20
-7.0964240879
 30
0.0
 11
2.4095965975
 21
-7.8836299214
 31
0.0
  0
LINE
  5
A3
330
1F
100
AcDbEntity
  8
0
  6
Continuous
 62
     7
100
AcDbLine
 10
-3.5461455753
 20
-7.9388079909
 30
0.0
 11
-3.500601333
 21
-7.1516021574
 31
0.0
  0
LINE
  5
A4
330
1F
100
AcDbEntity
  8
0
  6
Continuous
 62
     7
100
AcDbLine
 10
-3.500601333
 20
-7.1516021574
 30
0.0
 11
-8.9662026676
 21
-7.2022392268
 31
0.0
  0
LINE
  5
A5
330
1F
100
AcDbEntity
  8
0
  6
Continuous
 62
     7
100
AcDbLine
 10
-8.9662026676
 20
-7.2022392268
 30
0.0
 11
-8.0958015932
 21
7.8421389248
 31
0.0
  0
LINE
  5
A6
330
1F
100
AcDbEntity
  8
0
  6
Continuous
 62
     7
100
AcDbLine
 10
16.5261775548
 20
13.0532183585
 30
0.0
 11
15.078882745
 21
-11.9624336843
 31
0.0
  0
LINE
  5
A7
330
1F
100
AcDbEntity
  8
0
  6
Continuous
 62
     7
100
AcDbLine
 10
16.5261775548
 20
13.0532183585
 30
0.0
 11
-15.2377807
 21
12.7589353214
 31
0.0
  0
LINE
  5
A8
330
1F
100
AcDbEntity
  8
0
  6
Continuous
 62
     7
100
AcDbLine
 10
-15.2377807
 20
12.7589353214
 30
0.0
 11
-16.6850755098
 21
-12.2567167214
 31
0.0
  0
LINE
  5
A9
330
1F
100
AcDbEntity
  8
0
  6
Continuous
 62
     7
100
AcDbLine
 10
15.078882745
 20
-11.9624336843
 30
0.0
 11
-16.6850755098
 21
-12.2567167214
 31
0.0
  0
POINT
  5
AA
330
1F
100
AcDbEntity
  8
0
  6
Continuous
 62
     7
100
AcDbPoint
 10
1.8396002033
 20
33.7074996727
 30
0.0
  0
POINT
  5
AB
330
1F
100
AcDbEntity
  8
0
  6
Continuous
 62
     7
100
AcDbPoint
 10
-25.9538632697
 20
33.4500020153
 30
0.0
  0
LWPOLYLINE
  5
EA
330
1F
100
AcDbEntity
  8
0
  6
Continuous
 62
     7
370
    25
100
AcDbPolyline
 90
       17
 70
   128
 43
0.0
 10
37.0995708368
 20
32.8679836081
 10
37.0381768053
 20
32.8567676373
 10
36.984896801
 20
32.825953427
 10
36.9478422218
 20
32.7802321616
 10
36.9326542914
 20
32.7265644892
 10
36.9416452344
 20
32.6731208264
 10
36.9734462615
 20
32.6280374864
 10
37.0232159543
 20
32.5981779991
 10
37.0833773285
 20
32.5880882006
 10
37.14477136
 20
32.5993041715
 10
37.1980513643
 20
32.6301183817
 10
37.2351059435
 20
32.6758396471
 10
37.2502938739
 20
32.7295073196
 10
37.2413029308
 20
32.7829509824
 10
37.2095019038
 20
32.8280343224
 10
37.159732211
 20
32.8578938097
 10
37.0995708368
 20
32.8679836081
  0
LWPOLYLINE
  5
EB
330
1F
100
AcDbEntity
  8
0
  6
Continuous
 62
     7
370
    25
100
AcDbPolyline
 90
       17
 70
   128
 43
0.0
 10
33.9430274853
 20
32.8387392313
 10
33.8816334537
 20
32.8275232605
 10
33.8283534495
 20
32.7967090502
 10
33.7912988702
 20
32.7509877848
 10
33.7761109398
 20
32.6973201124
 10
33.7851018829
 20
32.6438764496
 10
33.8169029099
 20
32.5987931096
 10
33.8666726028
 20
32.5689336222
 10
33.9268339769
 20
32.5588438238
 10
33.9882280085
 20
32.5700597947
 10
34.0415080127
 20
32.6008740049
 10
34.0785625919
 20
32.6465952703
 10
34.0937505223
 20
32.7002629428
 10
34.0847595793
 20
32.7537066056
 10
34.0529585523
 20
32.7987899455
 10
34.0031888594
 20
32.8286494329
 10
33.9430274853
 20
32.8387392313
  0
LWPOLYLINE
  5
EC
330
1F
100
AcDbEntity
  8
0
  6
Continuous
 62
     7
370
    25
100
AcDbPolyline
 90
       17
 70
   128
 43
0.0
 10
31.143828664
 20
32.8128055387
 10
31.0824346325
 20
32.8015895678
 10
31.0291546283
 20
32.7707753576
 10
30.992100049
 20
32.7250540922
 10
30.9769121186
 20
32.6713864197
 10
30.9859030617
 20
32.6179427569
 10
31.0177040887
 20
32.5728594169
 10
31.0674737815
 20
32.5429999296
 10
31.1276351557
 20
32.5329101312
 10
31.1890291873
 20
32.544126102
 10
31.2423091915
 20
32.5749403123
 10
31.2793637707
 20
32.6206615777
 10
31.2945517011
 20
32.6743292501
 10
31.2855607581
 20
32.7277729129
 10
31.2537597311
 20
32.7728562529
 10
31.2039900382
 20
32.8027157402
 10
31.143828664
 20
32.8128055387
  0
LWPOLYLINE
  5
ED
330
1F
100
AcDbEntity
  8
0
  6
Continuous
 62
     7
370
    25
100
AcDbPolyline
 90
       17
 70
   128
 43
0.0
 10
27.9872853125
 20
32.7835611618
 10
27.9258912809
 20
32.772345191
 10
27.8726112767
 20
32.7415309808
 10
27.8355566975
 20
32.6958097154
 10
27.820368767
 20
32.6421420429
 10
27.8293597101
 20
32.5886983801
 10
27.8611607371
 20
32.5436150401
 10
27.91093043
 20
32.5137555528
 10
27.9710918041
 20
32.5036657544
 10
28.0324858357
 20
32.5148817252
 10
28.0857658399
 20
32.5456959354
 10
28.1228204191
 20
32.5914172009
 10
28.1380083496
 20
32.6450848733
 10
28.1290174065
 20
32.6985285361
 10
28.0972163795
 20
32.7436118761
 10
28.0474466866
 20
32.7734713634
 10
27.9872853125
 20
32.7835611618
  0
LWPOLYLINE
  5
EE
330
1F
100
AcDbEntity
  8
0
  6
Continuous
 62
     7
370
    25
100
AcDbPolyline
 90
       17
 70
   128
 43
0.0
 10
25.1880864913
 20
32.7576274692
 10
25.1266924597
 20
32.7464114984
 10
25.0734124555
 20
32.7155972881
 10
25.0363578763
 20
32.6698760227
 10
25.0211699458
 20
32.6162083503
 10
25.0301608889
 20
32.5627646875
 10
25.0619619159
 20
32.5176813475
 10
25.1117316088
 20
32.4878218602
 10
25.1718929829
 20
32.4777320617
 10
25.2332870145
 20
32.4889480326
 10
25.2865670187
 20
32.5197622428
 10
25.3236215979
 20
32.5654835082
 10
25.3388095284
 20
32.6191511807
 10
25.3298185853
 20
32.6725948435
 10
25.2980175583
 20
32.7176781834
 10
25.2482478654
 20
32.7475376708
 10
25.1880864913
 20
32.7576274692
  0
LWPOLYLINE
  5
EF
330
1F
100
AcDbEntity
  8
0
  6
Continuous
 62
     7
370
    25
100
AcDbPolyline
 90
       17
 70
   128
 43
0.0
 10
22.0315431397
 20
32.7283830924
 10
21.9701491081
 20
32.7171671215
 10
21.9168691039
 20
32.6863529113
 10
21.8798145247
 20
32.6406316459
 10
21.8646265942
 20
32.5869639735
 10
21.8736175373
 20
32.5335203107
 10
21.9054185643
 20
32.4884369707
 10
21.9551882572
 20
32.4585774833
 10
22.0153496313
 20
32.4484876849
 10
22.0767436629
 20
32.4597036558
 10
22.1300236671
 20
32.490517866
 10
22.1670782464
 20
32.5362391314
 10
22.1822661768
 20
32.5899068038
 10
22.1732752337
 20
32.6433504667
 10
22.1414742067
 20
32.6884338066
 10
22.0917045138
 20
32.718293294
 10
22.0315431397
 20
32.7283830924
  0
LWPOLYLINE
  5
F2
330
1F
100
AcDbEntity
  8
0
  6
Continuous
 62
     7
370
    25
100
AcDbPolyline
 90
       18
 70
   128
 43
0.0
 10
-3.5461455753
 20
-7.9388079909
 10
-3.5233374363
 20
-8.4205005429
 10
-3.3998981729
 20
-8.8848501213
 10
-3.1800313611
 20
-9.3160438581
 10
-2.8712243014
 20
-9.6993979678
 10
-2.483993048
 20
-10.0218577859
 10
-2.0315242967
 20
-10.2724423301
 10
-1.5292263281
 20
-10.4426182443
 10
-0.9942042972
 20
-10.5265903918
 10
-0.4446777376
 20
-10.5214992019
 10
0.100639883
 20
-10.4275180489
 10
0.6231784269
 20
-10.2478473482
 10
1.1051434707
 20
-9.9886055701
 10
1.5301222729
 20
-9.6586208825
 10
1.8836426902
 20
-9.269130518
 10
2.1536660087
 20
-8.8333981039
 10
2.3309969082
 20
-8.3662619849
 10
2.4095965975
 20
-7.8836299214
  0
LWPOLYLINE
  5
F8
330
1F
100
AcDbEntity
  8
0
  6
Continuous
 62
     7
370
    25
100
AcDbPolyline
 90
       18
 70
   128
 43
0.0
 10
3.3709944662
 20
8.7335843578
 10
3.3485024324
 20
9.2153976252
 10
3.2253332693
 20
9.6799108692
 10
3.0056829538
 20
10.1112996184
 10
2.6970342653
 20
10.4948678466
 10
2.3099018713
 20
10.8175486187
 10
1.8574741265
 20
11.0683492392
 10
1.3551637882
 20
11.2387257383
 10
0.8200829529
 20
11.3228739368
 10
0.2704601026
 20
11.3179271765
 10
-0.274980881
 20
11.2240539776
 10
-0.797658579
 20
11.0444522978
 10
-1.2797670444
 20
10.7852405884
 10
-1.7048823934
 20
10.4552493581
 10
-2.0585223142
 20
10.0657203461
 10
-2.3286394328
 20
9.6299235522
 10
-2.5060317284
 20
9.1627051705
 10
-2.5846560163
 20
8.6799818277
  0
LWPOLYLINE
  5
FC
330
1F
100
AcDbEntity
  8
0
  6
Continuous
 62
     7
370
    25
100
AcDbPolyline
 90
       22
 70
   128
 43
0.0
 10
-15.9439045855
 20
15.9869492599
 10
-16.268216701
 20
15.9412223214
 10
-16.5686583578
 20
15.8140680196
 10
-16.8185339963
 20
15.6167845723
 10
-16.9956410692
 20
15.3669014795
 10
-17.0842428362
 20
15.0866219505
 10
-17.0764666412
 20
14.8008500516
 10
-16.9730034334
 20
14.53497787
 10
-16.7830463727
 20
14.3126293158
 10
-16.5234739778
 20
14.1535610339
 10
-16.2173503949
 20
14.0719069391
 10
-15.8918760479
 20
14.0749223561
 10
-15.5759707606
 20
14.1623393518
 10
-15.2977041044
 20
14.3263905426
 10
-15.0818012927
 20
14.5524992603
 10
-14.9474462378
 20
14.8205747529
 10
-14.9065769759
 20
15.1067973366
 10
-14.9628249204
 20
15.3857348788
 10
-15.1111921945
 20
15.6326025546
 10
-15.3384957148
 20
15.8254650878
 10
-15.624538566
 20
15.947185796
 10
-15.9439045855
 20
15.9869492599
  0
LWPOLYLINE
  5
FD
330
1F
100
AcDbEntity
  8
0
  6
Continuous
 62
     7
370
    25
100
AcDbPolyline
 90
       22
 70
   128
 43
0.0
 10
-17.6543439062
 20
-13.5770031543
 10
-17.9786560217
 20
-13.6227300928
 10
-18.2790976785
 20
-13.7498843946
 10
-18.5289733169
 20
-13.9471678419
 10
-18.7060803899
 20
-14.1970509347
 10
-18.7946821568
 20
-14.4773304637
 10
-18.7869059618
 20
-14.7631023626
 10
-18.683442754
 20
-15.0289745442
 10
-18.4934856934
 20
-15.2513230984
 10
-18.2339132985
 20
-15.4103913803
 10
-17.9277897156
 20
-15.4920454751
 10
-17.6023153685
 20
-15.4890300581
 10
-17.2864100813
 20
-15.4016130624
 10
-17.0081434251
 20
-15.2375618716
 10
-16.7922406133
 20
-15.0114531539
 10
-16.6578855584
 20
-14.7433776613
 10
-16.6170162966
 20
-14.4571550776
 10
-16.673264241
 20
-14.1782175354
 10
-16.8216315151
 20
-13.9313498596
 10
-17.0489350354
 20
-13.7384873264
 10
-17.3349778866
 20
-13.6167666182
 10
-17.6543439062
 20
-13.5770031543
  0
LWPOLYLINE
  5
FE
330
1F
100
AcDbEntity
  8
0
  6
Continuous
 62
     7
370
    25
100
AcDbPolyline
 90
       22
 70
   128
 43
0.0
 10
17.6067763211
 20
16.2977857178
 10
17.2824642056
 20
16.2520587793
 10
16.9820225488
 20
16.1249044776
 10
16.7321469104
 20
15.9276210302
 10
16.5550398374
 20
15.6777379374
 10
16.4664380705
 20
15.3974584084
 10
16.4742142655
 20
15.1116865095
 10
16.5776774733
 20
14.8458143279
 10
16.7676345339
 20
14.6234657737
 10
17.0272069288
 20
14.4643974918
 10
17.3333305117
 20
14.382743397
 10
17.6588048588
 20
14.385758814
 10
17.974710146
 20
14.4731758097
 10
18.2529768022
 20
14.6372270005
 10
18.468879614
 20
14.8633357182
 10
18.6032346689
 20
15.1314112109
 10
18.6441039307
 20
15.4176337946
 10
18.5878559863
 20
15.6965713367
 10
18.4394887122
 20
15.9434390126
 10
18.2121851919
 20
16.1363015458
 10
17.9261423407
 20
16.2580222539
 10
17.6067763211
 20
16.2977857178
  0
LWPOLYLINE
  5
FF
330
1F
100
AcDbEntity
  8
0
  6
Continuous
 62
     7
370
    25
100
AcDbPolyline
 90
       22
 70
   128
 43
0.0
 10
15.8963370005
 20
-13.2661666964
 10
15.5720248849
 20
-13.3118936349
 10
15.2715832281
 20
-13.4390479366
 10
15.0217075897
 20
-13.636331384
 10
14.8446005167
 20
-13.8862144768
 10
14.7559987498
 20
-14.1664940058
 10
14.7637749448
 20
-14.4522659047
 10
14.8672381526
 20
-14.7181380863
 10
15.0571952132
 20
-14.9404866405
 10
15.3167676082
 20
-15.0995549224
 10
15.6228911911
 20
-15.1812090172
 10
15.9483655381
 20
-15.1781936002
 10
16.2642708253
 20
-15.0907766045
 10
16.5425374816
 20
-14.9267254137
 10
16.7584402933
 20
-14.700616696
 10
16.8927953482
 20
-14.4325412033
 10
16.9336646101
 20
-14.1463186196
 10
16.8774166656
 20
-13.8673810775
 10
16.7290493915
 20
-13.6205134016
 10
16.5017458712
 20
-13.4276508684
 10
16.21570302
 20
-13.3059301603
 10
15.8963370005
 20
-13.2661666964
  0
LWPOLYLINE
  5
13F
330
1F
100
AcDbEntity
  8
0
  6
Continuous
 62
     7
370
    25
100
AcDbPolyline
 90
        3
 70
   128
 43
0.0
 10
20.3681341207
 20
37.7595534172
 10
20.3722852583
 20
37.7385465721
 10
20.3768855063
 20
37.6533147916
  0
LINE
  5
144
330
1F
100
AcDbEntity
  8
0
  6
Continuous
 62
     7
370
    25
100
AcDbLine
 10
-36.7204518779
 20
-43.1562783445
 30
0.0
 11
-36.5441803625
 21
-43.9316798635
 31
0.0
  0
LINE
  5
145
330
1F
100
AcDbEntity
  8
0
  6
Continuous
 62
     7
370
    25
100
AcDbLine
 10
-49.2296503255
 20
-40.7369796119
 30
0.0
 11
-49.0533788101
 21
-41.5123811309
 31
0.0
  0
LINE
  5
146
330
1F
100
AcDbEntity
  8
0
  6
Continuous
 62
     7
370
    25
100
AcDbLine
 10
-51.6709186204
 20
-35.7766326148
 30
0.0
 11
-51.494647105
 21
-36.5520341338
 31
0.0
  0
LINE
  5
147
330
1F
100
AcDbEntity
  8
0
  6
Continuous
 62
     7
370
    25
100
AcDbLine
 10
20.3681341207
 20
37.7595534172
 30
0.0
 11
20.1918626053
 21
38.5349549361
 31
0.0
  0
LINE
  5
148
330
1F
100
AcDbEntity
  8
0
  6
Continuous
 62
     7
370
    25
100
AcDbLine
 10
-48.7673922202
 20
-41.0634793881
 30
0.0
 11
-37.1040637985
 21
-40.9554223354
 31
0.0
  0
LINE
  5
149
330
1F
100
AcDbEntity
  8
0
  6
Continuous
 62
     7
370
    25
100
AcDbLine
 10
-49.0005595571
 20
-36.5197771891
 30
0.0
 11
-49.2384017112
 21
-40.6307409864
 31
0.0
  0
LINE
  5
14A
330
1F
100
AcDbEntity
  8
0
  6
Continuous
 62
     7
370
    25
100
AcDbLine
 10
-49.471569048
 20
-36.0870387874
 30
0.0
 11
-51.2086605151
 21
-36.103132391
 31
0.0
  0
LINE
  5
14B
330
1F
100
AcDbEntity
  8
0
  6
Continuous
 62
     7
370
    25
100
AcDbLine
 10
-47.6464743298
 20
34.0410559341
 30
0.0
 11
-51.679670006
 21
-35.6703939893
 31
0.0
  0
LINE
  5
14C
330
1F
100
AcDbEntity
  8
0
  6
Continuous
 62
     7
370
    25
100
AcDbLine
 10
-41.595749557
 20
39.167498995
 30
0.0
 11
-47.6464743298
 21
34.0410559341
 31
0.0
  0
LINE
  5
14D
330
1F
100
AcDbEntity
  8
0
  6
Continuous
 62
     7
370
    25
100
AcDbLine
 10
-38.7489552312
 20
39.193873645
 30
0.0
 11
-41.595749557
 21
39.167498995
 31
0.0
  0
LINE
  5
14E
330
1F
100
AcDbEntity
  8
0
  6
Continuous
 62
     7
370
    25
100
AcDbLine
 10
-15.9186102356
 20
39.4053895779
 30
0.0
 11
-35.3104058846
 21
39.2257307183
 31
0.0
  0
LINE
  5
14F
330
1F
100
AcDbEntity
  8
0
  6
Continuous
 62
     7
370
    25
100
AcDbLine
 10
16.8379717147
 20
39.7088689599
 30
0.0
 11
-12.4800608889
 21
39.4372466512
 31
0.0
  0
LINE
  5
150
330
1F
100
AcDbEntity
  8
0
  6
Continuous
 62
     7
370
    25
100
AcDbLine
 10
18.5066416744
 20
38.8501243482
 30
0.0
 11
19.7296045
 21
38.8614547124
 31
0.0
  0
LINE
  5
151
330
1F
100
AcDbEntity
  8
0
  6
Continuous
 62
     7
370
    25
100
AcDbLine
 10
20.2006139909
 20
38.4287163106
 30
0.0
 11
20.0994045637
 21
36.6793700139
 31
0.0
  0
LINE
  5
152
330
1F
100
AcDbEntity
  8
0
  6
Continuous
 62
     7
370
    25
100
AcDbLine
 10
22.2359861828
 20
36.2620626117
 30
0.0
 11
20.5704140546
 21
36.2466316122
 31
0.0
  0
LINE
  5
153
330
1F
100
AcDbEntity
  8
0
  6
Continuous
 62
     7
370
    25
100
AcDbLine
 10
22.0487487423
 20
33.0257719628
 30
0.0
 11
22.2359861828
 21
36.2620626117
 31
0.0
  0
LINE
  5
154
330
1F
100
AcDbEntity
  8
0
  6
Continuous
 62
     7
370
    25
100
AcDbLine
 10
22.5197582332
 20
32.5930335611
 30
0.0
 11
24.6836778894
 21
32.613081593
 31
0.0
  0
LINE
  5
155
330
1F
100
AcDbEntity
  8
0
  6
Continuous
 62
     7
370
    25
100
AcDbLine
 10
25.2052920939
 20
33.0550163396
 30
0.0
 11
25.3925295343
 21
36.2913069885
 31
0.0
  0
LINE
  5
156
330
1F
100
AcDbEntity
  8
0
  6
Continuous
 62
     7
370
    25
100
AcDbLine
 10
28.1917283555
 20
36.3172406812
 30
0.0
 11
25.3925295343
 21
36.2913069885
 31
0.0
  0
LINE
  5
157
330
1F
100
AcDbEntity
  8
0
  6
Continuous
 62
     7
370
    25
100
AcDbLine
 10
28.0044909151
 20
33.0809500323
 30
0.0
 11
28.1917283555
 21
36.3172406812
 31
0.0
  0
LINE
  5
158
330
1F
100
AcDbEntity
  8
0
  6
Continuous
 62
     7
370
    25
100
AcDbLine
 10
28.475500406
 20
32.6482116306
 30
0.0
 11
30.6394200621
 21
32.6682596625
 31
0.0
  0
LINE
  5
159
330
1F
100
AcDbEntity
  8
0
  6
Continuous
 62
     7
370
    25
100
AcDbLine
 10
31.1610342667
 20
33.1101944091
 30
0.0
 11
31.3482717071
 21
36.346485058
 31
0.0
  0
LINE
  5
15A
330
1F
100
AcDbEntity
  8
0
  6
Continuous
 62
     7
370
    25
100
AcDbLine
 10
34.1474705283
 20
36.3724187506
 30
0.0
 11
31.3482717071
 21
36.346485058
 31
0.0
  0
LINE
  5
15B
330
1F
100
AcDbEntity
  8
0
  6
Continuous
 62
     7
370
    25
100
AcDbLine
 10
33.9602330879
 20
33.1361281017
 30
0.0
 11
34.1474705283
 21
36.3724187506
 31
0.0
  0
LINE
  5
15C
330
1F
100
AcDbEntity
  8
0
  6
Continuous
 62
     7
370
    25
100
AcDbLine
 10
34.4312425788
 20
32.7033897
 30
0.0
 11
36.5951622349
 21
32.7234377319
 31
0.0
  0
LINE
  5
15D
330
1F
100
AcDbEntity
  8
0
  6
Continuous
 62
     7
370
    25
100
AcDbLine
 10
37.1167764395
 20
33.1653724786
 30
0.0
 11
37.3040138799
 21
36.4016631274
 31
0.0
  0
LINE
  5
15E
330
1F
100
AcDbEntity
  8
0
  6
Continuous
 62
     7
370
    25
100
AcDbLine
 10
38.9695860081
 20
36.417094127
 30
0.0
 11
37.3040138799
 21
36.4016631274
 31
0.0
  0
LINE
  5
15F
330
1F
100
AcDbEntity
  8
0
  6
Continuous
 62
     7
370
    25
100
AcDbLine
 10
39.5924096399
 20
38.6083751703
 30
0.0
 11
39.4912002126
 21
36.8590288736
 31
0.0
  0
LINE
  5
160
330
1F
100
AcDbEntity
  8
0
  6
Continuous
 62
     7
370
    25
100
AcDbLine
 10
41.33698667
 20
39.0616402811
 30
0.0
 11
40.1140238444
 21
39.0503099169
 31
0.0
  0
LINE
  5
161
330
1F
100
AcDbEntity
  8
0
  6
Continuous
 62
     7
370
    25
100
AcDbLine
 10
45.9536603828
 20
39.978616616
 30
0.0
 11
43.106866057
 21
39.9522419661
 31
0.0
  0
LINE
  5
162
330
1F
100
AcDbEntity
  8
0
  6
Continuous
 62
     7
370
    25
100
AcDbLine
 10
51.4173704774
 20
34.9588511561
 30
0.0
 11
45.9536603828
 21
39.978616616
 31
0.0
  0
LINE
  5
163
330
1F
100
AcDbEntity
  8
0
  6
Continuous
 62
     7
370
    25
100
AcDbLine
 10
47.3841748012
 20
-34.7525987674
 30
0.0
 11
51.4173704774
 21
34.9588511561
 31
0.0
  0
LINE
  5
164
330
1F
100
AcDbEntity
  8
0
  6
Continuous
 62
     7
370
    25
100
AcDbLine
 10
46.8625605967
 20
-35.194533514
 30
0.0
 11
45.1254691296
 21
-35.2106271176
 31
0.0
  0
LINE
  5
165
330
1F
100
AcDbEntity
  8
0
  6
Continuous
 62
     7
370
    25
100
AcDbLine
 10
44.366012771
 20
-39.7635256614
 30
0.0
 11
44.6038549251
 21
-35.6525618642
 31
0.0
  0
LINE
  5
166
330
1F
100
AcDbEntity
  8
0
  6
Continuous
 62
     7
370
    25
100
AcDbLine
 10
32.1810701448
 20
-40.3135174608
 30
0.0
 11
43.8443985664
 21
-40.2054604081
 31
0.0
  0
LINE
  5
167
330
1F
100
AcDbEntity
  8
0
  6
Continuous
 62
     7
370
    25
100
AcDbLine
 10
31.5633069843
 20
-42.4173311893
 30
0.0
 11
31.6594559402
 21
-40.7554522074
 31
0.0
  0
LINE
  5
168
330
1F
100
AcDbEntity
  8
0
  6
Continuous
 62
     7
370
    25
100
AcDbLine
 10
31.0416927798
 20
-42.8592659359
 30
0.0
 11
-36.2581937726
 21
-43.4827781207
 31
0.0
  0
LINE
  5
169
330
1F
100
AcDbEntity
  8
0
  6
Continuous
 62
     7
370
    25
100
AcDbLine
 10
-36.6330543076
 20
-41.3881607371
 30
0.0
 11
-36.7292032635
 21
-43.050039719
 31
0.0
  0
LINE
  5
16A
330
1F
100
AcDbEntity
  8
0
  6
Continuous
 62
     7
370
    25
100
AcDbLine
 10
-8.9662026676
 20
-7.2022392268
 30
0.0
 11
-3.500601333
 21
-7.1516021574
 31
0.0
  0
LINE
  5
16B
330
1F
100
AcDbEntity
  8
0
  6
Continuous
 62
     7
370
    25
100
AcDbLine
 10
-3.500601333
 20
-7.1516021574
 30
0.0
 11
-3.5461455753
 21
-7.9388079909
 31
0.0
  0
LINE
  5
16C
330
1F
100
AcDbEntity
  8
0
  6
Continuous
 62
     7
370
    25
100
AcDbLine
 10
2.4095965975
 20
-7.8836299214
 30
0.0
 11
2.4551408398
 21
-7.0964240879
 31
0.0
  0
LINE
  5
16D
330
1F
100
AcDbEntity
  8
0
  6
Continuous
 62
     7
370
    25
100
AcDbLine
 10
2.4551408398
 20
-7.0964240879
 30
0.0
 11
7.9084001553
 21
-7.0459013634
 31
0.0
  0
LINE
  5
16E
330
1F
100
AcDbEntity
  8
0
  6
Continuous
 62
     7
370
    25
100
AcDbLine
 10
7.9084001553
 20
-7.0459013634
 30
0.0
 11
8.7788012297
 21
7.9984767882
 31
0.0
  0
LINE
  5
16F
330
1F
100
AcDbEntity
  8
0
  6
Continuous
 62
     7
370
    25
100
AcDbLine
 10
8.7788012297
 20
7.9984767882
 30
0.0
 11
3.322624118
 21
7.9479270312
 31
0.0
  0
LINE
  5
170
330
1F
100
AcDbEntity
  8
0
  6
Continuous
 62
     7
370
    25
100
AcDbLine
 10
3.322624118
 20
7.9479270312
 30
0.0
 11
3.3709944662
 21
8.7335843578
 31
0.0
  0
LINE
  5
171
330
1F
100
AcDbEntity
  8
0
  6
Continuous
 62
     7
370
    25
100
AcDbLine
 10
-2.5846560163
 20
8.6799818277
 30
0.0
 11
-2.6302002586
 21
7.8927759942
 31
0.0
  0
LINE
  5
172
330
1F
100
AcDbEntity
  8
0
  6
Continuous
 62
     7
370
    25
100
AcDbLine
 10
-2.6302002586
 20
7.8927759942
 30
0.0
 11
-8.0958015932
 21
7.8421389248
 31
0.0
  0
LINE
  5
173
330
1F
100
AcDbEntity
  8
0
  6
Continuous
 62
     7
370
    25
100
AcDbLine
 10
-8.0958015932
 20
7.8421389248
 30
0.0
 11
-8.9662026676
 21
-7.2022392268
 31
0.0
  0
LINE
  5
174
330
1F
100
AcDbEntity
  8
0
  6
Continuous
 62
     7
370
    25
100
AcDbLine
 10
44.0206700818
 20
-40.9808619271
 30
0.0
 11
43.8443985664
 21
-40.2054604081
 31
0.0
  0
LINE
  5
175
330
1F
100
AcDbEntity
  8
0
  6
Continuous
 62
     7
370
    25
100
AcDbLine
 10
44.366012771
 20
-39.7635256614
 30
0.0
 11
44.5422842864
 21
-40.5389271804
 31
0.0
  0
LINE
  5
176
330
1F
100
AcDbEntity
  8
0
  6
Continuous
 62
     7
370
    25
100
AcDbLine
 10
32.1810701448
 20
-40.3135174608
 30
0.0
 11
32.3573416602
 21
-41.0889189797
 31
0.0
  0
LINE
  5
177
330
1F
100
AcDbEntity
  8
0
  6
Continuous
 62
     7
370
    25
100
AcDbLine
 10
44.0206700818
 20
-40.9808619271
 30
0.0
 11
32.3573416602
 21
-41.0889189797
 31
0.0
  0
LINE
  5
178
330
1F
100
AcDbEntity
  8
0
  6
Continuous
 62
     7
370
    25
100
AcDbLine
 10
31.2179642952
 20
-43.6346674549
 30
0.0
 11
31.0416927798
 21
-42.8592659359
 31
0.0
  0
LINE
  5
179
330
1F
100
AcDbEntity
  8
0
  6
Continuous
 62
     7
370
    25
100
AcDbLine
 10
31.5633069843
 20
-42.4173311893
 30
0.0
 11
31.7395784997
 21
-43.1927327082
 31
0.0
  0
LINE
  5
17A
330
1F
100
AcDbEntity
  8
0
  6
Continuous
 62
     7
370
    25
100
AcDbLine
 10
-36.2581937726
 20
-43.4827781207
 30
0.0
 11
-36.0819222572
 21
-44.2581796397
 31
0.0
  0
LINE
  5
17B
330
1F
100
AcDbEntity
  8
0
  6
Continuous
 62
     7
370
    25
100
AcDbLine
 10
-36.0819222572
 20
-44.2581796397
 30
0.0
 11
31.2179642952
 21
-43.6346674549
 31
0.0
  0
LINE
  5
17C
330
1F
100
AcDbEntity
  8
0
  6
Continuous
 62
     7
370
    25
100
AcDbLine
 10
44.7801264404
 20
-36.4279633832
 30
0.0
 11
44.6038549251
 21
-35.6525618642
 31
0.0
  0
LINE
  5
17D
330
1F
100
AcDbEntity
  8
0
  6
Continuous
 62
     7
370
    25
100
AcDbLine
 10
44.5422842864
 20
-40.5389271804
 30
0.0
 11
44.7801264404
 21
-36.4279633832
 31
0.0
  0
LINE
  5
17E
330
1F
100
AcDbEntity
  8
0
  6
Continuous
 62
     7
370
    25
100
AcDbLine
 10
31.8357274556
 20
-41.5308537264
 30
0.0
 11
31.6594559402
 21
-40.7554522074
 31
0.0
  0
LINE
  5
17F
330
1F
100
AcDbEntity
  8
0
  6
Continuous
 62
     7
370
    25
100
AcDbLine
 10
31.7395784997
 20
-43.1927327082
 30
0.0
 11
31.8357274556
 21
-41.5308537264
 31
0.0
  0
LINE
  5
180
330
1F
100
AcDbEntity
  8
0
  6
Continuous
 62
     7
370
    25
100
AcDbLine
 10
47.0388321121
 20
-35.969935033
 30
0.0
 11
46.8625605967
 21
-35.194533514
 31
0.0
  0
LINE
  5
181
330
1F
100
AcDbEntity
  8
0
  6
Continuous
 62
     7
370
    25
100
AcDbLine
 10
47.3841748012
 20
-34.7525987674
 30
0.0
 11
47.5604463166
 21
-35.5280002863
 31
0.0
  0
LINE
  5
182
330
1F
100
AcDbEntity
  8
0
  6
Continuous
 62
     7
370
    25
100
AcDbLine
 10
45.1254691296
 20
-35.2106271176
 30
0.0
 11
45.301740645
 21
-35.9860286366
 31
0.0
  0
LINE
  5
183
330
1F
100
AcDbEntity
  8
0
  6
Continuous
 62
     7
370
    25
100
AcDbLine
 10
45.301740645
 20
-35.9860286366
 30
0.0
 11
47.0388321121
 21
-35.969935033
 31
0.0
  0
LINE
  5
184
330
1F
100
AcDbEntity
  8
0
  6
Continuous
 62
     7
370
    25
100
AcDbLine
 10
51.5936419928
 20
34.1834496371
 30
0.0
 11
51.4173704774
 21
34.9588511561
 31
0.0
  0
LINE
  5
185
330
1F
100
AcDbEntity
  8
0
  6
Continuous
 62
     7
370
    25
100
AcDbLine
 10
47.5604463166
 20
-35.5280002863
 30
0.0
 11
51.5936419928
 21
34.1834496371
 31
0.0
  0
LINE
  5
186
330
1F
100
AcDbEntity
  8
0
  6
Continuous
 62
     7
370
    25
100
AcDbLine
 10
-36.9277922832
 20
-41.7308238544
 30
0.0
 11
-37.1040637985
 21
-40.9554223354
 31
0.0
  0
LINE
  5
187
330
1F
100
AcDbEntity
  8
0
  6
Continuous
 62
     7
370
    25
100
AcDbLine
 10
-48.7673922202
 20
-41.0634793881
 30
0.0
 11
-48.5911207048
 21
-41.8388809071
 31
0.0
  0
LINE
  5
188
330
1F
100
AcDbEntity
  8
0
  6
Continuous
 62
     7
370
    25
100
AcDbLine
 10
-36.9277922832
 20
-41.7308238544
 30
0.0
 11
-48.5911207048
 21
-41.8388809071
 31
0.0
  0
LINE
  5
189
330
1F
100
AcDbEntity
  8
0
  6
Continuous
 62
     7
370
    25
100
AcDbLine
 10
-49.2952975326
 20
-36.8624403064
 30
0.0
 11
-49.471569048
 21
-36.0870387874
 31
0.0
  0
LINE
  5
18A
330
1F
100
AcDbEntity
  8
0
  6
Continuous
 62
     7
370
    25
100
AcDbLine
 10
-51.2086605151
 20
-36.103132391
 30
0.0
 11
-51.0323889997
 21
-36.87853391
 31
0.0
  0
LINE
  5
18B
330
1F
100
AcDbEntity
  8
0
  6
Continuous
 62
     7
370
    25
100
AcDbLine
 10
-51.0323889997
 20
-36.87853391
 30
0.0
 11
-49.2952975326
 21
-36.8624403064
 31
0.0
  0
LINE
  5
18C
330
1F
100
AcDbEntity
  8
0
  6
Continuous
 62
     7
370
    25
100
AcDbLine
 10
-3.3698740599
 20
-8.7142095099
 30
0.0
 11
-3.5461455753
 21
-7.9388079909
 31
0.0
  0
LINE
  5
18D
330
1F
100
AcDbEntity
  8
0
  6
Continuous
 62
     7
370
    25
100
AcDbLine
 10
-3.3698740599
 20
-8.7142095099
 30
0.0
 11
-3.3711818075
 21
-8.9561386296
 31
0.0
  0
LINE
  5
18E
330
1F
100
AcDbEntity
  8
0
  6
Continuous
 62
     7
370
    25
100
AcDbLine
 10
-3.3243298176
 20
-7.9270036764
 30
0.0
 11
-3.500601333
 21
-7.1516021574
 31
0.0
  0
LINE
  5
18F
330
1F
100
AcDbEntity
  8
0
  6
Continuous
 62
     7
370
    25
100
AcDbLine
 10
-3.3243298176
 20
-7.9270036764
 30
0.0
 11
-3.3698740599
 21
-8.7142095099
 31
0.0
  0
LINE
  5
190
330
1F
100
AcDbEntity
  8
0
  6
Continuous
 62
     7
370
    25
100
AcDbLine
 10
-7.9195300778
 20
7.0667374058
 30
0.0
 11
-8.0958015932
 21
7.8421389248
 31
0.0
  0
LINE
  5
191
330
1F
100
AcDbEntity
  8
0
  6
Continuous
 62
     7
370
    25
100
AcDbLine
 10
-7.9195300778
 20
7.0667374058
 30
0.0
 11
-8.7449512615
 21
-7.2001894025
 31
0.0
  0
LINE
  5
192
330
1F
100
AcDbEntity
  8
0
  6
Continuous
 62
     7
370
    25
100
AcDbLine
 10
3.4988956334
 20
7.1725255122
 30
0.0
 11
3.322624118
 21
7.9479270312
 31
0.0
  0
LINE
  5
193
330
1F
100
AcDbEntity
  8
0
  6
Continuous
 62
     7
370
    25
100
AcDbLine
 10
8.733821339
 20
7.2210254449
 30
0.0
 11
3.4988956334
 21
7.1725255122
 31
0.0
  0
LINE
  5
194
330
1F
100
AcDbEntity
  8
0
  6
Continuous
 62
     7
370
    25
100
AcDbLine
 10
-2.4083845009
 20
7.9045803088
 30
0.0
 11
-2.5846560163
 21
8.6799818277
 31
0.0
  0
LINE
  5
195
330
1F
100
AcDbEntity
  8
0
  6
Continuous
 62
     7
370
    25
100
AcDbLine
 10
-2.4539287432
 20
7.1173744752
 30
0.0
 11
-2.6302002586
 21
7.8927759942
 31
0.0
  0
LINE
  5
196
330
1F
100
AcDbEntity
  8
0
  6
Continuous
 62
     7
370
    25
100
AcDbLine
 10
-2.4083845009
 20
7.9045803088
 30
0.0
 11
-2.4539287432
 21
7.1173744752
 31
0.0
  0
LINE
  5
197
330
1F
100
AcDbEntity
  8
0
  6
Continuous
 62
     7
370
    25
100
AcDbLine
 10
-2.4539287432
 20
7.1173744752
 30
0.0
 11
-7.9195300778
 21
7.0667374058
 31
0.0
  0
LINE
  5
198
330
1F
100
AcDbEntity
  8
0
  6
Continuous
 62
     7
370
    25
100
AcDbLine
 10
34.3237420437
 20
35.5970172316
 30
0.0
 11
34.1474705283
 21
36.3724187506
 31
0.0
  0
LINE
  5
199
330
1F
100
AcDbEntity
  8
0
  6
Continuous
 62
     7
370
    25
100
AcDbLine
 10
34.1604233785
 20
32.7741487503
 30
0.0
 11
34.3237420437
 21
35.5970172316
 31
0.0
  0
LINE
  5
19A
330
1F
100
AcDbEntity
  8
0
  6
Continuous
 62
     7
370
    25
100
AcDbLine
 10
28.3679998709
 20
35.5418391622
 30
0.0
 11
28.1917283555
 21
36.3172406812
 31
0.0
  0
LINE
  5
19B
330
1F
100
AcDbEntity
  8
0
  6
Continuous
 62
     7
370
    25
100
AcDbLine
 10
28.2046812057
 20
32.7189706809
 30
0.0
 11
28.3679998709
 21
35.5418391622
 31
0.0
  0
LINE
  5
19C
330
1F
100
AcDbEntity
  8
0
  6
Continuous
 62
     7
370
    25
100
AcDbLine
 10
22.4122576982
 20
35.4866610927
 30
0.0
 11
22.2359861828
 21
36.2620626117
 31
0.0
  0
LINE
  5
19D
330
1F
100
AcDbEntity
  8
0
  6
Continuous
 62
     7
370
    25
100
AcDbLine
 10
22.2489390329
 20
32.6637926114
 30
0.0
 11
22.4122576982
 21
35.4866610927
 31
0.0
  0
LINE
  5
19E
330
1F
100
AcDbEntity
  8
0
  6
Continuous
 62
     7
370
    25
100
AcDbLine
 10
20.3768855063
 20
37.6533147916
 30
0.0
 11
20.2006139909
 21
38.4287163106
 31
0.0
  0
LINE
  5
19F
330
1F
100
AcDbEntity
  8
0
  6
Continuous
 62
     7
370
    25
100
AcDbLine
 10
20.3768855063
 20
37.6533147916
 30
0.0
 11
20.2995948542
 21
36.3173906625
 31
0.0
  0
LINE
  5
1A0
330
1F
100
AcDbEntity
  8
0
  6
Continuous
 62
     8
370
    25
100
AcDbLine
 10
33.9602330879
 20
33.1361281017
 30
0.0
 11
34.0070219368
 21
32.9303084354
 31
0.0
  0
LINE
  5
1A1
330
1F
100
AcDbEntity
  8
0
  6
Continuous
 62
     8
370
    25
100
AcDbLine
 10
28.0044909151
 20
33.0809500323
 30
0.0
 11
28.051279764
 21
32.875130366
 31
0.0
  0
LINE
  5
1A2
330
1F
100
AcDbEntity
  8
0
  6
Continuous
 62
     8
370
    25
100
AcDbLine
 10
22.0487487423
 20
33.0257719628
 30
0.0
 11
22.0955375912
 21
32.8199522965
 31
0.0
  0
LINE
  5
1A3
330
1F
100
AcDbEntity
  8
0
  6
Continuous
 62
     8
370
    25
100
AcDbLine
 10
20.0994045637
 20
36.6793700139
 30
0.0
 11
20.1461934125
 21
36.4735503476
 31
0.0
  0
ARC
  5
1A4
330
1F
100
AcDbEntity
  8
0
  6
Continuous
 62
     7
370
    25
100
AcDbCircle
 10
-37.0676020963
 20
-41.3884378105
 30
0.0
 40
0.4345478770362764
100
AcDbArc
 50
0.0365325418
 51
94.8131884181
  0
ARC
  5
1A5
330
1F
100
AcDbEntity
  8
0
  6
Continuous
 62
     7
370
    25
100
AcDbCircle
 10
-48.8038539225
 20
-40.6304639129
 30
0.0
 40
0.4345478770362783
100
AcDbArc
 50
180.0365325418
 51
274.8131884181
  0
ARC
  5
1A6
330
1F
100
AcDbEntity
  8
0
  6
Continuous
 62
     7
370
    25
100
AcDbCircle
 10
-49.4351073458
 20
-36.5200542625
 30
0.0
 40
0.4345478770362842
100
AcDbArc
 50
0.0365325418
 51
94.8131884181
  0
ARC
  5
1A7
330
1F
100
AcDbEntity
  8
0
  6
Continuous
 62
     7
370
    25
100
AcDbCircle
 10
-51.2451222173
 20
-35.6701169159
 30
0.0
 40
0.4345478770362984
100
AcDbArc
 50
180.0365325418
 51
274.8131884181
  0
ARC
  5
1A8
330
1F
100
AcDbEntity
  8
0
  6
Continuous
 62
     7
370
    25
100
AcDbCircle
 10
-37.0410669684
 20
40.4388144606
 30
0.0
 40
2.113471067433954
100
AcDbArc
 50
216.0896451891
 51
324.971979025
  0
ARC
  5
1A9
330
1F
100
AcDbEntity
  8
0
  6
Continuous
 62
     7
370
    25
100
AcDbCircle
 10
-14.2107219727
 20
40.6503303935
 30
0.0
 40
2.113471067433959
100
AcDbArc
 50
216.0896451891
 51
324.971979025
  0
ARC
  5
1AA
330
1F
100
AcDbEntity
  8
0
  6
Continuous
 62
     7
370
    25
100
AcDbCircle
 10
18.4273400711
 20
40.7466400827
 30
0.0
 40
1.898172983598664
100
AcDbArc
 50
213.1423526664
 51
272.3943918685
  0
ARC
  5
1AB
330
1F
100
AcDbEntity
  8
0
  6
Continuous
 62
     7
370
    25
100
AcDbCircle
 10
19.7660662022
 20
38.4284392372
 30
0.0
 40
0.4345478770362904
100
AcDbArc
 50
0.0365325418
 51
94.8131884181
  0
ARC
  5
1AC
330
1F
100
AcDbEntity
  8
0
  6
Continuous
 62
     7
370
    25
100
AcDbCircle
 10
20.5339523524
 20
36.6796470873
 30
0.0
 40
0.4345478770362977
100
AcDbArc
 50
180.0365325418
 51
274.8131884181
  0
ARC
  5
1AD
330
1F
100
AcDbEntity
  8
0
  6
Continuous
 62
     7
370
    25
100
AcDbCircle
 10
22.483296531
 20
33.0260490363
 30
0.0
 40
0.4345478770362906
100
AcDbArc
 50
180.0365325418
 51
274.8131884181
  0
ARC
  5
1AE
330
1F
100
AcDbEntity
  8
0
  6
Continuous
 62
     7
370
    25
100
AcDbCircle
 10
24.701369942
 20
33.1209969019
 30
0.0
 40
0.5082233463054006
100
AcDbArc
 50
268.0050408817
 51
352.5404671226
  0
ARC
  5
1AF
330
1F
100
AcDbEntity
  8
0
  6
Continuous
 62
     7
370
    25
100
AcDbCircle
 10
28.4390387038
 20
33.0812271057
 30
0.0
 40
0.4345478770362871
100
AcDbArc
 50
180.0365325418
 51
274.8131884181
  0
ARC
  5
1B0
330
1F
100
AcDbEntity
  8
0
  6
Continuous
 62
     7
370
    25
100
AcDbCircle
 10
30.6571121148
 20
33.1761749714
 30
0.0
 40
0.5082233463054006
100
AcDbArc
 50
268.0050408817
 51
352.5404671226
  0
ARC
  5
1B1
330
1F
100
AcDbEntity
  8
0
  6
Continuous
 62
     7
370
    25
100
AcDbCircle
 10
34.3947808766
 20
33.1364051752
 30
0.0
 40
0.4345478770362835
100
AcDbArc
 50
180.0365325418
 51
274.8131884181
  0
ARC
  5
1B2
330
1F
100
AcDbEntity
  8
0
  6
Continuous
 62
     7
370
    25
100
AcDbCircle
 10
36.6128542876
 20
33.2313530408
 30
0.0
 40
0.5082233463053926
100
AcDbArc
 50
268.0050408817
 51
352.5404671226
  0
ARC
  5
1B3
330
1F
100
AcDbEntity
  8
0
  6
Continuous
 62
     7
370
    25
100
AcDbCircle
 10
38.9872780608
 20
36.9250094358
 30
0.0
 40
0.5082233463053922
100
AcDbArc
 50
268.0050408817
 51
352.5404671226
  0
ARC
  5
1B4
330
1F
100
AcDbEntity
  8
0
  6
Continuous
 62
     7
370
    25
100
AcDbCircle
 10
40.0963317917
 20
38.542394608
 30
0.0
 40
0.5082233463054076
100
AcDbArc
 50
88.0050408817
 51
172.5404671226
  0
ARC
  5
1B5
330
1F
100
AcDbEntity
  8
0
  6
Continuous
 62
     7
370
    25
100
AcDbCircle
 10
41.337643507
 20
41.2642631973
 30
0.0
 40
2.202623014162726
100
AcDbArc
 50
269.9829140125
 51
323.4400832541
  0
ARC
  5
1B6
330
1F
100
AcDbEntity
  8
0
  6
Continuous
 62
     7
370
    25
100
AcDbCircle
 10
46.8802526493
 20
-34.6866182051
 30
0.0
 40
0.5082233463053856
100
AcDbArc
 50
268.0050408817
 51
352.5404671226
  0
ARC
  5
1B7
330
1F
100
AcDbEntity
  8
0
  6
Continuous
 62
     7
370
    25
100
AcDbCircle
 10
45.1077770769
 20
-35.7185424265
 30
0.0
 40
0.5082233463054006
100
AcDbArc
 50
88.0050408817
 51
172.5404671226
  0
ARC
  5
1B8
330
1F
100
AcDbEntity
  8
0
  6
Continuous
 62
     7
370
    25
100
AcDbCircle
 10
43.8620906191
 20
-39.6975450992
 30
0.0
 40
0.5082233463053856
100
AcDbArc
 50
268.0050408817
 51
352.5404671226
  0
ARC
  5
1B9
330
1F
100
AcDbEntity
  8
0
  6
Continuous
 62
     7
370
    25
100
AcDbCircle
 10
32.1633780921
 20
-40.8214327696
 30
0.0
 40
0.5082233463053993
100
AcDbArc
 50
88.0050408817
 51
172.5404671226
  0
ARC
  5
1BA
330
1F
100
AcDbEntity
  8
0
  6
Continuous
 62
     7
370
    25
100
AcDbCircle
 10
31.0593848325
 20
-42.351350627
 30
0.0
 40
0.508223346305428
100
AcDbArc
 50
268.0050408817
 51
352.5404671226
  0
ARC
  5
1BB
330
1F
100
AcDbEntity
  8
0
  6
Continuous
 62
     7
370
    25
100
AcDbCircle
 10
-36.2946554748
 20
-43.0497626456
 30
0.0
 40
0.4345478770362906
100
AcDbArc
 50
180.0365325418
 51
274.8131884181
  0
ARC
  5
1BC
330
1F
100
AcDbEntity
  8
0
  6
Continuous
 62
     7
370
    25
100
AcDbCircle
 10
44.0383621345
 20
-40.4729466182
 30
0.0
 40
0.5082233463053926
100
AcDbArc
 50
268.0050408817
 51
352.5404671226
  0
ARC
  5
1BD
330
1F
100
AcDbEntity
  8
0
  6
Continuous
 62
     7
370
    25
100
AcDbCircle
 10
31.2356563479
 20
-43.126752146
 30
0.0
 40
0.5082233463054266
100
AcDbArc
 50
268.0050408817
 51
352.5404671226
  0
ARC
  5
1BE
330
1F
100
AcDbEntity
  8
0
  6
Continuous
 62
     7
370
    25
100
AcDbCircle
 10
32.3396496075
 20
-41.5968342886
 30
0.0
 40
0.5082233463054059
100
AcDbArc
 50
88.0050408817
 51
172.5404671226
  0
ARC
  5
1BF
330
1F
100
AcDbEntity
  8
0
  6
Continuous
 62
     7
370
    25
100
AcDbCircle
 10
47.0565241647
 20
-35.4620197241
 30
0.0
 40
0.5082233463053917
100
AcDbArc
 50
268.0050408817
 51
352.5404671226
  0
ARC
  5
1C0
330
1F
100
AcDbEntity
  8
0
  6
Continuous
 62
     7
370
    25
100
AcDbCircle
 10
45.2840485923
 20
-36.4939439454
 30
0.0
 40
0.5082233463054199
100
AcDbArc
 50
88.0050408817
 51
172.5404671226
  0
ARC
  5
1C1
330
1F
100
AcDbEntity
  8
0
  6
Continuous
 62
     7
370
    25
100
AcDbCircle
 10
-36.1146171849
 20
-43.8139868863
 30
0.0
 40
0.4453943875504844
100
AcDbArc
 50
195.3220603641
 51
274.2096799767
  0
ARC
  5
1C2
330
1F
100
AcDbEntity
  8
0
  6
Continuous
 62
     7
370
    25
100
AcDbCircle
 10
-36.9187003602
 20
-42.2496645364
 30
0.0
 40
0.5189203372113482
100
AcDbArc
 50
59.7105327999
 51
91.0039218616
  0
ARC
  5
1C3
330
1F
100
AcDbEntity
  8
0
  6
Continuous
 62
     7
370
    25
100
AcDbCircle
 10
-48.6238156325
 20
-41.3946881537
 30
0.0
 40
0.4453943875505391
100
AcDbArc
 50
195.3220603641
 51
274.2096799767
  0
ARC
  5
1C4
330
1F
100
AcDbEntity
  8
0
  6
Continuous
 62
     7
370
    25
100
AcDbCircle
 10
-49.2862056096
 20
-37.3812809884
 30
0.0
 40
0.5189203372114614
100
AcDbArc
 50
59.7105327999
 51
91.0039218616
  0
ARC
  5
1C5
330
1F
100
AcDbEntity
  8
0
  6
Continuous
 62
     7
370
    25
100
AcDbCircle
 10
-51.0650839273
 20
-36.4343411566
 30
0.0
 40
0.4453943875505198
100
AcDbArc
 50
195.3220603641
 51
274.2096799767
  0
ARC
  5
1C6
330
1F
100
AcDbEntity
  8
0
  6
Continuous
 62
     7
370
    25
100
AcDbCircle
 10
16.0412732699
 20
-15.1819365923
 30
0.0
 40
1.140798813425581
100
AcDbArc
 50
88.4260124043
 51
162.4366445366
  0
ARC
  5
1C7
330
1F
100
AcDbEntity
  8
0
  6
Continuous
 62
     7
370
    25
100
AcDbCircle
 10
16.1069020435
 20
-15.1167588567
 30
0.0
 40
1.075737403515909
100
AcDbArc
 50
42.1882797703
 51
91.8268467343
  0
ARC
  5
1C8
330
1F
100
AcDbEntity
  8
0
  6
Continuous
 62
     7
370
    25
100
AcDbCircle
 10
-17.5094076367
 20
-15.4927730502
 30
0.0
 40
1.140798813425565
100
AcDbArc
 50
88.4260124043
 51
162.4366445366
  0
ARC
  5
1C9
330
1F
100
AcDbEntity
  8
0
  6
Continuous
 62
     7
370
    25
100
AcDbCircle
 10
-17.4437788631
 20
-15.4275953146
 30
0.0
 40
1.075737403515912
100
AcDbArc
 50
42.1882797703
 51
91.8268467343
  0
ARC
  5
1CA
330
1F
100
AcDbEntity
  8
0
  6
Continuous
 62
     7
370
    25
100
AcDbCircle
 10
0.655835667
 20
7.5038928152
 30
0.0
 40
3.090306733100209
100
AcDbArc
 50
28.4710855909
 51
172.5500859003
  0
ARC
  5
1CB
330
1F
100
AcDbEntity
  8
0
  6
Continuous
 62
     7
370
    25
100
AcDbCircle
 10
17.7517125906
 20
14.3820158219
 30
0.0
 40
1.140798813425594
100
AcDbArc
 50
88.4260124043
 51
162.4366445366
  0
ARC
  5
1CC
330
1F
100
AcDbEntity
  8
0
  6
Continuous
 62
     7
370
    25
100
AcDbCircle
 10
17.8173413642
 20
14.4471935575
 30
0.0
 40
1.075737403515944
100
AcDbArc
 50
42.1882797703
 51
91.8268467343
  0
ARC
  5
1CD
330
1F
100
AcDbEntity
  8
0
  6
Continuous
 62
     7
370
    25
100
AcDbCircle
 10
-15.7989683161
 20
14.071179364
 30
0.0
 40
1.140798813425581
100
AcDbArc
 50
88.4260124043
 51
162.4366445366
  0
ARC
  5
1CE
330
1F
100
AcDbEntity
  8
0
  6
Continuous
 62
     7
370
    25
100
AcDbCircle
 10
-15.7333395424
 20
14.1363570996
 30
0.0
 40
1.075737403515927
100
AcDbArc
 50
42.1882797703
 51
91.8268467343
  0
MTEXT
  5
1D0
330
1F
100
AcDbEntity
  8
0
  6
Continuous
 62
     7
100
AcDbMText
 10
-51.679670006
 20
-45.2789476655
 30
0.0
 40
4.83362
 41
0.0
 71
     1
 72
     1
  1
SOLIDWORKS Educational Product.
  7
SLDTEXTSTYLE0
 73
     1
 44
1.0
  0
MTEXT
  5
1D1
330
1F
100
AcDbEntity
  8
0
  6
Continuous
 62
     7
100
AcDbMText
 10
-51.679670006
 20
-52.5293776655
 30
0.0
 40
4.83362
 41
0.0
 71
     1
 72
     1
  1
For Instructional Use Only.
  7
SLDTEXTSTYLE0
 73
     1
 44
1.0
  0
ENDSEC
  0
SECTION
  2
OBJECTS
  0
DICTIONARY
  5
C
330
0
100
AcDbDictionary
281
     1
  3
ACAD_GROUP
350
D
  3
ACAD_LAYOUT
350
1A
  3
ACAD_MLINESTYLE
350
17
  3
ACAD_PLOTSETTINGS
350
19
  3
ACAD_PLOTSTYLENAME
350
E
  3
ACAD_SCALELIST
350
47
  3
DWGPROPS
350
1D2
  0
DICTIONARY
  5
D
102
{ACAD_REACTORS
330
C
102
}
330
C
100
AcDbDictionary
281
     1
  0
DICTIONARY
  5
1A
102
{ACAD_REACTORS
330
C
102
}
330
C
100
AcDbDictionary
281
     1
  3
Layout1
350
1E
  3
Layout2
350
26
  3
Model
350
22
  0
DICTIONARY
  5
17
102
{ACAD_REACTORS
330
C
102
}
330
C
100
AcDbDictionary
281
     1
  3
Standard
350
18
  0
DICTIONARY
  5
19
102
{ACAD_REACTORS
330
C
102
}
330
C
100
AcDbDictionary
281
     1
  0
ACDBDICTIONARYWDFLT
  5
E
102
{ACAD_REACTORS
330
C
102
}
330
C
100
AcDbDictionary
281
     1
  3
Normal
350
F
100
AcDbDictionaryWithDefault
340
F
  0
DICTIONARY
  5
47
102
{ACAD_REACTORS
330
C
102
}
330
C
100
AcDbDictionary
281
     1
  3
A0
350
48
  3
A1
350
49
  3
A2
350
4A
  3
A3
350
4B
  3
A4
350
4C
  3
A5
350
4D
  3
A6
350
4E
  3
A7
350
4F
  3
A8
350
50
  3
A9
350
51
  3
B0
350
52
  3
B1
350
53
  3
B2
350
54
  3
B3
350
55
  3
B4
350
56
  3
B5
350
57
  3
B6
350
58
  3
B7
350
59
  3
B8
350
5A
  3
B9
350
5B
  3
C0
350
5C
  3
C1
350
5D
  3
C2
350
5E
  3
C3
350
5F
  3
C4
350
60
  3
C5
350
61
  3
C6
350
62
  3
C7
350
63
  3
C8
350
64
  3
C9
350
65
  3
D0
350
66
  3
D1
350
67
  3
D2
350
68
  0
XRECORD
  5
1D2
102
{ACAD_REACTORS
330
C
102
}
330
C
100
AcDbXrecord
280
     1
  1
DWGPROPS COOKIE
  2

  3

  4

  6

  7

  8
elevy
  9

300
=
301
=
302
=
303
=
304
=
305
=
306
=
307
=
308
=
309
=
 40
0.0
 41
2459171.949106991
 42
2459171.949328403
  1

 90
        0
  0
LAYOUT
  5
1E
102
{ACAD_REACTORS
330
1A
102
}
330
1A
100
AcDbPlotSettings
  1

  2
none_device
  4

  6

 40
0.0
 41
0.0
 42
0.0
 43
0.0
 44
0.0
 45
0.0
 46
0.0
 47
0.0
 48
0.0
 49
0.0
140
0.0
141
0.0
142
1.0
143
1.0
 70
   688
 72
     1
 73
     0
 74
     5
  7

 75
    16
147
1.0
148
0.0
149
0.0
100
AcDbLayout
  1
Layout1
 70
     1
 71
     1
 10
0.0
 20
0.0
 11
420.0
 21
297.0
 12
0.0
 22
0.0
 32
0.0
 14
1.0000000000E+20
 24
1.0000000000E+20
 34
1.0000000000E+20
 15
-1.0000000000E+20
 25
-1.0000000000E+20
 35
-1.0000000000E+20
146
0.0
 13
0.0
 23
0.0
 33
0.0
 16
1.0
 26
0.0
 36
0.0
 17
0.0
 27
1.0
 37
0.0
 76
     0
330
1B
  0
LAYOUT
  5
26
102
{ACAD_REACTORS
330
1A
102
}
330
1A
100
AcDbPlotSettings
  1

  2
none_device
  4

  6

 40
0.0
 41
0.0
 42
0.0
 43
0.0
 44
0.0
 45
0.0
 46
0.0
 47
0.0
 48
0.0
 49
0.0
140
0.0
141
0.0
142
1.0
143
1.0
 70
   688
 72
     1
 73
     0
 74
     5
  7

 75
    16
147
1.0
148
0.0
149
0.0
100
AcDbLayout
  1
Layout2
 70
     1
 71
     2
 10
0.0
 20
0.0
 11
0.0
 21
0.0
 12
0.0
 22
0.0
 32
0.0
 14
0.0
 24
0.0
 34
0.0
 15
0.0
 25
0.0
 35
0.0
146
0.0
 13
0.0
 23
0.0
 33
0.0
 16
1.0
 26
0.0
 36
0.0
 17
0.0
 27
1.0
 37
0.0
 76
     0
330
23
  0
LAYOUT
  5
22
102
{ACAD_REACTORS
330
1A
102
}
330
1A
100
AcDbPlotSettings
  1

  2
none_device
  4
ANSI_A_(11.00_x_8.50_Inches)
  6

 40
6.35
 41
19.05
 42
6.35000508
 43
19.05000254
 44
279.4
 45
215.9
 46
133.4469498749
 47
81.7889547444
 48
0.0
 49
0.0
140
0.0
141
0.0
142
0.0887390995
143
1.0
 70
  1696
 72
     0
 73
     0
 74
     0
  7

 75
     0
147
0.0179189148
148
-1300.4909072572
149
0.0
100
AcDbLayout
  1
Model
 70
     1
 71
     0
 10
0.0
 20
0.0
 11
420.0
 21
297.0
 12
0.0
 22
0.0
 32
0.0
 14
-51.679670006
 24
-44.2593812738
 34
0.0
 15
51.5936419928
 25
50.5691672247
 35
0.0
146
0.0
 13
0.0
 23
0.0
 33
0.0
 16
1.0
 26
0.0
 36
0.0
 17
0.0
 27
1.0
 37
0.0
 76
     0
330
1F
331
29
  0
MLINESTYLE
  5
18
102
{ACAD_REACTORS
330
17
102
}
330
17
100
AcDbMlineStyle
  2
Standard
 70
     0
  3

 62
   256
 51
90.0
 52
90.0
 71
     2
 49
0.5
 62
   256
  6
BYLAYER
 49
-0.5
 62
   256
  6
BYLAYER
  0
ACDBPLACEHOLDER
  5
F
102
{ACAD_REACTORS
330
E
102
}
330
E
  0
SCALE
  5
48
102
{ACAD_REACTORS
330
47
102
}
330
47
100
AcDbScale
 70
     0
300
1:1
140
1.0
141
1.0
290
     1
  0
SCALE
  5
49
102
{ACAD_REACTORS
330
47
102
}
330
47
100
AcDbScale
 70
     0
300
1:2
140
1.0
141
2.0
290
     0
  0
SCALE
  5
4A
102
{ACAD_REACTORS
330
47
102
}
330
47
100
AcDbScale
 70
     0
300
1:4
140
1.0
141
4.0
290
     0
  0
SCALE
  5
4B
102
{ACAD_REACTORS
330
47
102
}
330
47
100
AcDbScale
 70
     0
300
1:5
140
1.0
141
5.0
290
     0
  0
SCALE
  5
4C
102
{ACAD_REACTORS
330
47
102
}
330
47
100
AcDbScale
 70
     0
300
1:8
140
1.0
141
8.0
290
     0
  0
SCALE
  5
4D
102
{ACAD_REACTORS
330
47
102
}
330
47
100
AcDbScale
 70
     0
300
1:10
140
1.0
141
10.0
290
     0
  0
SCALE
  5
4E
102
{ACAD_REACTORS
330
47
102
}
330
47
100
AcDbScale
 70
     0
300
1:16
140
1.0
141
16.0
290
     0
  0
SCALE
  5
4F
102
{ACAD_REACTORS
330
47
102
}
330
47
100
AcDbScale
 70
     0
300
1:20
140
1.0
141
20.0
290
     0
  0
SCALE
  5
50
102
{ACAD_REACTORS
330
47
102
}
330
47
100
AcDbScale
 70
     0
300
1:30
140
1.0
141
30.0
290
     0
  0
SCALE
  5
51
102
{ACAD_REACTORS
330
47
102
}
330
47
100
AcDbScale
 70
     0
300
1:40
140
1.0
141
40.0
290
     0
  0
SCALE
  5
52
102
{ACAD_REACTORS
330
47
102
}
330
47
100
AcDbScale
 70
     0
300
1:50
140
1.0
141
50.0
290
     0
  0
SCALE
  5
53
102
{ACAD_REACTORS
330
47
102
}
330
47
100
AcDbScale
 70
     0
300
1:100
140
1.0
141
100.0
290
     0
  0
SCALE
  5
54
102
{ACAD_REACTORS
330
47
102
}
330
47
100
AcDbScale
 70
     0
300
2:1
140
2.0
141
1.0
290
     0
  0
SCALE
  5
55
102
{ACAD_REACTORS
330
47
102
}
330
47
100
AcDbScale
 70
     0
300
4:1
140
4.0
141
1.0
290
     0
  0
SCALE
  5
56
102
{ACAD_REACTORS
330
47
102
}
330
47
100
AcDbScale
 70
     0
300
8:1
140
8.0
141
1.0
290
     0
  0
SCALE
  5
57
102
{ACAD_REACTORS
330
47
102
}
330
47
100
AcDbScale
 70
     0
300
10:1
140
10.0
141
1.0
290
     0
  0
SCALE
  5
58
102
{ACAD_REACTORS
330
47
102
}
330
47
100
AcDbScale
 70
     0
300
100:1
140
100.0
141
1.0
290
     0
  0
SCALE
  5
59
102
{ACAD_REACTORS
330
47
102
}
330
47
100
AcDbScale
 70
     0
300
1/128" = 1'-0"
140
0.0078125
141
12.0
290
     0
  0
SCALE
  5
5A
102
{ACAD_REACTORS
330
47
102
}
330
47
100
AcDbScale
 70
     0
300
1/64" = 1'-0"
140
0.015625
141
12.0
290
     0
  0
SCALE
  5
5B
102
{ACAD_REACTORS
330
47
102
}
330
47
100
AcDbScale
 70
     0
300
1/32" = 1'-0"
140
0.03125
141
12.0
290
     0
  0
SCALE
  5
5C
102
{ACAD_REACTORS
330
47
102
}
330
47
100
AcDbScale
 70
     0
300
1/16" = 1'-0"
140
0.0625
141
12.0
290
     0
  0
SCALE
  5
5D
102
{ACAD_REACTORS
330
47
102
}
330
47
100
AcDbScale
 70
     0
300
3/32" = 1'-0"
140
0.09375
141
12.0
290
     0
  0
SCALE
  5
5E
102
{ACAD_REACTORS
330
47
102
}
330
47
100
AcDbScale
 70
     0
300
1/8" = 1'-0"
140
0.125
141
12.0
290
     0
  0
SCALE
  5
5F
102
{ACAD_REACTORS
330
47
102
}
330
47
100
AcDbScale
 70
     0
300
3/16" = 1'-0"
140
0.1875
141
12.0
290
     0
  0
SCALE
  5
60
102
{ACAD_REACTORS
330
47
102
}
330
47
100
AcDbScale
 70
     0
300
1/4" = 1'-0"
140
0.25
141
12.0
290
     0
  0
SCALE
  5
61
102
{ACAD_REACTORS
330
47
102
}
330
47
100
AcDbScale
 70
     0
300
3/8" = 1'-0"
140
0.375
141
12.0
290
     0
  0
SCALE
  5
62
102
{ACAD_REACTORS
330
47
102
}
330
47
100
AcDbScale
 70
     0
300
1/2" = 1'-0"
140
0.5
141
12.0
290
     0
  0
SCALE
  5
63
102
{ACAD_REACTORS
330
47
102
}
330
47
100
AcDbScale
 70
     0
300
3/4" = 1'-0"
140
0.75
141
12.0
290
     0
  0
SCALE
  5
64
102
{ACAD_REACTORS
330
47
102
}
330
47
100
AcDbScale
 70
     0
300
1" = 1'-0"
140
1.0
141
12.0
290
     0
  0
SCALE
  5
65
102
{ACAD_REACTORS
330
47
102
}
330
47
100
AcDbScale
 70
     0
300
1-1/2" = 1'-0"
140
1.5
141
12.0
290
     0
  0
SCALE
  5
66
102
{ACAD_REACTORS
330
47
102
}
330
47
100
AcDbScale
 70
     0
300
3" = 1'-0"
140
3.0
141
12.0
290
     0
  0
SCALE
  5
67
102
{ACAD_REACTORS
330
47
102
}
330
47
100
AcDbScale
 70
     0
300
6" = 1'-0"
140
6.0
141
12.0
290
     0
  0
SCALE
  5
68
102
{ACAD_REACTORS
330
47
102
}
330
47
100
AcDbScale
 70
     0
300
1'-0" = 1'-0"
140
12.0
141
12.0
290
     0
  0
ENDSEC
  0
EOF
