<?xml version="1.0" encoding="UTF-8" standalone="no"?>
<!-- Created with Inkscape (http://www.inkscape.org/) -->

<svg
   xmlns:dc="http://purl.org/dc/elements/1.1/"
   xmlns:cc="http://creativecommons.org/ns#"
   xmlns:rdf="http://www.w3.org/1999/02/22-rdf-syntax-ns#"
   xmlns:svg="http://www.w3.org/2000/svg"
   xmlns="http://www.w3.org/2000/svg"
   version="1.1"
   width="353.00943"
   height="269.58157"
   id="svg2">
  <defs
     id="defs4" />
  <metadata
     id="metadata7">
    <rdf:RDF>
      <cc:Work
         rdf:about="">
        <dc:format>image/svg+xml</dc:format>
        <dc:type
           rdf:resource="http://purl.org/dc/dcmitype/StillImage" />
        <dc:title></dc:title>
      </cc:Work>
    </rdf:RDF>
  </metadata>
  <g
     transform="translate(-0.68647772,-740.3696)"
     id="layer1">
    <path
       d="M 65.03125,60.0625 C 64.304632,60.11343 63.57509,60.679879 62.8125,62.09375 58.48565,65.69149 56.63278,60.11681 53.65625,62 c -0.15388,1.40963 -1.61091,2.8338 -3.28125,0.6875 -2.99487,-2.79265 -4.482243,-3.55794 -1.90625,1.375 0.77051,3.84292 2.26389,8.00314 0.28125,9.65625 -3.482546,1.8681 0.77021,6.35591 -1.15625,9.71875 -0.64011,4.30078 2.5385,5.8316 0.40625,9.78125 0.05717,3.47196 3.18576,7.82727 -1.0625,6.625 0.44287,3.65262 -1.820139,8.57081 -0.34375,9.96875 1.94524,2.4837 -1.162005,3.50916 -0.21875,8.03125 1.76842,-3.56502 -0.846461,3.45686 -2.15625,6.125 2.014498,1.11215 -1.449831,4.51408 -0.3125,7.84375 -0.439613,-0.40412 -2.017361,4.54429 -2.5,7.46875 0.350095,3.27311 0.44973,7.8035 -0.09375,9 -1.052002,5.6645 -0.61022,11.0114 -2.28125,16.46875 -0.793853,10.51325 -1.706768,20.53397 -3.90625,30.8125 -3.060969,7.40757 3.319875,-1.27268 -0.8125,4.34375 -1.368554,6.74341 -4.330908,12.92049 -8.3125,18.5625 0.146106,5.37444 -2.11822,10.73963 -3.125,16.125 -0.248217,4.91409 -6.319152,8.79119 -3.90625,13.5 0.97644,3.99092 5.021791,6.00868 4.78125,10.46875 1.359625,2.88239 -3.638935,9.77863 0.09375,9.1875 -3.390898,2.37923 -1.11969,8.79777 0.21875,12.21875 -0.253356,4.6128 2.056925,8.34697 5.6875,11.0625 4.117029,1.60873 9.553478,0.61126 14.15625,1.25 37.193812,0.78198 74.44458,0.77942 111.65625,1.84375 56.30196,0.48193 112.61476,-1.30972 168.84375,-4.15625 -1.4668,-30.45396 -2.84739,-60.89287 -4.375,-91.34375 -0.27672,-4.76655 -1.2343,-9.59034 1.5625,-13.65625 2.4075,-4.54006 -2.52704,-9.32288 1.875,-12.875 -0.55984,-3.4357 -6.5932,-5.2146 -9.5625,-7.34375 -4.03551,-0.083 -3.45595,-5.82339 -3.40625,-9.46875 1.42469,-3.78192 3.64211,-7.03023 4.46875,-11.34375 -0.26873,-5.14428 5.76941,-5.33671 6.8125,-9.6875 3.00047,-3.55381 1.66674,-7.387 2.125,-11.15625 5.63791,-6.73618 4.34786,-16.4351 9.25,-23.625 -0.89819,-4.22582 5.35512,-7.70938 1.625,-11.5 -1.09939,-4.65029 -4.64835,-6.22376 -8.4375,-8.09375 -4.13664,-0.49604 -6.2088,-5.67607 -8.25,-9.5 -24.59804,1.14163 -49.19693,1.87119 -73.8125,2.53125 -5.27344,-1.44356 -7.57121,3.3735 -12.34375,4.3125 -4.36374,-0.40887 -8.89808,0.36013 -13.1875,1.6875 -4.34613,-3.54691 -4.94681,4.42934 -9.375,3.0625 -4.88104,0.61002 -9.17774,2.11955 -13.5625,4.21875 -3.26023,2.45904 -6.83203,3.81911 -11.125,4.21875 -4.56533,1.78012 -7.98786,-5.4356 -12.15625,-0.28125 -3.36127,0.43319 -6.26691,4.44236 -9.1875,3.03125 -3.84786,-2.01635 -6.22488,3.66443 -9.1875,2.0625 -0.19436,-3.9504 -5.5689,-5.48275 -8.84375,-4.125 -3.66824,-3.34678 -8.28532,-0.20226 -12.40625,-0.34375 -4.62458,-2.22682 -6.30537,3.0828 -9.9375,4.53125 -3.77725,1.9736 -7.34673,2.70895 -8.5625,3.40625 -4.22886,1.41606 -7.06572,-1.71491 -11.53125,-1 C 99.673906,95.01236 93.78323,96.08519 93,90.78125 93.26218,89.4204 93.3704,88.07131 93.3125,86.6875 91.37671,82.55723 93.10735,77.07184 90,73.53125 89.84952,68.33681 84.359,66.81777 81.09375,64.1875 77.31643,62.1108 75.16955,68.04302 70.75,65 c -1.8128,-1.410496 -3.580922,-4.704535 -5.40625,-4.9375 -0.103712,-0.01324 -0.208697,-0.0073 -0.3125,0 z m 74.4375,49.65625 8.59375,0 0.53125,4.125 61.21875,-0.71875 1.59375,-3.40625 7.34375,0 40.65625,86.65625 -2.6875,5.375 -7.34375,0.34375 -29.90625,52.28125 2.6875,5.90625 -2.15625,4.28125 -8.40625,0.375 -2.3125,-4.3125 -61.5625,-0.53125 0.6875,1.96875 -1.625,4.3125 -4.65625,0.15625 -41.34375,-90.375 5.875,-7.9375 1.9375,0.25 28.0625,-47.71875 0.28125,-5.84375 2.53125,-5.1875 z m 78.28125,1.3125 a 0.68606394,0.68606394 0 0 0 -0.0625,0.0312 0.68606394,0.68606394 0 0 0 -0.40625,0.3125 L 176.8125,176.4687 c -0.97642,0.002 -70.42585,0.15625 -71.125,0.15625 a 0.859375,0.859375 0 0 0 0,1.71875 c 0.92594,0 70.09207,-0.15386 71.125,-0.15625 l 40,83.03125 a 0.86658904,0.86658904 0 1 0 1.5625,-0.75 l -40.28125,-83.5 40.34375,-64.875 a 0.68606394,0.68606394 0 0 0 -0.625,-1.0625 0.68606394,0.68606394 0 0 0 -0.0625,0 z m -58.96875,13.5625 -13,4.8125 -10.65625,16.9375 54.8125,0.0937 6.625,-10.21875 -6.03125,-11.375 -31.75,-0.25 z m 59.25,16.46875 -9.59375,15.15625 L 235,210.625 244.1875,194.59375 244,177.9375 l -16.28125,-34.03125 -9.6875,-2.84375 z m -85.25,8.78125 -9.96875,15.5625 6.09375,6.96875 35.25,0.0625 14.25,-6.09375 L 187.625,150 132.78125,149.84375 z m 72.84375,10.6875 -10.5625,18.53125 0.0625,18.5625 16.125,33.65625 11.4375,1.4375 9.625,-17.25 -26.6875,-54.9375 z m -62.40625,34.40625 -16.21875,0.25 -6.875,8.25 17.1875,38.75 11.4375,8.59375 20.25,0.1875 -25.78125,-56.03125 z m 24.34375,0.1875 -20.21875,0.0625 25.625,55.875 19.75,0 5.09375,-8.15625 -18.4375,-38.46875 -11.8125,-9.3125 z"
       transform="translate(0,698.03149)"
       id="1768"
       style="fill:#45a571;fill-opacity:1;stroke:none;display:inline" />
  </g>
</svg>
