  0
SECTION
  2
HEADER
  9
$ACADVER
  1
AC1015
  9
$ACADMAINTVER
 70
     6
  9
$DWGCODEPAGE
  3
ANSI_1252
  9
$INSBASE
 10
0.0
 20
0.0
 30
0.0
  9
$EXTMIN
 10
-49.9
 20
-49.8
 30
0.0
  9
$EXTMAX
 10
49.9
 20
57.3716782777
 30
0.0
  9
$LIMMIN
 10
0.0
 20
0.0
  9
$LIMMAX
 10
420.0
 20
297.0
  9
$ORTHOMODE
 70
     0
  9
$REGENMODE
 70
     1
  9
$FILLMODE
 70
     1
  9
$QTEXTMODE
 70
     0
  9
$MIRRTEXT
 70
     1
  9
$LTSCALE
 40
1.0
  9
$ATTMODE
 70
     1
  9
$TEXTSIZE
 40
3.5
  9
$TRACEWID
 40
1.0
  9
$TEXTSTYLE
  7
Standard
  9
$CLAYER
  8
0
  9
$CELTYPE
  6
ByLayer
  9
$CECOLOR
 62
   256
  9
$CELTSCALE
 40
1.0
  9
$DISPSILH
 70
     0
  9
$DIMSCALE
 40
1.0
  9
$DIMASZ
 40
3.302
  9
$DIMEXO
 40
0.0
  9
$DIMDLI
 40
3.75
  9
$DIMRND
 40
0.0
  9
$DIMDLE
 40
0.0
  9
$DIMEXE
 40
1.0
  9
$DIMTP
 40
0.0
  9
$DIMTM
 40
0.0
  9
$DIMTXT
 40
3.5
  9
$DIMCEN
 40
2.5
  9
$DIMTSZ
 40
0.0
  9
$DIMTOL
 70
     0
  9
$DIMLIM
 70
     0
  9
$DIMTIH
 70
     1
  9
$DIMTOH
 70
     1
  9
$DIMSE1
 70
     0
  9
$DIMSE2
 70
     0
  9
$DIMTAD
 70
     1
  9
$DIMZIN
 70
     1
  9
$DIMBLK
  1

  9
$DIMASO
 70
     1
  9
$DIMSHO
 70
     1
  9
$DIMPOST
  1

  9
$DIMAPOST
  1

  9
$DIMALT
 70
     0
  9
$DIMALTD
 70
     3
  9
$DIMALTF
 40
0.0393700787
  9
$DIMLFAC
 40
1.0
  9
$DIMTOFL
 70
     1
  9
$DIMTVP
 40
0.0
  9
$DIMTIX
 70
     0
  9
$DIMSOXD
 70
     0
  9
$DIMSAH
 70
     0
  9
$DIMBLK1
  1

  9
$DIMBLK2
  1

  9
$DIMSTYLE
  2
ISO-25
  9
$DIMCLRD
 70
     0
  9
$DIMCLRE
 70
     0
  9
$DIMCLRT
 70
     0
  9
$DIMTFAC
 40
1.0
  9
$DIMGAP
 40
1.524
  9
$DIMJUST
 70
     0
  9
$DIMSD1
 70
     0
  9
$DIMSD2
 70
     0
  9
$DIMTOLJ
 70
     0
  9
$DIMTZIN
 70
     1
  9
$DIMALTZ
 70
     0
  9
$DIMALTTZ
 70
     0
  9
$DIMUPT
 70
     0
  9
$DIMDEC
 70
     2
  9
$DIMTDEC
 70
     2
  9
$DIMALTU
 70
     2
  9
$DIMALTTD
 70
     3
  9
$DIMTXSTY
  7
Standard
  9
$DIMAUNIT
 70
     0
  9
$DIMADEC
 70
     2
  9
$DIMALTRND
 40
0.0
  9
$DIMAZIN
 70
     0
  9
$DIMDSEP
 70
    44
  9
$DIMATFIT
 70
     3
  9
$DIMFRAC
 70
     0
  9
$DIMLDRBLK
  1

  9
$DIMLUNIT
 70
     2
  9
$DIMLWD
 70
    -2
  9
$DIMLWE
 70
    -2
  9
$DIMTMOVE
 70
     0
  9
$LUNITS
 70
     2
  9
$LUPREC
 70
     2
  9
$SKETCHINC
 40
1.0
  9
$FILLETRAD
 40
10.0
  9
$AUNITS
 70
     0
  9
$AUPREC
 70
     2
  9
$MENU
  1
.
  9
$ELEVATION
 40
0.0
  9
$PELEVATION
 40
0.0
  9
$THICKNESS
 40
0.0
  9
$LIMCHECK
 70
     0
  9
$CHAMFERA
 40
0.0
  9
$CHAMFERB
 40
0.0
  9
$CHAMFERC
 40
0.0
  9
$CHAMFERD
 40
0.0
  9
$SKPOLY
 70
     0
  9
$TDCREATE
 40
2459139.774198056
  9
$TDUCREATE
 40
2459140.065864722
  9
$TDUPDATE
 40
2459139.774346134
  9
$TDUUPDATE
 40
2459140.066012801
  9
$TDINDWG
 40
0.0000000116
  9
$TDUSRTIMER
 40
0.0000000116
  9
$USRTIMER
 70
     1
  9
$ANGBASE
 50
0.0
  9
$ANGDIR
 70
     0
  9
$PDMODE
 70
     0
  9
$PDSIZE
 40
-1.0
  9
$PLINEWID
 40
0.0
  9
$SPLFRAME
 70
     0
  9
$SPLINETYPE
 70
     6
  9
$SPLINESEGS
 70
     8
  9
$HANDSEED
  5
19D
  9
$SURFTAB1
 70
     6
  9
$SURFTAB2
 70
     6
  9
$SURFTYPE
 70
     6
  9
$SURFU
 70
     6
  9
$SURFV
 70
     6
  9
$UCSBASE
  2

  9
$UCSNAME
  2

  9
$UCSORG
 10
0.0
 20
0.0
 30
0.0
  9
$UCSXDIR
 10
1.0
 20
0.0
 30
0.0
  9
$UCSYDIR
 10
0.0
 20
1.0
 30
0.0
  9
$UCSORTHOREF
  2

  9
$UCSORTHOVIEW
 70
     0
  9
$UCSORGTOP
 10
0.0
 20
0.0
 30
0.0
  9
$UCSORGBOTTOM
 10
0.0
 20
0.0
 30
0.0
  9
$UCSORGLEFT
 10
0.0
 20
0.0
 30
0.0
  9
$UCSORGRIGHT
 10
0.0
 20
0.0
 30
0.0
  9
$UCSORGFRONT
 10
0.0
 20
0.0
 30
0.0
  9
$UCSORGBACK
 10
0.0
 20
0.0
 30
0.0
  9
$PUCSBASE
  2

  9
$PUCSNAME
  2

  9
$PUCSORG
 10
0.0
 20
0.0
 30
0.0
  9
$PUCSXDIR
 10
1.0
 20
0.0
 30
0.0
  9
$PUCSYDIR
 10
0.0
 20
1.0
 30
0.0
  9
$PUCSORTHOREF
  2

  9
$PUCSORTHOVIEW
 70
     0
  9
$PUCSORGTOP
 10
0.0
 20
0.0
 30
0.0
  9
$PUCSORGBOTTOM
 10
0.0
 20
0.0
 30
0.0
  9
$PUCSORGLEFT
 10
0.0
 20
0.0
 30
0.0
  9
$PUCSORGRIGHT
 10
0.0
 20
0.0
 30
0.0
  9
$PUCSORGFRONT
 10
0.0
 20
0.0
 30
0.0
  9
$PUCSORGBACK
 10
0.0
 20
0.0
 30
0.0
  9
$USERI1
 70
     0
  9
$USERI2
 70
     0
  9
$USERI3
 70
     0
  9
$USERI4
 70
     0
  9
$USERI5
 70
     0
  9
$USERR1
 40
0.0
  9
$USERR2
 40
0.0
  9
$USERR3
 40
0.0
  9
$USERR4
 40
0.0
  9
$USERR5
 40
0.0
  9
$WORLDVIEW
 70
     1
  9
$SHADEDGE
 70
     3
  9
$SHADEDIF
 70
    70
  9
$TILEMODE
 70
     1
  9
$MAXACTVP
 70
    64
  9
$PINSBASE
 10
0.0
 20
0.0
 30
0.0
  9
$PLIMCHECK
 70
     0
  9
$PEXTMIN
 10
1.0000000000E+20
 20
1.0000000000E+20
 30
1.0000000000E+20
  9
$PEXTMAX
 10
-1.0000000000E+20
 20
-1.0000000000E+20
 30
-1.0000000000E+20
  9
$PLIMMIN
 10
0.0
 20
0.0
  9
$PLIMMAX
 10
420.0
 20
297.0
  9
$UNITMODE
 70
     0
  9
$VISRETAIN
 70
     1
  9
$PLINEGEN
 70
     0
  9
$PSLTSCALE
 70
     1
  9
$TREEDEPTH
 70
  3020
  9
$CMLSTYLE
  2
Standard
  9
$CMLJUST
 70
     0
  9
$CMLSCALE
 40
20.0
  9
$PROXYGRAPHICS
 70
     1
  9
$MEASUREMENT
 70
     1
  9
$CELWEIGHT
370
    -1
  9
$ENDCAPS
280
     0
  9
$JOINSTYLE
280
     0
  9
$LWDISPLAY
290
     1
  9
$INSUNITS
 70
     4
  9
$HYPERLINKBASE
  1

  9
$STYLESHEET
  1

  9
$XEDIT
290
     1
  9
$CEPSNTYPE
380
     0
  9
$PSTYLEMODE
290
     1
  9
$FINGERPRINTGUID
  2
{294309d0-19cd-43f9-ba79-91b91b41757f}
  9
$VERSIONGUID
  2
{FAEB1C32-E019-11D5-929B-00C0DF256EC4}
  9
$EXTNAMES
290
     1
  9
$PSVPSCALE
 40
0.0
  9
$OLESTARTUP
290
     0
  0
ENDSEC
  0
SECTION
  2
CLASSES
  0
CLASS
  1
ACDBDICTIONARYWDFLT
  2
AcDbDictionaryWithDefault
  3
ObjectDBX Classes
 90
        0
280
     0
281
     0
  0
CLASS
  1
VISUALSTYLE
  2
AcDbVisualStyle
  3
ObjectDBX Classes
 90
     4095
280
     0
281
     0
  0
CLASS
  1
MATERIAL
  2
AcDbMaterial
  3
ObjectDBX Classes
 90
     1153
280
     0
281
     0
  0
CLASS
  1
SCALE
  2
AcDbScale
  3
ObjectDBX Classes
 90
     1153
280
     0
281
     0
  0
CLASS
  1
TABLESTYLE
  2
AcDbTableStyle
  3
ObjectDBX Classes
 90
     4095
280
     0
281
     0
  0
CLASS
  1
MLEADERSTYLE
  2
AcDbMLeaderStyle
  3
ACDB_MLEADERSTYLE_CLASS
 90
     4095
280
     0
281
     0
  0
CLASS
  1
SUN
  2
AcDbSun
  3
SCENEOE
 90
     1153
280
     0
281
     0
  0
CLASS
  1
ACDBPLACEHOLDER
  2
AcDbPlaceHolder
  3
ObjectDBX Classes
 90
        0
280
     0
281
     0
  0
CLASS
  1
LAYOUT
  2
AcDbLayout
  3
ObjectDBX Classes
 90
        0
280
     0
281
     0
  0
ENDSEC
  0
SECTION
  2
TABLES
  0
TABLE
  2
VPORT
  5
8
330
0
100
AcDbSymbolTable
 70
     1
  0
VPORT
  5
29
330
8
100
AcDbSymbolTableRecord
100
AcDbViewportTableRecord
  2
*Active
 70
     0
 10
0.0
 20
0.0
 11
1.0
 21
1.0
 12
0.0
 22
3.7858391388
 13
0.0
 23
0.0
 14
10.0
 24
10.0
 15
10.0
 25
10.0
 16
0.0
 26
0.0
 36
1.0
 17
0.0
 27
0.0
 37
0.0
 40
109.3151118432
 41
0.9312161721
 42
50.0
 43
0.0
 44
0.0
 50
0.0
 51
0.0
 71
     0
 72
   100
 73
     1
 74
     3
 75
     0
 76
     0
 77
     0
 78
     0
281
     0
 65
     1
110
0.0
120
0.0
130
0.0
111
1.0
121
0.0
131
0.0
112
0.0
122
1.0
132
0.0
 79
     0
146
0.0
  0
ENDTAB
  0
TABLE
  2
LTYPE
  5
5
330
0
100
AcDbSymbolTable
 70
     6
  0
LTYPE
  5
14
330
5
100
AcDbSymbolTableRecord
100
AcDbLinetypeTableRecord
  2
ByBlock
 70
     0
  3

 72
    65
 73
     0
 40
0.0
  0
LTYPE
  5
15
330
5
100
AcDbSymbolTableRecord
100
AcDbLinetypeTableRecord
  2
ByLayer
 70
     0
  3

 72
    65
 73
     0
 40
0.0
  0
LTYPE
  5
16
330
5
100
AcDbSymbolTableRecord
100
AcDbLinetypeTableRecord
  2
Continuous
 70
     0
  3
Solid line
 72
    65
 73
     0
 40
0.0
  0
LTYPE
  5
6E
330
5
100
AcDbSymbolTableRecord
100
AcDbLinetypeTableRecord
  2
HIDDEN
 70
     0
  3
Hidden __ __ __ __ __ __ __ __ __ __ __ __ __ __
 72
    65
 73
     2
 40
1.905
 49
1.27
 74
     0
 49
-0.635
 74
     0
  0
LTYPE
  5
6F
330
5
100
AcDbSymbolTableRecord
100
AcDbLinetypeTableRecord
  2
PHANTOM
 70
     0
  3
Phantom ______  __  __  ______  __  __  ______
 72
    65
 73
     6
 40
12.7
 49
6.35
 74
     0
 49
-1.27
 74
     0
 49
1.27
 74
     0
 49
-1.27
 74
     0
 49
1.27
 74
     0
 49
-1.27
 74
     0
  0
LTYPE
  5
70
330
5
100
AcDbSymbolTableRecord
100
AcDbLinetypeTableRecord
  2
CENTER
 70
     0
  3
Center ____ _ ____ _ ____ _ ____ _ ____ _ ____
 72
    65
 73
     4
 40
10.16
 49
6.35
 74
     0
 49
-1.27
 74
     0
 49
1.27
 74
     0
 49
-1.27
 74
     0
  0
LTYPE
  5
71
330
5
100
AcDbSymbolTableRecord
100
AcDbLinetypeTableRecord
  2
CENTERX2
 70
     0
  3
Center (2x) ________  __  ________  __  _____
 72
    65
 73
     4
 40
20.32
 49
12.7
 74
     0
 49
-2.54
 74
     0
 49
2.54
 74
     0
 49
-2.54
 74
     0
  0
LTYPE
  5
72
330
5
100
AcDbSymbolTableRecord
100
AcDbLinetypeTableRecord
  2
DOT2
 70
     0
  3
Dot (.5x) ........................................
 72
    65
 73
     2
 40
0.635
 49
0.0
 74
     0
 49
-0.635
 74
     0
  0
ENDTAB
  0
TABLE
  2
LAYER
  5
2
330
0
100
AcDbSymbolTable
 70
     1
  0
LAYER
  5
10
330
2
100
AcDbSymbolTableRecord
100
AcDbLayerTableRecord
  2
0
 70
     0
 62
     7
  6
Continuous
370
    -3
390
F
  0
ENDTAB
  0
TABLE
  2
STYLE
  5
3
330
0
100
AcDbSymbolTable
 70
     2
  0
STYLE
  5
11
330
3
100
AcDbSymbolTableRecord
100
AcDbTextStyleTableRecord
  2
Standard
 70
     0
 40
0.0
 41
1.0
 50
0.0
 71
     0
 42
3.5
  3
txt
  4

  0
STYLE
  5
199
330
3
100
AcDbSymbolTableRecord
100
AcDbTextStyleTableRecord
  2
SLDTEXTSTYLE0
 70
     0
 40
0.0
 41
0.7
 50
0.0
 71
     0
 42
3.5
  3
TXT
  4

  0
ENDTAB
  0
TABLE
  2
VIEW
  5
6
330
0
100
AcDbSymbolTable
 70
     0
  0
ENDTAB
  0
TABLE
  2
UCS
  5
7
330
0
100
AcDbSymbolTable
 70
     0
  0
ENDTAB
  0
TABLE
  2
APPID
  5
9
330
0
100
AcDbSymbolTable
 70
     1
  0
APPID
  5
12
330
9
100
AcDbSymbolTableRecord
100
AcDbRegAppTableRecord
  2
ACAD
 70
     0
  0
ENDTAB
  0
TABLE
  2
DIMSTYLE
  5
A
330
0
100
AcDbSymbolTable
 70
     1
100
AcDbDimStyleTable
  0
DIMSTYLE
105
27
330
A
100
AcDbSymbolTableRecord
100
AcDbDimStyleTableRecord
  2
ISO-25
 70
     0
 41
2.5
 42
0.625
 43
3.75
 44
1.25
 73
     0
 74
     0
 77
     1
 78
     8
140
2.5
141
2.5
143
0.0393700787
147
0.625
171
     3
172
     1
178
     0
271
     2
272
     2
274
     3
278
    44
283
     0
284
     8
340
11
  0
ENDTAB
  0
TABLE
  2
BLOCK_RECORD
  5
1
330
0
100
AcDbSymbolTable
 70
     1
  0
BLOCK_RECORD
  5
1F
330
1
100
AcDbSymbolTableRecord
100
AcDbBlockTableRecord
  2
*Model_Space
340
22
  0
BLOCK_RECORD
  5
1B
330
1
100
AcDbSymbolTableRecord
100
AcDbBlockTableRecord
  2
*Paper_Space
340
1E
  0
BLOCK_RECORD
  5
23
330
1
100
AcDbSymbolTableRecord
100
AcDbBlockTableRecord
  2
*Paper_Space0
340
26
  0
ENDTAB
  0
ENDSEC
  0
SECTION
  2
BLOCKS
  0
BLOCK
  5
20
330
1F
100
AcDbEntity
  8
0
100
AcDbBlockBegin
  2
*Model_Space
 70
     0
 10
0.0
 20
0.0
 30
0.0
  3
*Model_Space
  1

  0
ENDBLK
  5
21
330
1F
100
AcDbEntity
  8
0
100
AcDbBlockEnd
  0
BLOCK
  5
1C
330
1B
100
AcDbEntity
 67
     1
  8
0
100
AcDbBlockBegin
  2
*Paper_Space
 70
     0
 10
0.0
 20
0.0
 30
0.0
  3
*Paper_Space
  1

  0
ENDBLK
  5
1D
330
1B
100
AcDbEntity
 67
     1
  8
0
100
AcDbBlockEnd
  0
BLOCK
  5
24
330
23
100
AcDbEntity
  8
0
100
AcDbBlockBegin
  2
*Paper_Space0
 70
     0
 10
0.0
 20
0.0
 30
0.0
  3
*Paper_Space0
  1

  0
ENDBLK
  5
25
330
23
100
AcDbEntity
  8
0
100
AcDbBlockEnd
  0
ENDSEC
  0
SECTION
  2
ENTITIES
  0
ARC
  5
73
330
1F
100
AcDbEntity
  8
0
  6
Continuous
 62
     7
100
AcDbCircle
 10
-32.7988113063
 20
-13.6715728753
 30
0.0
 40
2.0
100
AcDbArc
 50
315.0
 51
0.0
  0
ARC
  5
74
330
1F
100
AcDbEntity
  8
0
  6
Continuous
 62
     7
100
AcDbCircle
 10
-32.7988113063
 20
13.6715728753
 30
0.0
 40
2.000000000000004
100
AcDbArc
 50
0.0
 51
45.0
  0
ARC
  5
75
330
1F
100
AcDbEntity
  8
0
  6
Continuous
 62
     7
100
AcDbCircle
 10
-13.6715728753
 20
32.7988113063
 30
0.0
 40
2.0
100
AcDbArc
 50
225.0
 51
270.0
  0
ARC
  5
76
330
1F
100
AcDbEntity
  8
0
  6
Continuous
 62
     7
100
AcDbCircle
 10
13.6715728753
 20
32.7988113063
 30
0.0
 40
2.0
100
AcDbArc
 50
270.0
 51
315.0
  0
ARC
  5
77
330
1F
100
AcDbEntity
  8
0
  6
Continuous
 62
     7
100
AcDbCircle
 10
32.7988113063
 20
13.6715728753
 30
0.0
 40
2.0
100
AcDbArc
 50
135.0
 51
180.0
  0
ARC
  5
78
330
1F
100
AcDbEntity
  8
0
  6
Continuous
 62
     7
100
AcDbCircle
 10
32.7988113063
 20
-13.6715728753
 30
0.0
 40
2.000000000000001
100
AcDbArc
 50
180.0
 51
225.0
  0
ARC
  5
79
330
1F
100
AcDbEntity
  8
0
  6
Continuous
 62
     7
100
AcDbCircle
 10
13.6715728753
 20
-32.7988113064
 30
0.0
 40
2.000000000000007
100
AcDbArc
 50
45.0
 51
90.0
  0
ARC
  5
7A
330
1F
100
AcDbEntity
  8
0
  6
Continuous
 62
     7
100
AcDbCircle
 10
-13.6715728753
 20
-32.7988113063
 30
0.0
 40
2.0
100
AcDbArc
 50
90.0
 51
135.0
  0
CIRCLE
  5
7B
330
1F
100
AcDbEntity
  8
0
  6
Continuous
 62
     7
100
AcDbCircle
 10
0.0
 20
25.1
 30
0.0
 40
1.550000000000046
  0
CIRCLE
  5
7C
330
1F
100
AcDbEntity
  8
0
  6
Continuous
 62
     7
100
AcDbCircle
 10
0.0
 20
-25.1
 30
0.0
 40
1.550000000000046
  0
ARC
  5
7D
330
1F
100
AcDbEntity
  8
0
  6
Continuous
 62
     7
100
AcDbCircle
 10
-10.6419570569
 20
0.0
 30
0.0
 40
2.0
100
AcDbArc
 50
135.0
 51
225.0
  0
ARC
  5
7E
330
1F
100
AcDbEntity
  8
0
  6
Continuous
 62
     7
100
AcDbCircle
 10
0.0
 20
-10.6419570569
 30
0.0
 40
2.000000000000063
100
AcDbArc
 50
225.0
 51
315.0
  0
ARC
  5
7F
330
1F
100
AcDbEntity
  8
0
  6
Continuous
 62
     7
100
AcDbCircle
 10
10.6419570569
 20
0.0
 30
0.0
 40
2.000000000000005
100
AcDbArc
 50
315.0
 51
45.0
  0
ARC
  5
80
330
1F
100
AcDbEntity
  8
0
  6
Continuous
 62
     7
100
AcDbCircle
 10
0.0
 20
10.6419570569
 30
0.0
 40
2.000000000000002
100
AcDbArc
 50
45.0
 51
135.0
  0
ARC
  5
81
330
1F
100
AcDbEntity
  8
0
  6
Continuous
 62
     7
100
AcDbCircle
 10
-16.2011886937
 20
16.2011886937
 30
0.0
 40
19.04694218658389
100
AcDbArc
 50
97.7651131781
 51
172.2348868219
  0
CIRCLE
  5
82
330
1F
100
AcDbEntity
  8
0
  6
Continuous
 62
     7
100
AcDbCircle
 10
-25.1
 20
0.0
 30
0.0
 40
1.199999999999986
  0
CIRCLE
  5
83
330
1F
100
AcDbEntity
  8
0
  6
Continuous
 62
     7
100
AcDbCircle
 10
25.1
 20
0.0
 30
0.0
 40
1.199999999999986
  0
ARC
  5
84
330
1F
100
AcDbEntity
  8
0
  6
Continuous
 62
     7
100
AcDbCircle
 10
-16.2011886937
 20
-16.2011886937
 30
0.0
 40
19.04694218658389
100
AcDbArc
 50
187.7651131781
 51
262.2348868219
  0
ARC
  5
85
330
1F
100
AcDbEntity
  8
0
  6
Continuous
 62
     7
100
AcDbCircle
 10
16.2011886936
 20
-16.2011886937
 30
0.0
 40
19.04694218658389
100
AcDbArc
 50
277.7651131781
 51
352.2348868219
  0
ARC
  5
86
330
1F
100
AcDbEntity
  8
0
  6
Continuous
 62
     7
100
AcDbCircle
 10
16.2011886937
 20
16.2011886937
 30
0.0
 40
19.04694218658389
100
AcDbArc
 50
7.7651131781
 51
82.2348868219
  0
CIRCLE
  5
87
330
1F
100
AcDbEntity
  8
0
  6
CENTERX2
 62
     7
100
AcDbCircle
 10
27.030733336
 20
27.030733336
 30
0.0
 40
2.0
  0
CIRCLE
  5
88
330
1F
100
AcDbEntity
  8
0
  6
CENTERX2
 62
     7
100
AcDbCircle
 10
-27.030733336
 20
27.030733336
 30
0.0
 40
2.0
  0
CIRCLE
  5
89
330
1F
100
AcDbEntity
  8
0
  6
CENTERX2
 62
     7
100
AcDbCircle
 10
27.030733336
 20
-27.030733336
 30
0.0
 40
2.0
  0
CIRCLE
  5
8A
330
1F
100
AcDbEntity
  8
0
  6
CENTERX2
 62
     7
100
AcDbCircle
 10
-27.030733336
 20
-27.030733336
 30
0.0
 40
2.0
  0
LINE
  5
8B
330
1F
100
AcDbEntity
  8
0
  6
CENTERX2
 62
     7
100
AcDbLine
 10
-49.9
 20
38.856
 30
0.0
 11
49.9
 21
38.856
 31
0.0
  0
LINE
  5
8C
330
1F
100
AcDbEntity
  8
0
  6
CENTERX2
 62
     7
100
AcDbLine
 10
0.0
 20
-5.228159201
 30
0.0
 11
0.0
 21
57.3716782777
 31
0.0
  0
LINE
  5
8D
330
1F
100
AcDbEntity
  8
0
  6
CENTERX2
 62
     7
100
AcDbLine
 10
-49.9
 20
37.332
 30
0.0
 11
49.9
 21
37.332
 31
0.0
  0
LINE
  5
8E
330
1F
100
AcDbEntity
  8
0
  6
CENTERX2
 62
     7
100
AcDbLine
 10
-40.0270900974
 20
38.094
 30
0.0
 11
6.5210392149
 21
38.094
 31
0.0
  0
LINE
  5
8F
330
1F
100
AcDbEntity
  8
0
  6
CENTERX2
 62
     7
100
AcDbLine
 10
-28.0
 20
48.6678974385
 30
0.0
 11
-28.0
 21
34.20488396
 31
0.0
  0
LINE
  5
90
330
1F
100
AcDbEntity
  8
0
  6
Continuous
 62
     7
100
AcDbLine
 10
-33.8928
 20
37.561
 30
0.0
 11
-33.8928
 21
37.307
 31
0.0
  0
LINE
  5
91
330
1F
100
AcDbEntity
  8
0
  6
Continuous
 62
     7
100
AcDbLine
 10
-33.8928
 20
38.831
 30
0.0
 11
-33.8928
 21
38.577
 31
0.0
  0
LINE
  5
92
330
1F
100
AcDbEntity
  8
0
  6
Continuous
 62
     7
100
AcDbLine
 10
-33.8928
 20
37.332
 30
0.0
 11
-33.8928
 21
38.856
 31
0.0
  0
LINE
  5
93
330
1F
100
AcDbEntity
  8
0
  6
Continuous
 62
     7
100
AcDbLine
 10
-33.8928
 20
38.856
 30
0.0
 11
-9.4072
 21
38.856
 31
0.0
  0
LINE
  5
94
330
1F
100
AcDbEntity
  8
0
  6
Continuous
 62
     7
100
AcDbLine
 10
-9.4072
 20
37.332
 30
0.0
 11
-33.8928
 21
37.332
 31
0.0
  0
LINE
  5
95
330
1F
100
AcDbEntity
  8
0
  6
Continuous
 62
     7
100
AcDbLine
 10
-9.4072
 20
38.856
 30
0.0
 11
-9.4072
 21
37.332
 31
0.0
  0
LINE
  5
96
330
1F
100
AcDbEntity
  8
0
  6
CENTERX2
 62
     7
100
AcDbLine
 10
-33.8928
 20
38.856
 30
0.0
 11
-9.4072
 21
37.332
 31
0.0
  0
LINE
  5
97
330
1F
100
AcDbEntity
  8
0
  6
CENTERX2
 62
     7
100
AcDbLine
 10
-9.4072
 20
38.856
 30
0.0
 11
-33.8928
 21
37.332
 31
0.0
  0
LINE
  5
98
330
1F
100
AcDbEntity
  8
0
  6
CENTERX2
 62
     7
100
AcDbLine
 10
-37.75
 20
5.385
 30
0.0
 11
-37.75
 21
-5.385
 31
0.0
  0
LINE
  5
99
330
1F
100
AcDbEntity
  8
0
  6
CENTERX2
 62
     7
100
AcDbLine
 10
37.75
 20
5.385
 30
0.0
 11
37.75
 21
-5.385
 31
0.0
  0
LINE
  5
9A
330
1F
100
AcDbEntity
  8
0
  6
CENTERX2
 62
     7
100
AcDbLine
 10
37.75
 20
0.0
 30
0.0
 11
-37.75
 21
0.0
 31
0.0
  0
LINE
  5
9B
330
1F
100
AcDbEntity
  8
0
  6
CENTERX2
 62
     7
100
AcDbLine
 10
-5.385
 20
37.75
 30
0.0
 11
5.385
 21
37.75
 31
0.0
  0
LINE
  5
9C
330
1F
100
AcDbEntity
  8
0
  6
CENTERX2
 62
     7
100
AcDbLine
 10
-5.385
 20
-37.75
 30
0.0
 11
5.385
 21
-37.75
 31
0.0
  0
LINE
  5
9D
330
1F
100
AcDbEntity
  8
0
  6
CENTERX2
 62
     7
100
AcDbLine
 10
0.0
 20
-37.75
 30
0.0
 11
0.0
 21
37.75
 31
0.0
  0
LINE
  5
9E
330
1F
100
AcDbEntity
  8
0
  6
CENTERX2
 62
     7
100
AcDbLine
 10
0.0
 20
0.0
 30
0.0
 11
37.75
 21
37.75
 31
0.0
  0
LINE
  5
9F
330
1F
100
AcDbEntity
  8
0
  6
CENTERX2
 62
     7
100
AcDbLine
 10
0.0
 20
0.0
 30
0.0
 11
-37.75
 21
-37.75
 31
0.0
  0
LINE
  5
A0
330
1F
100
AcDbEntity
  8
0
  6
CENTERX2
 62
     7
100
AcDbLine
 10
0.0
 20
0.0
 30
0.0
 11
37.75
 21
-37.75
 31
0.0
  0
LINE
  5
A1
330
1F
100
AcDbEntity
  8
0
  6
CENTERX2
 62
     7
100
AcDbLine
 10
0.0
 20
0.0
 30
0.0
 11
-37.75
 21
37.75
 31
0.0
  0
LINE
  5
A2
330
1F
100
AcDbEntity
  8
0
  6
Continuous
 62
     7
100
AcDbLine
 10
6.0699999905
 20
34.150000111
 30
0.0
 11
-6.0700000095
 21
34.150000111
 31
0.0
  0
LINE
  5
A3
330
1F
100
AcDbEntity
  8
0
  6
Continuous
 62
     7
100
AcDbLine
 10
-34.150000111
 20
-6.0700000095
 30
0.0
 11
-34.150000111
 21
6.0699999905
 31
0.0
  0
LINE
  5
A4
330
1F
100
AcDbEntity
  8
0
  6
Continuous
 62
     7
100
AcDbLine
 10
6.0700000095
 20
-34.150000111
 30
0.0
 11
-6.0699999905
 21
-34.150000111
 31
0.0
  0
LINE
  5
A5
330
1F
100
AcDbEntity
  8
0
  6
Continuous
 62
     7
100
AcDbLine
 10
34.150000111
 20
-6.0699999905
 30
0.0
 11
34.150000111
 21
6.0700000095
 31
0.0
  0
LINE
  5
A6
330
1F
100
AcDbEntity
  8
0
  6
CENTERX2
 62
     7
100
AcDbLine
 10
-35.1866
 20
35.1866
 30
0.0
 11
35.1866
 21
35.1866
 31
0.0
  0
LINE
  5
A7
330
1F
100
AcDbEntity
  8
0
  6
Continuous
 62
     7
100
AcDbLine
 10
-3.0800000095
 20
34.150000111
 30
0.0
 11
-3.2800000095
 21
34.150000111
 31
0.0
  0
LINE
  5
A8
330
1F
100
AcDbEntity
  8
0
  6
Continuous
 62
     7
100
AcDbLine
 10
0.7299999905
 20
34.150000111
 30
0.0
 11
0.5299999905
 21
34.150000111
 31
0.0
  0
LINE
  5
A9
330
1F
100
AcDbEntity
  8
0
  6
Continuous
 62
     7
100
AcDbLine
 10
3.2699999905
 20
34.150000111
 30
0.0
 11
3.0699999905
 21
34.150000111
 31
0.0
  0
LINE
  5
AA
330
1F
100
AcDbEntity
  8
0
  6
Continuous
 62
     7
100
AcDbLine
 10
-6.0700000095
 20
34.150000111
 30
0.0
 11
-5.2700000095
 21
34.150000111
 31
0.0
  0
LINE
  5
AB
330
1F
100
AcDbEntity
  8
0
  6
Continuous
 62
     7
100
AcDbLine
 10
5.2699999905
 20
34.150000111
 30
0.0
 11
6.0699999905
 21
34.150000111
 31
0.0
  0
LINE
  5
AC
330
1F
100
AcDbEntity
  8
0
  6
Continuous
 62
     7
100
AcDbLine
 10
-34.150000111
 20
5.2699999905
 30
0.0
 11
-34.150000111
 21
6.0699999905
 31
0.0
  0
LINE
  5
AD
330
1F
100
AcDbEntity
  8
0
  6
Continuous
 62
     7
100
AcDbLine
 10
-34.150000111
 20
1.9999999905
 30
0.0
 11
-34.150000111
 21
1.7999999905
 31
0.0
  0
LINE
  5
AE
330
1F
100
AcDbEntity
  8
0
  6
Continuous
 62
     7
100
AcDbLine
 10
-34.150000111
 20
-3.0800000095
 30
0.0
 11
-34.150000111
 21
-3.2800000095
 31
0.0
  0
LINE
  5
AF
330
1F
100
AcDbEntity
  8
0
  6
Continuous
 62
     7
100
AcDbLine
 10
-34.150000111
 20
-6.0700000095
 30
0.0
 11
-34.150000111
 21
-5.2700000095
 31
0.0
  0
LINE
  5
B0
330
1F
100
AcDbEntity
  8
0
  6
Continuous
 62
     7
100
AcDbLine
 10
-3.2699999905
 20
-34.150000111
 30
0.0
 11
-3.0699999905
 21
-34.150000111
 31
0.0
  0
LINE
  5
B1
330
1F
100
AcDbEntity
  8
0
  6
Continuous
 62
     7
100
AcDbLine
 10
-5.2699999905
 20
-34.150000111
 30
0.0
 11
-6.0699999905
 21
-34.150000111
 31
0.0
  0
LINE
  5
B2
330
1F
100
AcDbEntity
  8
0
  6
Continuous
 62
     7
100
AcDbLine
 10
6.0700000095
 20
-34.150000111
 30
0.0
 11
5.2700000095
 21
-34.150000111
 31
0.0
  0
LINE
  5
B3
330
1F
100
AcDbEntity
  8
0
  6
Continuous
 62
     7
100
AcDbLine
 10
3.0800000095
 20
-34.150000111
 30
0.0
 11
3.2800000095
 21
-34.150000111
 31
0.0
  0
LINE
  5
B4
330
1F
100
AcDbEntity
  8
0
  6
Continuous
 62
     7
100
AcDbLine
 10
34.150000111
 20
-5.2699999905
 30
0.0
 11
34.150000111
 21
-6.0699999905
 31
0.0
  0
LINE
  5
B5
330
1F
100
AcDbEntity
  8
0
  6
Continuous
 62
     7
100
AcDbLine
 10
34.150000111
 20
-3.2699999905
 30
0.0
 11
34.150000111
 21
-3.0699999905
 31
0.0
  0
LINE
  5
B6
330
1F
100
AcDbEntity
  8
0
  6
Continuous
 62
     7
100
AcDbLine
 10
34.150000111
 20
3.0800000095
 30
0.0
 11
34.150000111
 21
3.2800000095
 31
0.0
  0
LINE
  5
B7
330
1F
100
AcDbEntity
  8
0
  6
Continuous
 62
     7
100
AcDbLine
 10
34.150000111
 20
6.0700000095
 30
0.0
 11
34.150000111
 21
5.2700000095
 31
0.0
  0
LINE
  5
B8
330
1F
100
AcDbEntity
  8
0
  6
Continuous
 62
     7
100
AcDbLine
 10
34.250000111
 20
-6.1699999905
 30
0.0
 11
35.250000111
 21
-6.1699999905
 31
0.0
  0
LINE
  5
B9
330
1F
100
AcDbEntity
  8
0
  6
Continuous
 62
     7
100
AcDbLine
 10
35.250000111
 20
6.1700000095
 30
0.0
 11
34.250000111
 21
6.1700000095
 31
0.0
  0
LINE
  5
BA
330
1F
100
AcDbEntity
  8
0
  6
Continuous
 62
     7
100
AcDbLine
 10
-6.1699999905
 20
-34.250000111
 30
0.0
 11
-6.1699999905
 21
-35.250000111
 31
0.0
  0
LINE
  5
BB
330
1F
100
AcDbEntity
  8
0
  6
Continuous
 62
     7
100
AcDbLine
 10
6.1700000095
 20
-35.250000111
 30
0.0
 11
6.1700000095
 21
-34.250000111
 31
0.0
  0
LINE
  5
BC
330
1F
100
AcDbEntity
  8
0
  6
Continuous
 62
     7
100
AcDbLine
 10
-40.250000111
 20
6.1699999905
 30
0.0
 11
-41.250000111
 21
6.1699999905
 31
0.0
  0
LINE
  5
BD
330
1F
100
AcDbEntity
  8
0
  6
Continuous
 62
     7
100
AcDbLine
 10
-34.250000111
 20
6.1699999905
 30
0.0
 11
-35.250000111
 21
6.1699999905
 31
0.0
  0
LINE
  5
BE
330
1F
100
AcDbEntity
  8
0
  6
Continuous
 62
     7
100
AcDbLine
 10
-41.250000111
 20
-6.1700000095
 30
0.0
 11
-40.250000111
 21
-6.1700000095
 31
0.0
  0
LINE
  5
BF
330
1F
100
AcDbEntity
  8
0
  6
Continuous
 62
     7
100
AcDbLine
 10
-35.250000111
 20
-6.1700000095
 30
0.0
 11
-34.250000111
 21
-6.1700000095
 31
0.0
  0
LINE
  5
C0
330
1F
100
AcDbEntity
  8
0
  6
Continuous
 62
     7
100
AcDbLine
 10
-6.1700000095
 20
35.250000111
 30
0.0
 11
-6.1700000095
 21
34.250000111
 31
0.0
  0
LINE
  5
C1
330
1F
100
AcDbEntity
  8
0
  6
Continuous
 62
     7
100
AcDbLine
 10
6.1699999905
 20
34.250000111
 30
0.0
 11
6.1699999905
 21
35.250000111
 31
0.0
  0
LINE
  5
C2
330
1F
100
AcDbEntity
  8
0
  6
CENTERX2
 62
     7
100
AcDbLine
 10
-35.1866
 20
35.1866
 30
0.0
 11
-35.1866
 21
-35.1866
 31
0.0
  0
LINE
  5
C3
330
1F
100
AcDbEntity
  8
0
  6
CENTERX2
 62
     7
100
AcDbLine
 10
-35.1866
 20
-35.1866
 30
0.0
 11
35.1866
 21
-35.1866
 31
0.0
  0
LINE
  5
C4
330
1F
100
AcDbEntity
  8
0
  6
CENTERX2
 62
     7
100
AcDbLine
 10
35.1866
 20
35.1866
 30
0.0
 11
35.1866
 21
-35.1866
 31
0.0
  0
LINE
  5
C5
330
1F
100
AcDbEntity
  8
0
  6
CENTERX2
 62
     7
100
AcDbLine
 10
-35.1866
 20
35.1866
 30
0.0
 11
35.1866
 21
-35.1866
 31
0.0
  0
LINE
  5
C6
330
1F
100
AcDbEntity
  8
0
  6
CENTERX2
 62
     7
100
AcDbLine
 10
-35.1866
 20
-35.1866
 30
0.0
 11
35.1866
 21
35.1866
 31
0.0
  0
LINE
  5
C7
330
1F
100
AcDbEntity
  8
0
  6
CENTERX2
 62
     7
100
AcDbLine
 10
-41.5
 20
35.1866
 30
0.0
 11
35.1866
 21
35.1866
 31
0.0
  0
LINE
  5
C8
330
1F
100
AcDbEntity
  8
0
  6
Continuous
 62
     7
100
AcDbLine
 10
-35.250000111
 20
-6.1700000095
 30
0.0
 11
-40.250000111
 21
-6.1700000095
 31
0.0
  0
LINE
  5
C9
330
1F
100
AcDbEntity
  8
0
  6
Continuous
 62
     7
100
AcDbLine
 10
-41.250000111
 20
-6.1700000095
 30
0.0
 11
-41.5
 21
-6.1700000095
 31
0.0
  0
LINE
  5
CA
330
1F
100
AcDbEntity
  8
0
  6
Continuous
 62
     7
100
AcDbLine
 10
-41.5
 20
-6.1700000095
 30
0.0
 11
-41.5
 21
6.1699999905
 31
0.0
  0
LINE
  5
CB
330
1F
100
AcDbEntity
  8
0
  6
Continuous
 62
     7
100
AcDbLine
 10
-41.5
 20
6.1699999905
 30
0.0
 11
-41.250000111
 21
6.1699999905
 31
0.0
  0
LINE
  5
CC
330
1F
100
AcDbEntity
  8
0
  6
Continuous
 62
     7
100
AcDbLine
 10
-40.250000111
 20
6.1699999905
 30
0.0
 11
-35.250000111
 21
6.1699999905
 31
0.0
  0
LINE
  5
CD
330
1F
100
AcDbEntity
  8
0
  6
Continuous
 62
     7
100
AcDbLine
 10
-34.250000111
 20
-6.1700000095
 30
0.0
 11
-34.150000111
 21
-6.1700000095
 31
0.0
  0
LINE
  5
CE
330
1F
100
AcDbEntity
  8
0
  6
Continuous
 62
     7
100
AcDbLine
 10
-34.150000111
 20
-6.1700000095
 30
0.0
 11
-34.150000111
 21
-6.0700000095
 31
0.0
  0
LINE
  5
CF
330
1F
100
AcDbEntity
  8
0
  6
Continuous
 62
     7
100
AcDbLine
 10
-34.150000111
 20
6.0699999905
 30
0.0
 11
-34.150000111
 21
6.1699999905
 31
0.0
  0
LINE
  5
D0
330
1F
100
AcDbEntity
  8
0
  6
Continuous
 62
     7
100
AcDbLine
 10
-34.150000111
 20
6.1699999905
 30
0.0
 11
-34.250000111
 21
6.1699999905
 31
0.0
  0
LINE
  5
D1
330
1F
100
AcDbEntity
  8
0
  6
Continuous
 62
     7
100
AcDbLine
 10
6.1700000095
 20
-35.250000111
 30
0.0
 11
6.1700000095
 21
-47.4
 31
0.0
  0
LINE
  5
D2
330
1F
100
AcDbEntity
  8
0
  6
Continuous
 62
     7
100
AcDbLine
 10
6.1700000095
 20
-47.4
 30
0.0
 11
-6.1699999905
 21
-47.4
 31
0.0
  0
LINE
  5
D3
330
1F
100
AcDbEntity
  8
0
  6
Continuous
 62
     7
100
AcDbLine
 10
-6.1699999905
 20
-47.4
 30
0.0
 11
-6.1699999905
 21
-35.250000111
 31
0.0
  0
LINE
  5
D4
330
1F
100
AcDbEntity
  8
0
  6
Continuous
 62
     7
100
AcDbLine
 10
-6.1699999905
 20
-34.250000111
 30
0.0
 11
-6.1699999905
 21
-34.150000111
 31
0.0
  0
LINE
  5
D5
330
1F
100
AcDbEntity
  8
0
  6
Continuous
 62
     7
100
AcDbLine
 10
-6.1699999905
 20
-34.150000111
 30
0.0
 11
-6.0699999905
 21
-34.150000111
 31
0.0
  0
LINE
  5
D6
330
1F
100
AcDbEntity
  8
0
  6
Continuous
 62
     7
100
AcDbLine
 10
6.0700000095
 20
-34.150000111
 30
0.0
 11
6.1700000095
 21
-34.150000111
 31
0.0
  0
LINE
  5
D7
330
1F
100
AcDbEntity
  8
0
  6
Continuous
 62
     7
100
AcDbLine
 10
6.1700000095
 20
-34.150000111
 30
0.0
 11
6.1700000095
 21
-34.250000111
 31
0.0
  0
LINE
  5
D8
330
1F
100
AcDbEntity
  8
0
  6
Continuous
 62
     7
100
AcDbLine
 10
35.250000111
 20
-6.1699999905
 30
0.0
 11
47.4
 21
-6.1699999905
 31
0.0
  0
LINE
  5
D9
330
1F
100
AcDbEntity
  8
0
  6
Continuous
 62
     7
100
AcDbLine
 10
47.4
 20
-6.1699999905
 30
0.0
 11
47.4
 21
6.1700000095
 31
0.0
  0
LINE
  5
DA
330
1F
100
AcDbEntity
  8
0
  6
Continuous
 62
     7
100
AcDbLine
 10
47.4
 20
6.1700000095
 30
0.0
 11
35.250000111
 21
6.1700000095
 31
0.0
  0
LINE
  5
DB
330
1F
100
AcDbEntity
  8
0
  6
Continuous
 62
     7
100
AcDbLine
 10
34.250000111
 20
6.1700000095
 30
0.0
 11
34.150000111
 21
6.1700000095
 31
0.0
  0
LINE
  5
DC
330
1F
100
AcDbEntity
  8
0
  6
Continuous
 62
     7
100
AcDbLine
 10
34.150000111
 20
6.1700000095
 30
0.0
 11
34.150000111
 21
6.0700000095
 31
0.0
  0
LINE
  5
DD
330
1F
100
AcDbEntity
  8
0
  6
Continuous
 62
     7
100
AcDbLine
 10
34.150000111
 20
-6.0699999905
 30
0.0
 11
34.150000111
 21
-6.1699999905
 31
0.0
  0
LINE
  5
DE
330
1F
100
AcDbEntity
  8
0
  6
Continuous
 62
     7
100
AcDbLine
 10
34.150000111
 20
-6.1699999905
 30
0.0
 11
34.250000111
 21
-6.1699999905
 31
0.0
  0
LINE
  5
DF
330
1F
100
AcDbEntity
  8
0
  6
Continuous
 62
     7
100
AcDbLine
 10
6.1699999905
 20
35.250000111
 30
0.0
 11
6.1699999905
 21
38.856
 31
0.0
  0
LINE
  5
E0
330
1F
100
AcDbEntity
  8
0
  6
Continuous
 62
     7
100
AcDbLine
 10
6.1699999905
 20
38.856
 30
0.0
 11
-6.1700000095
 21
38.856
 31
0.0
  0
LINE
  5
E1
330
1F
100
AcDbEntity
  8
0
  6
Continuous
 62
     7
100
AcDbLine
 10
-6.1700000095
 20
38.856
 30
0.0
 11
-6.1700000095
 21
35.250000111
 31
0.0
  0
LINE
  5
E2
330
1F
100
AcDbEntity
  8
0
  6
Continuous
 62
     7
100
AcDbLine
 10
-6.1700000095
 20
34.250000111
 30
0.0
 11
-6.1700000095
 21
34.150000111
 31
0.0
  0
LINE
  5
E3
330
1F
100
AcDbEntity
  8
0
  6
Continuous
 62
     7
100
AcDbLine
 10
-6.1700000095
 20
34.150000111
 30
0.0
 11
-6.0700000095
 21
34.150000111
 31
0.0
  0
LINE
  5
E4
330
1F
100
AcDbEntity
  8
0
  6
Continuous
 62
     7
100
AcDbLine
 10
6.0699999905
 20
34.150000111
 30
0.0
 11
6.1699999905
 21
34.150000111
 31
0.0
  0
LINE
  5
E5
330
1F
100
AcDbEntity
  8
0
  6
Continuous
 62
     7
100
AcDbLine
 10
6.1699999905
 20
34.150000111
 30
0.0
 11
6.1699999905
 21
34.250000111
 31
0.0
  0
LINE
  5
E6
330
1F
100
AcDbEntity
  8
0
  6
Continuous
 62
     7
100
AcDbLine
 10
35.2055
 20
35.1866
 30
0.0
 11
35.965903203
 21
35.1866
 31
0.0
  0
LINE
  5
E7
330
1F
100
AcDbEntity
  8
0
  6
Continuous
 62
     7
100
AcDbLine
 10
35.205433156
 20
36.609
 30
0.0
 11
32.792566844
 21
36.609
 31
0.0
  0
LINE
  5
E8
330
1F
100
AcDbEntity
  8
0
  6
CENTERX2
 62
     7
100
AcDbLine
 10
-41.5
 20
35.1866
 30
0.0
 11
-41.5
 21
-41.5
 31
0.0
  0
LINE
  5
E9
330
1F
100
AcDbEntity
  8
0
  6
CENTERX2
 62
     7
100
AcDbLine
 10
-41.5
 20
-41.5
 30
0.0
 11
35.1866
 21
-41.5
 31
0.0
  0
LINE
  5
EA
330
1F
100
AcDbEntity
  8
0
  6
CENTERX2
 62
     7
100
AcDbLine
 10
35.1866
 20
35.1866
 30
0.0
 11
35.1866
 21
-41.5
 31
0.0
  0
LINE
  5
EB
330
1F
100
AcDbEntity
  8
0
  6
CENTERX2
 62
     7
100
AcDbLine
 10
35.1866
 20
35.1866
 30
0.0
 11
-41.5
 21
-41.5
 31
0.0
  0
LINE
  5
EC
330
1F
100
AcDbEntity
  8
0
  6
Continuous
 62
     7
100
AcDbLine
 10
-31.384597744
 20
-15.0857864376
 30
0.0
 11
-35.0734759945
 21
-18.7746646881
 31
0.0
  0
LINE
  5
ED
330
1F
100
AcDbEntity
  8
0
  6
Continuous
 62
     7
100
AcDbLine
 10
-30.7988113063
 20
-13.6715728753
 30
0.0
 11
-30.7988113063
 21
13.6715728753
 31
0.0
  0
LINE
  5
EE
330
1F
100
AcDbEntity
  8
0
  6
Continuous
 62
     7
100
AcDbLine
 10
-35.0734759945
 20
18.7746646881
 30
0.0
 11
-31.384597744
 21
15.0857864376
 31
0.0
  0
LINE
  5
EF
330
1F
100
AcDbEntity
  8
0
  6
Continuous
 62
     7
100
AcDbLine
 10
-15.0857864376
 20
31.384597744
 30
0.0
 11
-18.7746646881
 21
35.0734759945
 31
0.0
  0
LINE
  5
F0
330
1F
100
AcDbEntity
  8
0
  6
Continuous
 62
     7
100
AcDbLine
 10
-13.6715728753
 20
30.7988113063
 30
0.0
 11
13.6715728753
 21
30.7988113063
 31
0.0
  0
LINE
  5
F1
330
1F
100
AcDbEntity
  8
0
  6
Continuous
 62
     7
100
AcDbLine
 10
18.7746646881
 20
35.0734759945
 30
0.0
 11
15.0857864376
 21
31.384597744
 31
0.0
  0
LINE
  5
F2
330
1F
100
AcDbEntity
  8
0
  6
Continuous
 62
     7
100
AcDbLine
 10
31.384597744
 20
15.0857864376
 30
0.0
 11
35.0734759945
 21
18.7746646881
 31
0.0
  0
LINE
  5
F3
330
1F
100
AcDbEntity
  8
0
  6
Continuous
 62
     7
100
AcDbLine
 10
30.7988113063
 20
13.6715728753
 30
0.0
 11
30.7988113063
 21
-13.6715728753
 31
0.0
  0
LINE
  5
F4
330
1F
100
AcDbEntity
  8
0
  6
Continuous
 62
     7
100
AcDbLine
 10
35.0734759945
 20
-18.7746646881
 30
0.0
 11
31.384597744
 21
-15.0857864376
 31
0.0
  0
LINE
  5
F5
330
1F
100
AcDbEntity
  8
0
  6
Continuous
 62
     7
100
AcDbLine
 10
15.0857864376
 20
-31.384597744
 30
0.0
 11
18.7746646881
 21
-35.0734759945
 31
0.0
  0
LINE
  5
F6
330
1F
100
AcDbEntity
  8
0
  6
Continuous
 62
     7
100
AcDbLine
 10
-18.7746646881
 20
-35.0734759945
 30
0.0
 11
-15.0857864376
 21
-31.384597744
 31
0.0
  0
LINE
  5
F7
330
1F
100
AcDbEntity
  8
0
  6
Continuous
 62
     7
100
AcDbLine
 10
13.6715728753
 20
-30.7988113064
 30
0.0
 11
-13.6715728753
 21
-30.7988113063
 31
0.0
  0
LINE
  5
F8
330
1F
100
AcDbEntity
  8
0
  6
Continuous
 62
     7
100
AcDbLine
 10
-1.4142135624
 20
-12.0561706192
 30
0.0
 11
-12.0561706192
 21
-1.4142135624
 31
0.0
  0
LINE
  5
F9
330
1F
100
AcDbEntity
  8
0
  6
Continuous
 62
     7
100
AcDbLine
 10
12.0561706192
 20
-1.4142135624
 30
0.0
 11
1.4142135624
 21
-12.0561706192
 31
0.0
  0
LINE
  5
FA
330
1F
100
AcDbEntity
  8
0
  6
Continuous
 62
     7
100
AcDbLine
 10
1.4142135624
 20
12.0561706192
 30
0.0
 11
12.0561706192
 21
1.4142135624
 31
0.0
  0
LINE
  5
FB
330
1F
100
AcDbEntity
  8
0
  6
Continuous
 62
     7
100
AcDbLine
 10
-12.0561706192
 20
1.4142135624
 30
0.0
 11
-1.4142135624
 21
12.0561706192
 31
0.0
  0
POINT
  5
FC
330
1F
100
AcDbEntity
  8
0
  6
Continuous
 62
     7
100
AcDbPoint
 10
0.0
 20
38.094
 30
0.0
  0
POINT
  5
FD
330
1F
100
AcDbEntity
  8
0
  6
Continuous
 62
     7
100
AcDbPoint
 10
-28.0
 20
38.094
 30
0.0
  0
POINT
  5
FE
330
1F
100
AcDbEntity
  8
0
  6
Continuous
 62
     7
100
AcDbPoint
 10
-21.65
 20
38.094
 30
0.0
  0
POINT
  5
FF
330
1F
100
AcDbEntity
  8
0
  6
Continuous
 62
     7
100
AcDbPoint
 10
0.0
 20
0.0
 30
0.0
  0
POINT
  5
100
330
1F
100
AcDbEntity
  8
0
  6
Continuous
 62
     7
100
AcDbPoint
 10
0.0
 20
0.0
 30
0.0
  0
CIRCLE
  5
13B
330
1F
100
AcDbEntity
  8
0
  6
Continuous
 62
     7
370
    25
100
AcDbCircle
 10
32.41
 20
36.6
 30
0.0
 40
0.1599999999999824
  0
CIRCLE
  5
13C
330
1F
100
AcDbEntity
  8
0
  6
Continuous
 62
     7
370
    25
100
AcDbCircle
 10
29.59
 20
36.6
 30
0.0
 40
0.1599999999999895
  0
CIRCLE
  5
13D
330
1F
100
AcDbEntity
  8
0
  6
Continuous
 62
     7
370
    25
100
AcDbCircle
 10
26.41
 20
36.6
 30
0.0
 40
0.1599999999999824
  0
CIRCLE
  5
13E
330
1F
100
AcDbEntity
  8
0
  6
Continuous
 62
     7
370
    25
100
AcDbCircle
 10
-37.75
 20
-5.385
 30
0.0
 40
0.7999999999999838
  0
CIRCLE
  5
13F
330
1F
100
AcDbEntity
  8
0
  6
Continuous
 62
     7
370
    25
100
AcDbCircle
 10
-37.75
 20
5.385
 30
0.0
 40
0.7999999999999856
  0
CIRCLE
  5
140
330
1F
100
AcDbEntity
  8
0
  6
Continuous
 62
     7
370
    25
100
AcDbCircle
 10
-5.385
 20
-37.75
 30
0.0
 40
0.8000000000000043
  0
CIRCLE
  5
141
330
1F
100
AcDbEntity
  8
0
  6
Continuous
 62
     7
370
    25
100
AcDbCircle
 10
5.385
 20
-37.75
 30
0.0
 40
0.8000000000000114
  0
CIRCLE
  5
142
330
1F
100
AcDbEntity
  8
0
  6
Continuous
 62
     7
370
    25
100
AcDbCircle
 10
37.75
 20
-5.385
 30
0.0
 40
0.8000000000000016
  0
CIRCLE
  5
143
330
1F
100
AcDbEntity
  8
0
  6
Continuous
 62
     7
370
    25
100
AcDbCircle
 10
37.75
 20
5.385
 30
0.0
 40
0.8000000000000016
  0
CIRCLE
  5
144
330
1F
100
AcDbEntity
  8
0
  6
Continuous
 62
     7
370
    25
100
AcDbCircle
 10
5.385
 20
37.75
 30
0.0
 40
0.8000000000000043
  0
CIRCLE
  5
145
330
1F
100
AcDbEntity
  8
0
  6
Continuous
 62
     7
370
    25
100
AcDbCircle
 10
-5.385
 20
37.75
 30
0.0
 40
0.7999999999999972
  0
CIRCLE
  5
146
330
1F
100
AcDbEntity
  8
0
  6
Continuous
 62
     7
370
    25
100
AcDbCircle
 10
-42.5
 20
23.515
 30
0.0
 40
0.79999999999999
  0
CIRCLE
  5
147
330
1F
100
AcDbEntity
  8
0
  6
Continuous
 62
     7
370
    25
100
AcDbCircle
 10
-42.5
 20
34.285
 30
0.0
 40
0.8000000000000043
  0
LWPOLYLINE
  5
148
330
1F
100
AcDbEntity
  8
0
  6
Continuous
 62
     7
370
    25
100
AcDbPolyline
 90
       37
 70
   128
 43
0.0
 10
-25.2763421678
 20
16.3064219443
 10
-25.2978612792
 20
16.2788259341
 10
-25.3126496445
 20
16.2459915159
 10
-25.3202579266
 20
16.2089163469
 10
-25.3204549519
 20
16.1687269374
 10
-25.3132347338
 20
16.1266444221
 10
-25.2988166549
 20
16.0839474571
 10
-25.2776388013
 20
16.0419333681
 10
-25.2503446514
 20
16.0018787317
 10
-25.217763524
 20
15.965000588
 10
-25.1808853803
 20
15.9324194607
 10
-25.140830744
 20
15.9051253107
 10
-25.0988166549
 20
15.8839474571
 10
-25.0561196899
 20
15.8695293783
 10
-25.0140371747
 20
15.8623091601
 10
-24.9738477651
 20
15.8625061854
 10
-24.9367725961
 20
15.8701144676
 10
-24.903938178
 20
15.8849028329
 10
-24.8763421678
 20
15.9064219443
 10
-24.8548230564
 20
15.9340179545
 10
-24.8400346911
 20
15.9668523726
 10
-24.8324264089
 20
16.0039275416
 10
-24.8322293836
 20
16.0441169512
 10
-24.8394496018
 20
16.0861994664
 10
-24.8538676806
 20
16.1288964314
 10
-24.8750455342
 20
16.1709105205
 10
-24.9023396842
 20
16.2109651568
 10
-24.9349208115
 20
16.2478433005
 10
-24.9717989552
 20
16.2804244279
 10
-25.0118535916
 20
16.3077185778
 10
-25.0538676806
 20
16.3288964314
 10
-25.0965646456
 20
16.3433145103
 10
-25.1386471609
 20
16.3505347284
 10
-25.1788365704
 20
16.3503377031
 10
-25.2159117394
 20
16.342729421
 10
-25.2487461576
 20
16.3279410557
 10
-25.2763421678
 20
16.3064219443
  0
LWPOLYLINE
  5
149
330
1F
100
AcDbEntity
  8
0
  6
Continuous
 62
     7
370
    25
100
AcDbPolyline
 90
       37
 70
   128
 43
0.0
 10
16.3064219443
 20
25.2763421678
 10
16.2788259341
 20
25.2978612792
 10
16.2459915159
 20
25.3126496445
 10
16.2089163469
 20
25.3202579266
 10
16.1687269374
 20
25.3204549519
 10
16.1266444221
 20
25.3132347338
 10
16.0839474571
 20
25.2988166549
 10
16.0419333681
 20
25.2776388013
 10
16.0018787317
 20
25.2503446514
 10
15.965000588
 20
25.217763524
 10
15.9324194607
 20
25.1808853803
 10
15.9051253107
 20
25.140830744
 10
15.8839474571
 20
25.0988166549
 10
15.8695293783
 20
25.0561196899
 10
15.8623091601
 20
25.0140371747
 10
15.8625061854
 20
24.9738477651
 10
15.8701144676
 20
24.9367725961
 10
15.8849028329
 20
24.903938178
 10
15.9064219443
 20
24.8763421678
 10
15.9340179545
 20
24.8548230564
 10
15.9668523726
 20
24.8400346911
 10
16.0039275416
 20
24.8324264089
 10
16.0441169512
 20
24.8322293836
 10
16.0861994664
 20
24.8394496018
 10
16.1288964314
 20
24.8538676806
 10
16.1709105205
 20
24.8750455342
 10
16.2109651568
 20
24.9023396842
 10
16.2478433005
 20
24.9349208115
 10
16.2804244279
 20
24.9717989552
 10
16.3077185778
 20
25.0118535916
 10
16.3288964314
 20
25.0538676806
 10
16.3433145103
 20
25.0965646456
 10
16.3505347284
 20
25.1386471609
 10
16.3503377031
 20
25.1788365704
 10
16.342729421
 20
25.2159117394
 10
16.3279410557
 20
25.2487461576
 10
16.3064219443
 20
25.2763421678
  0
LWPOLYLINE
  5
14A
330
1F
100
AcDbEntity
  8
0
  6
Continuous
 62
     7
370
    25
100
AcDbPolyline
 90
       37
 70
   128
 43
0.0
 10
21.0551208818
 20
21.0551208818
 10
21.0275248716
 20
21.0766399932
 10
20.9946904534
 20
21.0914283585
 10
20.9576152844
 20
21.0990366407
 10
20.9174258749
 20
21.0992336659
 10
20.8753433596
 20
21.0920134478
 10
20.8326463946
 20
21.0775953689
 10
20.7906323056
 20
21.0564175153
 10
20.7505776693
 20
21.0291233654
 10
20.7136995255
 20
20.996542238
 10
20.6811183982
 20
20.9596640943
 10
20.6538242482
 20
20.919609458
 10
20.6326463946
 20
20.8775953689
 10
20.6182283158
 20
20.8348984039
 10
20.6110080976
 20
20.7928158887
 10
20.6112051229
 20
20.7526264791
 10
20.6188134051
 20
20.7155513102
 10
20.6336017704
 20
20.682716892
 10
20.6551208818
 20
20.6551208818
 10
20.682716892
 20
20.6336017704
 10
20.7155513102
 20
20.6188134051
 10
20.7526264791
 20
20.6112051229
 10
20.7928158887
 20
20.6110080976
 10
20.8348984039
 20
20.6182283158
 10
20.8775953689
 20
20.6326463946
 10
20.919609458
 20
20.6538242482
 10
20.9596640943
 20
20.6811183982
 10
20.996542238
 20
20.7136995255
 10
21.0291233654
 20
20.7505776693
 10
21.0564175153
 20
20.7906323056
 10
21.0775953689
 20
20.8326463946
 10
21.0920134478
 20
20.8753433596
 10
21.0992336659
 20
20.9174258749
 10
21.0990366407
 20
20.9576152844
 10
21.0914283585
 20
20.9946904534
 10
21.0766399932
 20
21.0275248716
 10
21.0551208818
 20
21.0551208818
  0
LWPOLYLINE
  5
14B
330
1F
100
AcDbEntity
  8
0
  6
Continuous
 62
     7
370
    25
100
AcDbPolyline
 90
       37
 70
   128
 43
0.0
 10
25.2763421678
 20
16.3064219443
 10
25.2487461576
 20
16.3279410557
 10
25.2159117394
 20
16.342729421
 10
25.1788365704
 20
16.3503377031
 10
25.1386471609
 20
16.3505347284
 10
25.0965646456
 20
16.3433145103
 10
25.0538676806
 20
16.3288964314
 10
25.0118535916
 20
16.3077185778
 10
24.9717989552
 20
16.2804244279
 10
24.9349208115
 20
16.2478433005
 10
24.9023396842
 20
16.2109651568
 10
24.8750455342
 20
16.1709105205
 10
24.8538676806
 20
16.1288964314
 10
24.8394496018
 20
16.0861994664
 10
24.8322293836
 20
16.0441169512
 10
24.8324264089
 20
16.0039275416
 10
24.8400346911
 20
15.9668523726
 10
24.8548230564
 20
15.9340179545
 10
24.8763421678
 20
15.9064219443
 10
24.903938178
 20
15.8849028329
 10
24.9367725961
 20
15.8701144676
 10
24.9738477651
 20
15.8625061854
 10
25.0140371747
 20
15.8623091601
 10
25.0561196899
 20
15.8695293783
 10
25.0988166549
 20
15.8839474571
 10
25.140830744
 20
15.9051253107
 10
25.1808853803
 20
15.9324194607
 10
25.217763524
 20
15.965000588
 10
25.2503446514
 20
16.0018787317
 10
25.2776388013
 20
16.0419333681
 10
25.2988166549
 20
16.0839474571
 10
25.3132347338
 20
16.1266444221
 10
25.3204549519
 20
16.1687269374
 10
25.3202579266
 20
16.2089163469
 10
25.3126496445
 20
16.2459915159
 10
25.2978612792
 20
16.2788259341
 10
25.2763421678
 20
16.3064219443
  0
LWPOLYLINE
  5
14C
330
1F
100
AcDbEntity
  8
0
  6
Continuous
 62
     7
370
    25
100
AcDbPolyline
 90
       37
 70
   128
 43
0.0
 10
-21.0551208818
 20
21.0551208818
 10
-21.0766399932
 20
21.0275248716
 10
-21.0914283585
 20
20.9946904534
 10
-21.0990366407
 20
20.9576152844
 10
-21.0992336659
 20
20.9174258749
 10
-21.0920134478
 20
20.8753433596
 10
-21.0775953689
 20
20.8326463946
 10
-21.0564175153
 20
20.7906323056
 10
-21.0291233654
 20
20.7505776693
 10
-20.996542238
 20
20.7136995255
 10
-20.9596640943
 20
20.6811183982
 10
-20.919609458
 20
20.6538242482
 10
-20.8775953689
 20
20.6326463946
 10
-20.8348984039
 20
20.6182283158
 10
-20.7928158887
 20
20.6110080976
 10
-20.7526264791
 20
20.6112051229
 10
-20.7155513102
 20
20.6188134051
 10
-20.682716892
 20
20.6336017704
 10
-20.6551208818
 20
20.6551208818
 10
-20.6336017704
 20
20.682716892
 10
-20.6188134051
 20
20.7155513102
 10
-20.6112051229
 20
20.7526264791
 10
-20.6110080976
 20
20.7928158887
 10
-20.6182283158
 20
20.8348984039
 10
-20.6326463946
 20
20.8775953689
 10
-20.6538242482
 20
20.919609458
 10
-20.6811183982
 20
20.9596640943
 10
-20.7136995255
 20
20.996542238
 10
-20.7505776693
 20
21.0291233654
 10
-20.7906323056
 20
21.0564175153
 10
-20.8326463946
 20
21.0775953689
 10
-20.8753433596
 20
21.0920134478
 10
-20.9174258749
 20
21.0992336659
 10
-20.9576152844
 20
21.0990366407
 10
-20.9946904534
 20
21.0914283585
 10
-21.0275248716
 20
21.0766399932
 10
-21.0551208818
 20
21.0551208818
  0
LWPOLYLINE
  5
14D
330
1F
100
AcDbEntity
  8
0
  6
Continuous
 62
     7
370
    25
100
AcDbPolyline
 90
       37
 70
   128
 43
0.0
 10
-16.3064219443
 20
25.2763421678
 10
-16.3279410557
 20
25.2487461576
 10
-16.342729421
 20
25.2159117394
 10
-16.3503377031
 20
25.1788365704
 10
-16.3505347284
 20
25.1386471609
 10
-16.3433145103
 20
25.0965646456
 10
-16.3288964314
 20
25.0538676806
 10
-16.3077185778
 20
25.0118535916
 10
-16.2804244279
 20
24.9717989552
 10
-16.2478433005
 20
24.9349208115
 10
-16.2109651568
 20
24.9023396842
 10
-16.1709105205
 20
24.8750455342
 10
-16.1288964314
 20
24.8538676806
 10
-16.0861994664
 20
24.8394496018
 10
-16.0441169512
 20
24.8322293836
 10
-16.0039275416
 20
24.8324264089
 10
-15.9668523726
 20
24.8400346911
 10
-15.9340179545
 20
24.8548230564
 10
-15.9064219443
 20
24.8763421678
 10
-15.8849028329
 20
24.903938178
 10
-15.8701144676
 20
24.9367725961
 10
-15.8625061854
 20
24.9738477651
 10
-15.8623091601
 20
25.0140371747
 10
-15.8695293783
 20
25.0561196899
 10
-15.8839474571
 20
25.0988166549
 10
-15.9051253107
 20
25.140830744
 10
-15.9324194607
 20
25.1808853803
 10
-15.965000588
 20
25.217763524
 10
-16.0018787317
 20
25.2503446514
 10
-16.0419333681
 20
25.2776388013
 10
-16.0839474571
 20
25.2988166549
 10
-16.1266444221
 20
25.3132347338
 10
-16.1687269374
 20
25.3204549519
 10
-16.2089163469
 20
25.3202579266
 10
-16.2459915159
 20
25.3126496445
 10
-16.2788259341
 20
25.2978612792
 10
-16.3064219443
 20
25.2763421678
  0
LWPOLYLINE
  5
14E
330
1F
100
AcDbEntity
  8
0
  6
Continuous
 62
     7
370
    25
100
AcDbPolyline
 90
       37
 70
   128
 43
0.0
 10
-16.3064219443
 20
-25.2763421678
 10
-16.2788259341
 20
-25.2978612792
 10
-16.2459915159
 20
-25.3126496445
 10
-16.2089163469
 20
-25.3202579266
 10
-16.1687269374
 20
-25.3204549519
 10
-16.1266444221
 20
-25.3132347338
 10
-16.0839474571
 20
-25.2988166549
 10
-16.0419333681
 20
-25.2776388013
 10
-16.0018787317
 20
-25.2503446514
 10
-15.965000588
 20
-25.217763524
 10
-15.9324194607
 20
-25.1808853803
 10
-15.9051253107
 20
-25.140830744
 10
-15.8839474571
 20
-25.0988166549
 10
-15.8695293783
 20
-25.0561196899
 10
-15.8623091601
 20
-25.0140371747
 10
-15.8625061854
 20
-24.9738477651
 10
-15.8701144676
 20
-24.9367725961
 10
-15.8849028329
 20
-24.903938178
 10
-15.9064219443
 20
-24.8763421678
 10
-15.9340179545
 20
-24.8548230564
 10
-15.9668523726
 20
-24.8400346911
 10
-16.0039275416
 20
-24.8324264089
 10
-16.0441169512
 20
-24.8322293836
 10
-16.0861994664
 20
-24.8394496018
 10
-16.1288964314
 20
-24.8538676806
 10
-16.1709105205
 20
-24.8750455342
 10
-16.2109651568
 20
-24.9023396842
 10
-16.2478433005
 20
-24.9349208115
 10
-16.2804244279
 20
-24.9717989552
 10
-16.3077185778
 20
-25.0118535916
 10
-16.3288964314
 20
-25.0538676806
 10
-16.3433145103
 20
-25.0965646456
 10
-16.3505347284
 20
-25.1386471609
 10
-16.3503377031
 20
-25.1788365704
 10
-16.342729421
 20
-25.2159117394
 10
-16.3279410557
 20
-25.2487461576
 10
-16.3064219443
 20
-25.2763421678
  0
LWPOLYLINE
  5
14F
330
1F
100
AcDbEntity
  8
0
  6
Continuous
 62
     7
370
    25
100
AcDbPolyline
 90
       37
 70
   128
 43
0.0
 10
-21.0551208818
 20
-21.0551208818
 10
-21.0275248716
 20
-21.0766399932
 10
-20.9946904534
 20
-21.0914283585
 10
-20.9576152844
 20
-21.0990366407
 10
-20.9174258749
 20
-21.0992336659
 10
-20.8753433596
 20
-21.0920134478
 10
-20.8326463946
 20
-21.0775953689
 10
-20.7906323056
 20
-21.0564175153
 10
-20.7505776693
 20
-21.0291233654
 10
-20.7136995255
 20
-20.996542238
 10
-20.6811183982
 20
-20.9596640943
 10
-20.6538242482
 20
-20.919609458
 10
-20.6326463946
 20
-20.8775953689
 10
-20.6182283158
 20
-20.8348984039
 10
-20.6110080976
 20
-20.7928158887
 10
-20.6112051229
 20
-20.7526264791
 10
-20.6188134051
 20
-20.7155513102
 10
-20.6336017704
 20
-20.682716892
 10
-20.6551208818
 20
-20.6551208818
 10
-20.682716892
 20
-20.6336017704
 10
-20.7155513102
 20
-20.6188134051
 10
-20.7526264791
 20
-20.6112051229
 10
-20.7928158887
 20
-20.6110080976
 10
-20.8348984039
 20
-20.6182283158
 10
-20.8775953689
 20
-20.6326463946
 10
-20.919609458
 20
-20.6538242482
 10
-20.9596640943
 20
-20.6811183982
 10
-20.996542238
 20
-20.7136995255
 10
-21.0291233654
 20
-20.7505776693
 10
-21.0564175153
 20
-20.7906323056
 10
-21.0775953689
 20
-20.8326463946
 10
-21.0920134478
 20
-20.8753433596
 10
-21.0992336659
 20
-20.9174258749
 10
-21.0990366407
 20
-20.9576152844
 10
-21.0914283585
 20
-20.9946904534
 10
-21.0766399932
 20
-21.0275248716
 10
-21.0551208818
 20
-21.0551208818
  0
LWPOLYLINE
  5
150
330
1F
100
AcDbEntity
  8
0
  6
Continuous
 62
     7
370
    25
100
AcDbPolyline
 90
       37
 70
   128
 43
0.0
 10
-25.2763421678
 20
-16.3064219443
 10
-25.2487461576
 20
-16.3279410557
 10
-25.2159117394
 20
-16.342729421
 10
-25.1788365704
 20
-16.3503377031
 10
-25.1386471609
 20
-16.3505347284
 10
-25.0965646456
 20
-16.3433145103
 10
-25.0538676806
 20
-16.3288964314
 10
-25.0118535916
 20
-16.3077185778
 10
-24.9717989552
 20
-16.2804244279
 10
-24.9349208115
 20
-16.2478433005
 10
-24.9023396842
 20
-16.2109651568
 10
-24.8750455342
 20
-16.1709105205
 10
-24.8538676806
 20
-16.1288964314
 10
-24.8394496018
 20
-16.0861994664
 10
-24.8322293836
 20
-16.0441169512
 10
-24.8324264089
 20
-16.0039275416
 10
-24.8400346911
 20
-15.9668523726
 10
-24.8548230564
 20
-15.9340179545
 10
-24.8763421678
 20
-15.9064219443
 10
-24.903938178
 20
-15.8849028329
 10
-24.9367725961
 20
-15.8701144676
 10
-24.9738477651
 20
-15.8625061854
 10
-25.0140371747
 20
-15.8623091601
 10
-25.0561196899
 20
-15.8695293783
 10
-25.0988166549
 20
-15.8839474571
 10
-25.140830744
 20
-15.9051253107
 10
-25.1808853803
 20
-15.9324194607
 10
-25.217763524
 20
-15.965000588
 10
-25.2503446514
 20
-16.0018787317
 10
-25.2776388013
 20
-16.0419333681
 10
-25.2988166549
 20
-16.0839474571
 10
-25.3132347338
 20
-16.1266444221
 10
-25.3204549519
 20
-16.1687269374
 10
-25.3202579266
 20
-16.2089163469
 10
-25.3126496445
 20
-16.2459915159
 10
-25.2978612792
 20
-16.2788259341
 10
-25.2763421678
 20
-16.3064219443
  0
LWPOLYLINE
  5
151
330
1F
100
AcDbEntity
  8
0
  6
Continuous
 62
     7
370
    25
100
AcDbPolyline
 90
       37
 70
   128
 43
0.0
 10
25.2763421678
 20
-16.3064219443
 10
25.2978612792
 20
-16.2788259341
 10
25.3126496445
 20
-16.2459915159
 10
25.3202579266
 20
-16.2089163469
 10
25.3204549519
 20
-16.1687269374
 10
25.3132347338
 20
-16.1266444221
 10
25.2988166549
 20
-16.0839474571
 10
25.2776388013
 20
-16.0419333681
 10
25.2503446514
 20
-16.0018787317
 10
25.217763524
 20
-15.965000588
 10
25.1808853803
 20
-15.9324194607
 10
25.140830744
 20
-15.9051253107
 10
25.0988166549
 20
-15.8839474571
 10
25.0561196899
 20
-15.8695293783
 10
25.0140371747
 20
-15.8623091601
 10
24.9738477651
 20
-15.8625061854
 10
24.9367725961
 20
-15.8701144676
 10
24.903938178
 20
-15.8849028329
 10
24.8763421678
 20
-15.9064219443
 10
24.8548230564
 20
-15.9340179545
 10
24.8400346911
 20
-15.9668523726
 10
24.8324264089
 20
-16.0039275416
 10
24.8322293836
 20
-16.0441169512
 10
24.8394496018
 20
-16.0861994664
 10
24.8538676806
 20
-16.1288964314
 10
24.8750455342
 20
-16.1709105205
 10
24.9023396842
 20
-16.2109651568
 10
24.9349208115
 20
-16.2478433005
 10
24.9717989552
 20
-16.2804244279
 10
25.0118535916
 20
-16.3077185778
 10
25.0538676806
 20
-16.3288964314
 10
25.0965646456
 20
-16.3433145103
 10
25.1386471609
 20
-16.3505347284
 10
25.1788365704
 20
-16.3503377032
 10
25.2159117394
 20
-16.342729421
 10
25.2487461576
 20
-16.3279410557
 10
25.2763421678
 20
-16.3064219443
  0
LWPOLYLINE
  5
152
330
1F
100
AcDbEntity
  8
0
  6
Continuous
 62
     7
370
    25
100
AcDbPolyline
 90
       37
 70
   128
 43
0.0
 10
21.0551208818
 20
-21.0551208818
 10
21.0766399932
 20
-21.0275248716
 10
21.0914283585
 20
-20.9946904534
 10
21.0990366407
 20
-20.9576152844
 10
21.0992336659
 20
-20.9174258749
 10
21.0920134478
 20
-20.8753433596
 10
21.0775953689
 20
-20.8326463946
 10
21.0564175153
 20
-20.7906323056
 10
21.0291233654
 20
-20.7505776693
 10
20.996542238
 20
-20.7136995255
 10
20.9596640943
 20
-20.6811183982
 10
20.919609458
 20
-20.6538242482
 10
20.8775953689
 20
-20.6326463946
 10
20.8348984039
 20
-20.6182283158
 10
20.7928158887
 20
-20.6110080976
 10
20.7526264791
 20
-20.6112051229
 10
20.7155513102
 20
-20.6188134051
 10
20.682716892
 20
-20.6336017704
 10
20.6551208818
 20
-20.6551208818
 10
20.6336017704
 20
-20.682716892
 10
20.6188134051
 20
-20.7155513102
 10
20.6112051229
 20
-20.7526264791
 10
20.6110080976
 20
-20.7928158887
 10
20.6182283158
 20
-20.8348984039
 10
20.6326463946
 20
-20.8775953689
 10
20.6538242482
 20
-20.919609458
 10
20.6811183982
 20
-20.9596640943
 10
20.7136995255
 20
-20.996542238
 10
20.7505776693
 20
-21.0291233654
 10
20.7906323056
 20
-21.0564175153
 10
20.8326463946
 20
-21.0775953689
 10
20.8753433596
 20
-21.0920134478
 10
20.9174258749
 20
-21.0992336659
 10
20.9576152844
 20
-21.0990366407
 10
20.9946904534
 20
-21.0914283585
 10
21.0275248716
 20
-21.0766399932
 10
21.0551208818
 20
-21.0551208818
  0
LWPOLYLINE
  5
153
330
1F
100
AcDbEntity
  8
0
  6
Continuous
 62
     7
370
    25
100
AcDbPolyline
 90
       37
 70
   128
 43
0.0
 10
16.3064219443
 20
-25.2763421678
 10
16.3279410557
 20
-25.2487461576
 10
16.342729421
 20
-25.2159117394
 10
16.3503377031
 20
-25.1788365704
 10
16.3505347284
 20
-25.1386471609
 10
16.3433145103
 20
-25.0965646456
 10
16.3288964314
 20
-25.0538676806
 10
16.3077185778
 20
-25.0118535916
 10
16.2804244279
 20
-24.9717989552
 10
16.2478433005
 20
-24.9349208115
 10
16.2109651568
 20
-24.9023396842
 10
16.1709105205
 20
-24.8750455342
 10
16.1288964314
 20
-24.8538676806
 10
16.0861994664
 20
-24.8394496018
 10
16.0441169512
 20
-24.8322293836
 10
16.0039275416
 20
-24.8324264089
 10
15.9668523726
 20
-24.8400346911
 10
15.9340179545
 20
-24.8548230564
 10
15.9064219443
 20
-24.8763421678
 10
15.8849028329
 20
-24.903938178
 10
15.8701144676
 20
-24.9367725961
 10
15.8625061854
 20
-24.9738477651
 10
15.8623091601
 20
-25.0140371747
 10
15.8695293783
 20
-25.0561196899
 10
15.8839474571
 20
-25.0988166549
 10
15.9051253107
 20
-25.140830744
 10
15.9324194607
 20
-25.1808853803
 10
15.965000588
 20
-25.217763524
 10
16.0018787317
 20
-25.2503446514
 10
16.0419333681
 20
-25.2776388013
 10
16.0839474571
 20
-25.2988166549
 10
16.1266444221
 20
-25.3132347338
 10
16.1687269374
 20
-25.3204549519
 10
16.2089163469
 20
-25.3202579266
 10
16.2459915159
 20
-25.3126496445
 10
16.2788259341
 20
-25.2978612792
 10
16.3064219443
 20
-25.2763421678
  0
CIRCLE
  5
154
330
1F
100
AcDbEntity
  8
0
  6
Continuous
 62
     7
370
    25
100
AcDbCircle
 10
-27.030733336
 20
27.030733336
 30
0.0
 40
1.849999999999991
  0
CIRCLE
  5
155
330
1F
100
AcDbEntity
  8
0
  6
Continuous
 62
     7
370
    25
100
AcDbCircle
 10
27.030733336
 20
27.030733336
 30
0.0
 40
1.849999999999934
  0
CIRCLE
  5
156
330
1F
100
AcDbEntity
  8
0
  6
Continuous
 62
     7
370
    25
100
AcDbCircle
 10
27.030733336
 20
-27.030733336
 30
0.0
 40
1.850000000000001
  0
CIRCLE
  5
157
330
1F
100
AcDbEntity
  8
0
  6
Continuous
 62
     7
370
    25
100
AcDbCircle
 10
-27.030733336
 20
-27.030733336
 30
0.0
 40
1.850000000000314
  0
CIRCLE
  5
158
330
1F
100
AcDbEntity
  8
0
  6
Continuous
 62
     7
370
    25
100
AcDbCircle
 10
0.0
 20
-25.1
 30
0.0
 40
1.550000000000036
  0
CIRCLE
  5
159
330
1F
100
AcDbEntity
  8
0
  6
Continuous
 62
     7
370
    25
100
AcDbCircle
 10
25.1
 20
0.0
 30
0.0
 40
1.19999999999998
  0
CIRCLE
  5
15A
330
1F
100
AcDbEntity
  8
0
  6
Continuous
 62
     7
370
    25
100
AcDbCircle
 10
0.0
 20
25.1
 30
0.0
 40
1.550000000000047
  0
CIRCLE
  5
15B
330
1F
100
AcDbEntity
  8
0
  6
Continuous
 62
     7
370
    25
100
AcDbCircle
 10
-25.1
 20
0.0
 30
0.0
 40
1.199999999999985
  0
CIRCLE
  5
15C
330
1F
100
AcDbEntity
  8
0
  6
Continuous
 62
     7
370
    25
100
AcDbCircle
 10
35.59
 20
36.6
 30
0.0
 40
0.1599999999999895
  0
CIRCLE
  5
15D
330
1F
100
AcDbEntity
  8
0
  6
Continuous
 62
     7
370
    25
100
AcDbCircle
 10
20.41
 20
36.6
 30
0.0
 40
0.1599999999999824
  0
CIRCLE
  5
15E
330
1F
100
AcDbEntity
  8
0
  6
Continuous
 62
     7
370
    25
100
AcDbCircle
 10
23.59
 20
36.6
 30
0.0
 40
0.1599999999999966
  0
LINE
  5
15F
330
1F
100
AcDbEntity
  8
0
  6
Continuous
 62
     7
370
    25
100
AcDbLine
 10
-46.65
 20
-46.9
 30
0.0
 11
-34.9
 21
-46.9
 31
0.0
  0
LINE
  5
160
330
1F
100
AcDbEntity
  8
0
  6
Continuous
 62
     7
370
    25
100
AcDbLine
 10
-47.15
 20
-41.7
 30
0.0
 11
-47.15
 21
-46.4
 31
0.0
  0
LINE
  5
161
330
1F
100
AcDbEntity
  8
0
  6
Continuous
 62
     7
370
    25
100
AcDbLine
 10
-47.65
 20
-41.2
 30
0.0
 11
-49.4
 21
-41.2
 31
0.0
  0
LINE
  5
162
330
1F
100
AcDbEntity
  8
0
  6
Continuous
 62
     7
370
    25
100
AcDbLine
 10
-49.9
 20
39.0
 30
0.0
 11
-49.9
 21
-40.7
 31
0.0
  0
LINE
  5
163
330
1F
100
AcDbEntity
  8
0
  6
Continuous
 62
     7
370
    25
100
AcDbLine
 10
-44.1
 20
44.8
 30
0.0
 11
-49.9
 21
39.0
 31
0.0
  0
LINE
  5
164
330
1F
100
AcDbEntity
  8
0
  6
Continuous
 62
     7
370
    25
100
AcDbLine
 10
-41.2320508076
 20
44.8
 30
0.0
 11
-44.1
 21
44.8
 31
0.0
  0
LINE
  5
165
330
1F
100
AcDbEntity
  8
0
  6
Continuous
 62
     7
370
    25
100
AcDbLine
 10
-18.2320508076
 20
44.8
 30
0.0
 11
-37.7679491924
 21
44.8
 31
0.0
  0
LINE
  5
166
330
1F
100
AcDbEntity
  8
0
  6
Continuous
 62
     7
370
    25
100
AcDbLine
 10
14.7679491924
 20
44.8
 30
0.0
 11
-14.7679491924
 21
44.8
 31
0.0
  0
LINE
  5
167
330
1F
100
AcDbEntity
  8
0
  6
Continuous
 62
     7
370
    25
100
AcDbLine
 10
16.5
 20
43.8
 30
0.0
 11
17.7320508076
 21
43.8
 31
0.0
  0
LINE
  5
168
330
1F
100
AcDbEntity
  8
0
  6
Continuous
 62
     7
370
    25
100
AcDbLine
 10
18.2320508076
 20
43.3
 30
0.0
 11
18.2320508076
 21
41.3
 31
0.0
  0
LINE
  5
169
330
1F
100
AcDbEntity
  8
0
  6
Continuous
 62
     7
370
    25
100
AcDbLine
 10
20.41
 20
40.8
 30
0.0
 11
18.7320508076
 21
40.8
 31
0.0
  0
LINE
  5
16A
330
1F
100
AcDbEntity
  8
0
  6
Continuous
 62
     7
370
    25
100
AcDbLine
 10
20.41
 20
37.1
 30
0.0
 11
20.41
 21
40.8
 31
0.0
  0
LINE
  5
16B
330
1F
100
AcDbEntity
  8
0
  6
Continuous
 62
     7
370
    25
100
AcDbLine
 10
20.91
 20
36.6
 30
0.0
 11
23.09
 21
36.6
 31
0.0
  0
LINE
  5
16C
330
1F
100
AcDbEntity
  8
0
  6
Continuous
 62
     7
370
    25
100
AcDbLine
 10
23.59
 20
37.1
 30
0.0
 11
23.59
 21
40.8
 31
0.0
  0
LINE
  5
16D
330
1F
100
AcDbEntity
  8
0
  6
Continuous
 62
     7
370
    25
100
AcDbLine
 10
26.41
 20
40.8
 30
0.0
 11
23.59
 21
40.8
 31
0.0
  0
LINE
  5
16E
330
1F
100
AcDbEntity
  8
0
  6
Continuous
 62
     7
370
    25
100
AcDbLine
 10
26.41
 20
37.1
 30
0.0
 11
26.41
 21
40.8
 31
0.0
  0
LINE
  5
16F
330
1F
100
AcDbEntity
  8
0
  6
Continuous
 62
     7
370
    25
100
AcDbLine
 10
26.91
 20
36.6
 30
0.0
 11
29.09
 21
36.6
 31
0.0
  0
LINE
  5
170
330
1F
100
AcDbEntity
  8
0
  6
Continuous
 62
     7
370
    25
100
AcDbLine
 10
29.59
 20
37.1
 30
0.0
 11
29.59
 21
40.8
 31
0.0
  0
LINE
  5
171
330
1F
100
AcDbEntity
  8
0
  6
Continuous
 62
     7
370
    25
100
AcDbLine
 10
32.41
 20
40.8
 30
0.0
 11
29.59
 21
40.8
 31
0.0
  0
LINE
  5
172
330
1F
100
AcDbEntity
  8
0
  6
Continuous
 62
     7
370
    25
100
AcDbLine
 10
32.41
 20
37.1
 30
0.0
 11
32.41
 21
40.8
 31
0.0
  0
LINE
  5
173
330
1F
100
AcDbEntity
  8
0
  6
Continuous
 62
     7
370
    25
100
AcDbLine
 10
32.91
 20
36.6
 30
0.0
 11
35.09
 21
36.6
 31
0.0
  0
LINE
  5
174
330
1F
100
AcDbEntity
  8
0
  6
Continuous
 62
     7
370
    25
100
AcDbLine
 10
35.59
 20
37.1
 30
0.0
 11
35.59
 21
40.8
 31
0.0
  0
LINE
  5
175
330
1F
100
AcDbEntity
  8
0
  6
Continuous
 62
     7
370
    25
100
AcDbLine
 10
37.2679491924
 20
40.8
 30
0.0
 11
35.59
 21
40.8
 31
0.0
  0
LINE
  5
176
330
1F
100
AcDbEntity
  8
0
  6
Continuous
 62
     7
370
    25
100
AcDbLine
 10
37.7679491924
 20
43.3
 30
0.0
 11
37.7679491924
 21
41.3
 31
0.0
  0
LINE
  5
177
330
1F
100
AcDbEntity
  8
0
  6
Continuous
 62
     7
370
    25
100
AcDbLine
 10
39.5
 20
43.8
 30
0.0
 11
38.2679491924
 21
43.8
 31
0.0
  0
LINE
  5
178
330
1F
100
AcDbEntity
  8
0
  6
Continuous
 62
     7
370
    25
100
AcDbLine
 10
44.1
 20
44.8
 30
0.0
 11
41.2320508076
 21
44.8
 31
0.0
  0
LINE
  5
179
330
1F
100
AcDbEntity
  8
0
  6
Continuous
 62
     7
370
    25
100
AcDbLine
 10
49.9
 20
39.0
 30
0.0
 11
44.1
 21
44.8
 31
0.0
  0
LINE
  5
17A
330
1F
100
AcDbEntity
  8
0
  6
Continuous
 62
     7
370
    25
100
AcDbLine
 10
49.9
 20
-40.7
 30
0.0
 11
49.9
 21
39.0
 31
0.0
  0
LINE
  5
17B
330
1F
100
AcDbEntity
  8
0
  6
Continuous
 62
     7
370
    25
100
AcDbLine
 10
49.4
 20
-41.2
 30
0.0
 11
47.65
 21
-41.2
 31
0.0
  0
LINE
  5
17C
330
1F
100
AcDbEntity
  8
0
  6
Continuous
 62
     7
370
    25
100
AcDbLine
 10
47.15
 20
-46.4
 30
0.0
 11
47.15
 21
-41.7
 31
0.0
  0
LINE
  5
17D
330
1F
100
AcDbEntity
  8
0
  6
Continuous
 62
     7
370
    25
100
AcDbLine
 10
34.9
 20
-46.9
 30
0.0
 11
46.65
 21
-46.9
 31
0.0
  0
LINE
  5
17E
330
1F
100
AcDbEntity
  8
0
  6
Continuous
 62
     7
370
    25
100
AcDbLine
 10
34.4
 20
-49.3
 30
0.0
 11
34.4
 21
-47.4
 31
0.0
  0
LINE
  5
17F
330
1F
100
AcDbEntity
  8
0
  6
Continuous
 62
     7
370
    25
100
AcDbLine
 10
33.9
 20
-49.8
 30
0.0
 11
-33.9
 21
-49.8
 31
0.0
  0
LINE
  5
180
330
1F
100
AcDbEntity
  8
0
  6
Continuous
 62
     7
370
    25
100
AcDbLine
 10
-34.4
 20
-47.4
 30
0.0
 11
-34.4
 21
-49.3
 31
0.0
  0
ARC
  5
181
330
1F
100
AcDbEntity
  8
0
  6
Continuous
 62
     7
370
    25
100
AcDbCircle
 10
-34.9
 20
-47.4
 30
0.0
 40
0.5
100
AcDbArc
 50
0.0
 51
90.0
  0
ARC
  5
182
330
1F
100
AcDbEntity
  8
0
  6
Continuous
 62
     7
370
    25
100
AcDbCircle
 10
-46.65
 20
-46.4
 30
0.0
 40
0.5
100
AcDbArc
 50
180.0
 51
270.0
  0
ARC
  5
183
330
1F
100
AcDbEntity
  8
0
  6
Continuous
 62
     7
370
    25
100
AcDbCircle
 10
-47.65
 20
-41.7
 30
0.0
 40
0.5000000000000142
100
AcDbArc
 50
0.0
 51
90.0
  0
ARC
  5
184
330
1F
100
AcDbEntity
  8
0
  6
Continuous
 62
     7
370
    25
100
AcDbCircle
 10
-49.4
 20
-40.7
 30
0.0
 40
0.4999999999999929
100
AcDbArc
 50
180.0
 51
270.0
  0
ARC
  5
185
330
1F
100
AcDbEntity
  8
0
  6
Continuous
 62
     7
370
    25
100
AcDbCircle
 10
-39.5
 20
45.8
 30
0.0
 40
2.000000000000012
100
AcDbArc
 50
210.0
 51
330.0
  0
ARC
  5
186
330
1F
100
AcDbEntity
  8
0
  6
Continuous
 62
     7
370
    25
100
AcDbCircle
 10
-16.5
 20
45.8
 30
0.0
 40
2.000000000000007
100
AcDbArc
 50
210.0
 51
330.0
  0
ARC
  5
187
330
1F
100
AcDbEntity
  8
0
  6
Continuous
 62
     7
370
    25
100
AcDbCircle
 10
16.5
 20
45.8
 30
0.0
 40
2.000000000000028
100
AcDbArc
 50
210.0
 51
270.0
  0
ARC
  5
188
330
1F
100
AcDbEntity
  8
0
  6
Continuous
 62
     7
370
    25
100
AcDbCircle
 10
17.7320508076
 20
43.3
 30
0.0
 40
0.4999999999999929
100
AcDbArc
 50
0.0
 51
90.0
  0
ARC
  5
189
330
1F
100
AcDbEntity
  8
0
  6
Continuous
 62
     7
370
    25
100
AcDbCircle
 10
18.7320508076
 20
41.3
 30
0.0
 40
0.5
100
AcDbArc
 50
180.0
 51
270.0
  0
ARC
  5
18A
330
1F
100
AcDbEntity
  8
0
  6
Continuous
 62
     7
370
    25
100
AcDbCircle
 10
20.91
 20
37.1
 30
0.0
 40
0.5000000000000071
100
AcDbArc
 50
180.0
 51
270.0
  0
ARC
  5
18B
330
1F
100
AcDbEntity
  8
0
  6
Continuous
 62
     7
370
    25
100
AcDbCircle
 10
23.09
 20
37.1
 30
0.0
 40
0.5000000000000071
100
AcDbArc
 50
270.0
 51
0.0
  0
ARC
  5
18C
330
1F
100
AcDbEntity
  8
0
  6
Continuous
 62
     7
370
    25
100
AcDbCircle
 10
26.91
 20
37.1
 30
0.0
 40
0.5000000000000071
100
AcDbArc
 50
180.0
 51
270.0
  0
ARC
  5
18D
330
1F
100
AcDbEntity
  8
0
  6
Continuous
 62
     7
370
    25
100
AcDbCircle
 10
29.09
 20
37.1
 30
0.0
 40
0.5000000000000107
100
AcDbArc
 50
270.0
 51
0.0
  0
ARC
  5
18E
330
1F
100
AcDbEntity
  8
0
  6
Continuous
 62
     7
370
    25
100
AcDbCircle
 10
32.91
 20
37.1
 30
0.0
 40
0.4999999999999929
100
AcDbArc
 50
180.0
 51
270.0
  0
ARC
  5
18F
330
1F
100
AcDbEntity
  8
0
  6
Continuous
 62
     7
370
    25
100
AcDbCircle
 10
35.09
 20
37.1
 30
0.0
 40
0.5000000000000071
100
AcDbArc
 50
270.0
 51
0.0
  0
ARC
  5
190
330
1F
100
AcDbEntity
  8
0
  6
Continuous
 62
     7
370
    25
100
AcDbCircle
 10
37.2679491924
 20
41.3
 30
0.0
 40
0.5000000000000071
100
AcDbArc
 50
270.0
 51
0.0
  0
ARC
  5
191
330
1F
100
AcDbEntity
  8
0
  6
Continuous
 62
     7
370
    25
100
AcDbCircle
 10
38.2679491924
 20
43.3
 30
0.0
 40
0.4999999999999858
100
AcDbArc
 50
90.0
 51
180.0
  0
ARC
  5
192
330
1F
100
AcDbEntity
  8
0
  6
Continuous
 62
     7
370
    25
100
AcDbCircle
 10
39.5
 20
45.8
 30
0.0
 40
2.000000000000038
100
AcDbArc
 50
270.0
 51
330.0
  0
ARC
  5
193
330
1F
100
AcDbEntity
  8
0
  6
Continuous
 62
     7
370
    25
100
AcDbCircle
 10
49.4
 20
-40.7
 30
0.0
 40
0.4999999999999929
100
AcDbArc
 50
270.0
 51
0.0
  0
ARC
  5
194
330
1F
100
AcDbEntity
  8
0
  6
Continuous
 62
     7
370
    25
100
AcDbCircle
 10
47.65
 20
-41.7
 30
0.0
 40
0.5000000000000142
100
AcDbArc
 50
90.0
 51
180.0
  0
ARC
  5
195
330
1F
100
AcDbEntity
  8
0
  6
Continuous
 62
     7
370
    25
100
AcDbCircle
 10
46.65
 20
-46.4
 30
0.0
 40
0.5
100
AcDbArc
 50
270.0
 51
0.0
  0
ARC
  5
196
330
1F
100
AcDbEntity
  8
0
  6
Continuous
 62
     7
370
    25
100
AcDbCircle
 10
34.9
 20
-47.4
 30
0.0
 40
0.4999999999999929
100
AcDbArc
 50
90.0
 51
180.0
  0
ARC
  5
197
330
1F
100
AcDbEntity
  8
0
  6
Continuous
 62
     7
370
    25
100
AcDbCircle
 10
33.9
 20
-49.3
 30
0.0
 40
0.5000000000000071
100
AcDbArc
 50
270.0
 51
0.0
  0
ARC
  5
198
330
1F
100
AcDbEntity
  8
0
  6
Continuous
 62
     7
370
    25
100
AcDbCircle
 10
-33.9
 20
-49.3
 30
0.0
 40
0.4999999999999858
100
AcDbArc
 50
180.0
 51
270.0
  0
MTEXT
  5
19A
330
1F
100
AcDbEntity
  8
0
  6
Continuous
 62
     7
100
AcDbMText
 10
-49.9
 20
-50.8195663917
 30
0.0
 40
4.83362
 41
0.0
 71
     1
 72
     1
  1
SOLIDWORKS Educational Product.
  7
SLDTEXTSTYLE0
 73
     1
 44
1.0
  0
MTEXT
  5
19B
330
1F
100
AcDbEntity
  8
0
  6
Continuous
 62
     7
100
AcDbMText
 10
-49.9
 20
-58.0699963917
 30
0.0
 40
4.83362
 41
0.0
 71
     1
 72
     1
  1
For Instructional Use Only.
  7
SLDTEXTSTYLE0
 73
     1
 44
1.0
  0
ENDSEC
  0
SECTION
  2
OBJECTS
  0
DICTIONARY
  5
C
330
0
100
AcDbDictionary
281
     1
  3
ACAD_GROUP
350
D
  3
ACAD_LAYOUT
350
1A
  3
ACAD_MLINESTYLE
350
17
  3
ACAD_PLOTSETTINGS
350
19
  3
ACAD_PLOTSTYLENAME
350
E
  3
ACAD_SCALELIST
350
47
  3
DWGPROPS
350
19C
  0
DICTIONARY
  5
D
102
{ACAD_REACTORS
330
C
102
}
330
C
100
AcDbDictionary
281
     1
  0
DICTIONARY
  5
1A
102
{ACAD_REACTORS
330
C
102
}
330
C
100
AcDbDictionary
281
     1
  3
Layout1
350
1E
  3
Layout2
350
26
  3
Model
350
22
  0
DICTIONARY
  5
17
102
{ACAD_REACTORS
330
C
102
}
330
C
100
AcDbDictionary
281
     1
  3
Standard
350
18
  0
DICTIONARY
  5
19
102
{ACAD_REACTORS
330
C
102
}
330
C
100
AcDbDictionary
281
     1
  0
ACDBDICTIONARYWDFLT
  5
E
102
{ACAD_REACTORS
330
C
102
}
330
C
100
AcDbDictionary
281
     1
  3
Normal
350
F
100
AcDbDictionaryWithDefault
340
F
  0
DICTIONARY
  5
47
102
{ACAD_REACTORS
330
C
102
}
330
C
100
AcDbDictionary
281
     1
  3
A0
350
48
  3
A1
350
49
  3
A2
350
4A
  3
A3
350
4B
  3
A4
350
4C
  3
A5
350
4D
  3
A6
350
4E
  3
A7
350
4F
  3
A8
350
50
  3
A9
350
51
  3
B0
350
52
  3
B1
350
53
  3
B2
350
54
  3
B3
350
55
  3
B4
350
56
  3
B5
350
57
  3
B6
350
58
  3
B7
350
59
  3
B8
350
5A
  3
B9
350
5B
  3
C0
350
5C
  3
C1
350
5D
  3
C2
350
5E
  3
C3
350
5F
  3
C4
350
60
  3
C5
350
61
  3
C6
350
62
  3
C7
350
63
  3
C8
350
64
  3
C9
350
65
  3
D0
350
66
  3
D1
350
67
  3
D2
350
68
  0
XRECORD
  5
19C
102
{ACAD_REACTORS
330
C
102
}
330
C
100
AcDbXrecord
280
     1
  1
DWGPROPS COOKIE
  2

  3

  4

  6

  7

  8
Work
  9

300
=
301
=
302
=
303
=
304
=
305
=
306
=
307
=
308
=
309
=
 40
0.0
 41
2459140.065864722
 42
2459140.066012801
  1

 90
        0
  0
LAYOUT
  5
1E
102
{ACAD_REACTORS
330
1A
102
}
330
1A
100
AcDbPlotSettings
  1

  2
none_device
  4

  6

 40
0.0
 41
0.0
 42
0.0
 43
0.0
 44
0.0
 45
0.0
 46
0.0
 47
0.0
 48
0.0
 49
0.0
140
0.0
141
0.0
142
1.0
143
1.0
 70
   688
 72
     1
 73
     0
 74
     5
  7

 75
    16
147
1.0
148
0.0
149
0.0
100
AcDbLayout
  1
Layout1
 70
     1
 71
     1
 10
0.0
 20
0.0
 11
420.0
 21
297.0
 12
0.0
 22
0.0
 32
0.0
 14
1.0000000000E+20
 24
1.0000000000E+20
 34
1.0000000000E+20
 15
-1.0000000000E+20
 25
-1.0000000000E+20
 35
-1.0000000000E+20
146
0.0
 13
0.0
 23
0.0
 33
0.0
 16
1.0
 26
0.0
 36
0.0
 17
0.0
 27
1.0
 37
0.0
 76
     0
330
1B
  0
LAYOUT
  5
26
102
{ACAD_REACTORS
330
1A
102
}
330
1A
100
AcDbPlotSettings
  1

  2
none_device
  4

  6

 40
0.0
 41
0.0
 42
0.0
 43
0.0
 44
0.0
 45
0.0
 46
0.0
 47
0.0
 48
0.0
 49
0.0
140
0.0
141
0.0
142
1.0
143
1.0
 70
   688
 72
     1
 73
     0
 74
     5
  7

 75
    16
147
1.0
148
0.0
149
0.0
100
AcDbLayout
  1
Layout2
 70
     1
 71
     2
 10
0.0
 20
0.0
 11
0.0
 21
0.0
 12
0.0
 22
0.0
 32
0.0
 14
0.0
 24
0.0
 34
0.0
 15
0.0
 25
0.0
 35
0.0
146
0.0
 13
0.0
 23
0.0
 33
0.0
 16
1.0
 26
0.0
 36
0.0
 17
0.0
 27
1.0
 37
0.0
 76
     0
330
23
  0
LAYOUT
  5
22
102
{ACAD_REACTORS
330
1A
102
}
330
1A
100
AcDbPlotSettings
  1

  2
none_device
  4
ANSI_A_(11.00_x_8.50_Inches)
  6

 40
6.35
 41
19.05
 42
6.35000508
 43
19.05000254
 44
279.4
 45
215.9
 46
133.34999746
 47
81.3495986954
 48
0.0
 49
0.0
140
0.0
141
0.0
142
0.0785188786
143
1.0
 70
  1696
 72
     0
 73
     0
 74
     0
  7

 75
     0
147
0.0179189148
148
-1300.4909072572
149
0.0
100
AcDbLayout
  1
Model
 70
     1
 71
     0
 10
0.0
 20
0.0
 11
420.0
 21
297.0
 12
0.0
 22
0.0
 32
0.0
 14
-49.9
 24
-49.8
 34
0.0
 15
49.9
 25
57.3716782777
 35
0.0
146
0.0
 13
0.0
 23
0.0
 33
0.0
 16
1.0
 26
0.0
 36
0.0
 17
0.0
 27
1.0
 37
0.0
 76
     0
330
1F
331
29
  0
MLINESTYLE
  5
18
102
{ACAD_REACTORS
330
17
102
}
330
17
100
AcDbMlineStyle
  2
Standard
 70
     0
  3

 62
   256
 51
90.0
 52
90.0
 71
     2
 49
0.5
 62
   256
  6
BYLAYER
 49
-0.5
 62
   256
  6
BYLAYER
  0
ACDBPLACEHOLDER
  5
F
102
{ACAD_REACTORS
330
E
102
}
330
E
  0
SCALE
  5
48
102
{ACAD_REACTORS
330
47
102
}
330
47
100
AcDbScale
 70
     0
300
1:1
140
1.0
141
1.0
290
     1
  0
SCALE
  5
49
102
{ACAD_REACTORS
330
47
102
}
330
47
100
AcDbScale
 70
     0
300
1:2
140
1.0
141
2.0
290
     0
  0
SCALE
  5
4A
102
{ACAD_REACTORS
330
47
102
}
330
47
100
AcDbScale
 70
     0
300
1:4
140
1.0
141
4.0
290
     0
  0
SCALE
  5
4B
102
{ACAD_REACTORS
330
47
102
}
330
47
100
AcDbScale
 70
     0
300
1:5
140
1.0
141
5.0
290
     0
  0
SCALE
  5
4C
102
{ACAD_REACTORS
330
47
102
}
330
47
100
AcDbScale
 70
     0
300
1:8
140
1.0
141
8.0
290
     0
  0
SCALE
  5
4D
102
{ACAD_REACTORS
330
47
102
}
330
47
100
AcDbScale
 70
     0
300
1:10
140
1.0
141
10.0
290
     0
  0
SCALE
  5
4E
102
{ACAD_REACTORS
330
47
102
}
330
47
100
AcDbScale
 70
     0
300
1:16
140
1.0
141
16.0
290
     0
  0
SCALE
  5
4F
102
{ACAD_REACTORS
330
47
102
}
330
47
100
AcDbScale
 70
     0
300
1:20
140
1.0
141
20.0
290
     0
  0
SCALE
  5
50
102
{ACAD_REACTORS
330
47
102
}
330
47
100
AcDbScale
 70
     0
300
1:30
140
1.0
141
30.0
290
     0
  0
SCALE
  5
51
102
{ACAD_REACTORS
330
47
102
}
330
47
100
AcDbScale
 70
     0
300
1:40
140
1.0
141
40.0
290
     0
  0
SCALE
  5
52
102
{ACAD_REACTORS
330
47
102
}
330
47
100
AcDbScale
 70
     0
300
1:50
140
1.0
141
50.0
290
     0
  0
SCALE
  5
53
102
{ACAD_REACTORS
330
47
102
}
330
47
100
AcDbScale
 70
     0
300
1:100
140
1.0
141
100.0
290
     0
  0
SCALE
  5
54
102
{ACAD_REACTORS
330
47
102
}
330
47
100
AcDbScale
 70
     0
300
2:1
140
2.0
141
1.0
290
     0
  0
SCALE
  5
55
102
{ACAD_REACTORS
330
47
102
}
330
47
100
AcDbScale
 70
     0
300
4:1
140
4.0
141
1.0
290
     0
  0
SCALE
  5
56
102
{ACAD_REACTORS
330
47
102
}
330
47
100
AcDbScale
 70
     0
300
8:1
140
8.0
141
1.0
290
     0
  0
SCALE
  5
57
102
{ACAD_REACTORS
330
47
102
}
330
47
100
AcDbScale
 70
     0
300
10:1
140
10.0
141
1.0
290
     0
  0
SCALE
  5
58
102
{ACAD_REACTORS
330
47
102
}
330
47
100
AcDbScale
 70
     0
300
100:1
140
100.0
141
1.0
290
     0
  0
SCALE
  5
59
102
{ACAD_REACTORS
330
47
102
}
330
47
100
AcDbScale
 70
     0
300
1/128" = 1'-0"
140
0.0078125
141
12.0
290
     0
  0
SCALE
  5
5A
102
{ACAD_REACTORS
330
47
102
}
330
47
100
AcDbScale
 70
     0
300
1/64" = 1'-0"
140
0.015625
141
12.0
290
     0
  0
SCALE
  5
5B
102
{ACAD_REACTORS
330
47
102
}
330
47
100
AcDbScale
 70
     0
300
1/32" = 1'-0"
140
0.03125
141
12.0
290
     0
  0
SCALE
  5
5C
102
{ACAD_REACTORS
330
47
102
}
330
47
100
AcDbScale
 70
     0
300
1/16" = 1'-0"
140
0.0625
141
12.0
290
     0
  0
SCALE
  5
5D
102
{ACAD_REACTORS
330
47
102
}
330
47
100
AcDbScale
 70
     0
300
3/32" = 1'-0"
140
0.09375
141
12.0
290
     0
  0
SCALE
  5
5E
102
{ACAD_REACTORS
330
47
102
}
330
47
100
AcDbScale
 70
     0
300
1/8" = 1'-0"
140
0.125
141
12.0
290
     0
  0
SCALE
  5
5F
102
{ACAD_REACTORS
330
47
102
}
330
47
100
AcDbScale
 70
     0
300
3/16" = 1'-0"
140
0.1875
141
12.0
290
     0
  0
SCALE
  5
60
102
{ACAD_REACTORS
330
47
102
}
330
47
100
AcDbScale
 70
     0
300
1/4" = 1'-0"
140
0.25
141
12.0
290
     0
  0
SCALE
  5
61
102
{ACAD_REACTORS
330
47
102
}
330
47
100
AcDbScale
 70
     0
300
3/8" = 1'-0"
140
0.375
141
12.0
290
     0
  0
SCALE
  5
62
102
{ACAD_REACTORS
330
47
102
}
330
47
100
AcDbScale
 70
     0
300
1/2" = 1'-0"
140
0.5
141
12.0
290
     0
  0
SCALE
  5
63
102
{ACAD_REACTORS
330
47
102
}
330
47
100
AcDbScale
 70
     0
300
3/4" = 1'-0"
140
0.75
141
12.0
290
     0
  0
SCALE
  5
64
102
{ACAD_REACTORS
330
47
102
}
330
47
100
AcDbScale
 70
     0
300
1" = 1'-0"
140
1.0
141
12.0
290
     0
  0
SCALE
  5
65
102
{ACAD_REACTORS
330
47
102
}
330
47
100
AcDbScale
 70
     0
300
1-1/2" = 1'-0"
140
1.5
141
12.0
290
     0
  0
SCALE
  5
66
102
{ACAD_REACTORS
330
47
102
}
330
47
100
AcDbScale
 70
     0
300
3" = 1'-0"
140
3.0
141
12.0
290
     0
  0
SCALE
  5
67
102
{ACAD_REACTORS
330
47
102
}
330
47
100
AcDbScale
 70
     0
300
6" = 1'-0"
140
6.0
141
12.0
290
     0
  0
SCALE
  5
68
102
{ACAD_REACTORS
330
47
102
}
330
47
100
AcDbScale
 70
     0
300
1'-0" = 1'-0"
140
12.0
141
12.0
290
     0
  0
ENDSEC
  0
EOF
