  0
SECTION
  2
HEADER
  9
$ACADVER
  1
AC1015
  9
$ACADMAINTVER
 70
     6
  9
$DWGCODEPAGE
  3
ANSI_1252
  9
$INSBASE
 10
0.0
 20
0.0
 30
0.0
  9
$EXTMIN
 10
-54.631848846
 20
-38.9452225161
 30
0.0
  9
$EXTMAX
 10
54.3859060949
 20
43.02618541
 30
0.0
  9
$LIMMIN
 10
0.0
 20
0.0
  9
$LIMMAX
 10
420.0
 20
297.0
  9
$ORTHOMODE
 70
     0
  9
$REGENMODE
 70
     1
  9
$FILLMODE
 70
     1
  9
$QTEXTMODE
 70
     0
  9
$MIRRTEXT
 70
     1
  9
$LTSCALE
 40
1.0
  9
$ATTMODE
 70
     1
  9
$TEXTSIZE
 40
3.5
  9
$TRACEWID
 40
1.0
  9
$TEXTSTYLE
  7
Standard
  9
$CLAYER
  8
0
  9
$CELTYPE
  6
ByLayer
  9
$CECOLOR
 62
   256
  9
$CELTSCALE
 40
1.0
  9
$DISPSILH
 70
     0
  9
$DIMSCALE
 40
1.0
  9
$DIMASZ
 40
3.302
  9
$DIMEXO
 40
1.0
  9
$DIMDLI
 40
3.75
  9
$DIMRND
 40
0.0
  9
$DIMDLE
 40
0.0
  9
$DIMEXE
 40
1.0
  9
$DIMTP
 40
0.0
  9
$DIMTM
 40
0.0
  9
$DIMTXT
 40
3.5
  9
$DIMCEN
 40
2.5
  9
$DIMTSZ
 40
0.0
  9
$DIMTOL
 70
     0
  9
$DIMLIM
 70
     0
  9
$DIMTIH
 70
     1
  9
$DIMTOH
 70
     1
  9
$DIMSE1
 70
     0
  9
$DIMSE2
 70
     0
  9
$DIMTAD
 70
     1
  9
$DIMZIN
 70
     1
  9
$DIMBLK
  1

  9
$DIMASO
 70
     1
  9
$DIMSHO
 70
     1
  9
$DIMPOST
  1

  9
$DIMAPOST
  1

  9
$DIMALT
 70
     0
  9
$DIMALTD
 70
     3
  9
$DIMALTF
 40
0.0393700787
  9
$DIMLFAC
 40
1.0
  9
$DIMTOFL
 70
     1
  9
$DIMTVP
 40
0.0
  9
$DIMTIX
 70
     0
  9
$DIMSOXD
 70
     0
  9
$DIMSAH
 70
     0
  9
$DIMBLK1
  1

  9
$DIMBLK2
  1

  9
$DIMSTYLE
  2
ISO-25
  9
$DIMCLRD
 70
     0
  9
$DIMCLRE
 70
     0
  9
$DIMCLRT
 70
     0
  9
$DIMTFAC
 40
1.0
  9
$DIMGAP
 40
1.524
  9
$DIMJUST
 70
     0
  9
$DIMSD1
 70
     0
  9
$DIMSD2
 70
     0
  9
$DIMTOLJ
 70
     0
  9
$DIMTZIN
 70
     1
  9
$DIMALTZ
 70
     0
  9
$DIMALTTZ
 70
     0
  9
$DIMUPT
 70
     0
  9
$DIMDEC
 70
     2
  9
$DIMTDEC
 70
     2
  9
$DIMALTU
 70
     2
  9
$DIMALTTD
 70
     3
  9
$DIMTXSTY
  7
Standard
  9
$DIMAUNIT
 70
     0
  9
$DIMADEC
 70
     2
  9
$DIMALTRND
 40
0.0
  9
$DIMAZIN
 70
     0
  9
$DIMDSEP
 70
    44
  9
$DIMATFIT
 70
     3
  9
$DIMFRAC
 70
     0
  9
$DIMLDRBLK
  1

  9
$DIMLUNIT
 70
     2
  9
$DIMLWD
 70
    -2
  9
$DIMLWE
 70
    -2
  9
$DIMTMOVE
 70
     0
  9
$LUNITS
 70
     2
  9
$LUPREC
 70
     2
  9
$SKETCHINC
 40
1.0
  9
$FILLETRAD
 40
10.0
  9
$AUNITS
 70
     0
  9
$AUPREC
 70
     2
  9
$MENU
  1
.
  9
$ELEVATION
 40
0.0
  9
$PELEVATION
 40
0.0
  9
$THICKNESS
 40
0.0
  9
$LIMCHECK
 70
     0
  9
$CHAMFERA
 40
0.0
  9
$CHAMFERB
 40
0.0
  9
$CHAMFERC
 40
0.0
  9
$CHAMFERD
 40
0.0
  9
$SKPOLY
 70
     0
  9
$TDCREATE
 40
2459053.787804282
  9
$TDUCREATE
 40
2459054.079470949
  9
$TDUPDATE
 40
2459053.787877453
  9
$TDUUPDATE
 40
2459054.07954412
  9
$TDINDWG
 40
0.0000000116
  9
$TDUSRTIMER
 40
0.0000000116
  9
$USRTIMER
 70
     1
  9
$ANGBASE
 50
0.0
  9
$ANGDIR
 70
     0
  9
$PDMODE
 70
     0
  9
$PDSIZE
 40
-1.0
  9
$PLINEWID
 40
0.0
  9
$SPLFRAME
 70
     0
  9
$SPLINETYPE
 70
     6
  9
$SPLINESEGS
 70
     8
  9
$HANDSEED
  5
1E4
  9
$SURFTAB1
 70
     6
  9
$SURFTAB2
 70
     6
  9
$SURFTYPE
 70
     6
  9
$SURFU
 70
     6
  9
$SURFV
 70
     6
  9
$UCSBASE
  2

  9
$UCSNAME
  2

  9
$UCSORG
 10
0.0
 20
0.0
 30
0.0
  9
$UCSXDIR
 10
1.0
 20
0.0
 30
0.0
  9
$UCSYDIR
 10
0.0
 20
1.0
 30
0.0
  9
$UCSORTHOREF
  2

  9
$UCSORTHOVIEW
 70
     0
  9
$UCSORGTOP
 10
0.0
 20
0.0
 30
0.0
  9
$UCSORGBOTTOM
 10
0.0
 20
0.0
 30
0.0
  9
$UCSORGLEFT
 10
0.0
 20
0.0
 30
0.0
  9
$UCSORGRIGHT
 10
0.0
 20
0.0
 30
0.0
  9
$UCSORGFRONT
 10
0.0
 20
0.0
 30
0.0
  9
$UCSORGBACK
 10
0.0
 20
0.0
 30
0.0
  9
$PUCSBASE
  2

  9
$PUCSNAME
  2

  9
$PUCSORG
 10
0.0
 20
0.0
 30
0.0
  9
$PUCSXDIR
 10
1.0
 20
0.0
 30
0.0
  9
$PUCSYDIR
 10
0.0
 20
1.0
 30
0.0
  9
$PUCSORTHOREF
  2

  9
$PUCSORTHOVIEW
 70
     0
  9
$PUCSORGTOP
 10
0.0
 20
0.0
 30
0.0
  9
$PUCSORGBOTTOM
 10
0.0
 20
0.0
 30
0.0
  9
$PUCSORGLEFT
 10
0.0
 20
0.0
 30
0.0
  9
$PUCSORGRIGHT
 10
0.0
 20
0.0
 30
0.0
  9
$PUCSORGFRONT
 10
0.0
 20
0.0
 30
0.0
  9
$PUCSORGBACK
 10
0.0
 20
0.0
 30
0.0
  9
$USERI1
 70
     0
  9
$USERI2
 70
     0
  9
$USERI3
 70
     0
  9
$USERI4
 70
     0
  9
$USERI5
 70
     0
  9
$USERR1
 40
0.0
  9
$USERR2
 40
0.0
  9
$USERR3
 40
0.0
  9
$USERR4
 40
0.0
  9
$USERR5
 40
0.0
  9
$WORLDVIEW
 70
     1
  9
$SHADEDGE
 70
     3
  9
$SHADEDIF
 70
    70
  9
$TILEMODE
 70
     1
  9
$MAXACTVP
 70
    64
  9
$PINSBASE
 10
0.0
 20
0.0
 30
0.0
  9
$PLIMCHECK
 70
     0
  9
$PEXTMIN
 10
1.0000000000E+20
 20
1.0000000000E+20
 30
1.0000000000E+20
  9
$PEXTMAX
 10
-1.0000000000E+20
 20
-1.0000000000E+20
 30
-1.0000000000E+20
  9
$PLIMMIN
 10
0.0
 20
0.0
  9
$PLIMMAX
 10
420.0
 20
297.0
  9
$UNITMODE
 70
     0
  9
$VISRETAIN
 70
     1
  9
$PLINEGEN
 70
     0
  9
$PSLTSCALE
 70
     1
  9
$TREEDEPTH
 70
  3020
  9
$CMLSTYLE
  2
Standard
  9
$CMLJUST
 70
     0
  9
$CMLSCALE
 40
20.0
  9
$PROXYGRAPHICS
 70
     1
  9
$MEASUREMENT
 70
     1
  9
$CELWEIGHT
370
    -1
  9
$ENDCAPS
280
     0
  9
$JOINSTYLE
280
     0
  9
$LWDISPLAY
290
     1
  9
$INSUNITS
 70
     4
  9
$HYPERLINKBASE
  1

  9
$STYLESHEET
  1

  9
$XEDIT
290
     1
  9
$CEPSNTYPE
380
     0
  9
$PSTYLEMODE
290
     1
  9
$FINGERPRINTGUID
  2
{cb0b9bd1-b580-47c5-adca-0fbe85ccdb0f}
  9
$VERSIONGUID
  2
{FAEB1C32-E019-11D5-929B-00C0DF256EC4}
  9
$EXTNAMES
290
     1
  9
$PSVPSCALE
 40
0.0
  9
$OLESTARTUP
290
     0
  0
ENDSEC
  0
SECTION
  2
CLASSES
  0
CLASS
  1
ACDBDICTIONARYWDFLT
  2
AcDbDictionaryWithDefault
  3
ObjectDBX Classes
 90
        0
280
     0
281
     0
  0
CLASS
  1
VISUALSTYLE
  2
AcDbVisualStyle
  3
ObjectDBX Classes
 90
     4095
280
     0
281
     0
  0
CLASS
  1
MATERIAL
  2
AcDbMaterial
  3
ObjectDBX Classes
 90
     1153
280
     0
281
     0
  0
CLASS
  1
SCALE
  2
AcDbScale
  3
ObjectDBX Classes
 90
     1153
280
     0
281
     0
  0
CLASS
  1
TABLESTYLE
  2
AcDbTableStyle
  3
ObjectDBX Classes
 90
     4095
280
     0
281
     0
  0
CLASS
  1
MLEADERSTYLE
  2
AcDbMLeaderStyle
  3
ACDB_MLEADERSTYLE_CLASS
 90
     4095
280
     0
281
     0
  0
CLASS
  1
SUN
  2
AcDbSun
  3
SCENEOE
 90
     1153
280
     0
281
     0
  0
CLASS
  1
ACDBPLACEHOLDER
  2
AcDbPlaceHolder
  3
ObjectDBX Classes
 90
        0
280
     0
281
     0
  0
CLASS
  1
LAYOUT
  2
AcDbLayout
  3
ObjectDBX Classes
 90
        0
280
     0
281
     0
  0
ENDSEC
  0
SECTION
  2
TABLES
  0
TABLE
  2
VPORT
  5
8
330
0
100
AcDbSymbolTable
 70
     1
  0
VPORT
  5
29
330
8
100
AcDbSymbolTableRecord
100
AcDbViewportTableRecord
  2
*Active
 70
     0
 10
0.0
 20
0.0
 11
1.0
 21
1.0
 12
-0.1229713755
 22
2.0404814469
 13
0.0
 23
0.0
 14
10.0
 24
10.0
 15
10.0
 25
10.0
 16
0.0
 26
0.0
 36
1.0
 17
0.0
 27
0.0
 37
0.0
 40
83.6108360846
 41
1.3299485479
 42
50.0
 43
0.0
 44
0.0
 50
0.0
 51
0.0
 71
     0
 72
   100
 73
     1
 74
     3
 75
     0
 76
     0
 77
     0
 78
     0
281
     0
 65
     1
110
0.0
120
0.0
130
0.0
111
1.0
121
0.0
131
0.0
112
0.0
122
1.0
132
0.0
 79
     0
146
0.0
  0
ENDTAB
  0
TABLE
  2
LTYPE
  5
5
330
0
100
AcDbSymbolTable
 70
     6
  0
LTYPE
  5
14
330
5
100
AcDbSymbolTableRecord
100
AcDbLinetypeTableRecord
  2
ByBlock
 70
     0
  3

 72
    65
 73
     0
 40
0.0
  0
LTYPE
  5
15
330
5
100
AcDbSymbolTableRecord
100
AcDbLinetypeTableRecord
  2
ByLayer
 70
     0
  3

 72
    65
 73
     0
 40
0.0
  0
LTYPE
  5
16
330
5
100
AcDbSymbolTableRecord
100
AcDbLinetypeTableRecord
  2
Continuous
 70
     0
  3
Solid line
 72
    65
 73
     0
 40
0.0
  0
LTYPE
  5
6E
330
5
100
AcDbSymbolTableRecord
100
AcDbLinetypeTableRecord
  2
HIDDEN
 70
     0
  3
Hidden __ __ __ __ __ __ __ __ __ __ __ __ __ __
 72
    65
 73
     2
 40
1.905
 49
1.27
 74
     0
 49
-0.635
 74
     0
  0
LTYPE
  5
6F
330
5
100
AcDbSymbolTableRecord
100
AcDbLinetypeTableRecord
  2
PHANTOM
 70
     0
  3
Phantom ______  __  __  ______  __  __  ______
 72
    65
 73
     6
 40
12.7
 49
6.35
 74
     0
 49
-1.27
 74
     0
 49
1.27
 74
     0
 49
-1.27
 74
     0
 49
1.27
 74
     0
 49
-1.27
 74
     0
  0
LTYPE
  5
70
330
5
100
AcDbSymbolTableRecord
100
AcDbLinetypeTableRecord
  2
CENTER
 70
     0
  3
Center ____ _ ____ _ ____ _ ____ _ ____ _ ____
 72
    65
 73
     4
 40
10.16
 49
6.35
 74
     0
 49
-1.27
 74
     0
 49
1.27
 74
     0
 49
-1.27
 74
     0
  0
LTYPE
  5
71
330
5
100
AcDbSymbolTableRecord
100
AcDbLinetypeTableRecord
  2
CENTERX2
 70
     0
  3
Center (2x) ________  __  ________  __  _____
 72
    65
 73
     4
 40
20.32
 49
12.7
 74
     0
 49
-2.54
 74
     0
 49
2.54
 74
     0
 49
-2.54
 74
     0
  0
LTYPE
  5
72
330
5
100
AcDbSymbolTableRecord
100
AcDbLinetypeTableRecord
  2
DOT2
 70
     0
  3
Dot (.5x) ........................................
 72
    65
 73
     2
 40
0.635
 49
0.0
 74
     0
 49
-0.635
 74
     0
  0
ENDTAB
  0
TABLE
  2
LAYER
  5
2
330
0
100
AcDbSymbolTable
 70
     1
  0
LAYER
  5
10
330
2
100
AcDbSymbolTableRecord
100
AcDbLayerTableRecord
  2
0
 70
     0
 62
     7
  6
Continuous
370
    -3
390
F
  0
ENDTAB
  0
TABLE
  2
STYLE
  5
3
330
0
100
AcDbSymbolTable
 70
     2
  0
STYLE
  5
11
330
3
100
AcDbSymbolTableRecord
100
AcDbTextStyleTableRecord
  2
Standard
 70
     0
 40
0.0
 41
1.0
 50
0.0
 71
     0
 42
3.5
  3
txt
  4

  0
STYLE
  5
1E1
330
3
100
AcDbSymbolTableRecord
100
AcDbTextStyleTableRecord
  2
SLDTEXTSTYLE0
 70
     0
 40
0.0
 41
0.7
 50
0.0
 71
     0
 42
3.5
  3
TXT
  4

  0
ENDTAB
  0
TABLE
  2
VIEW
  5
6
330
0
100
AcDbSymbolTable
 70
     0
  0
ENDTAB
  0
TABLE
  2
UCS
  5
7
330
0
100
AcDbSymbolTable
 70
     0
  0
ENDTAB
  0
TABLE
  2
APPID
  5
9
330
0
100
AcDbSymbolTable
 70
     1
  0
APPID
  5
12
330
9
100
AcDbSymbolTableRecord
100
AcDbRegAppTableRecord
  2
ACAD
 70
     0
  0
ENDTAB
  0
TABLE
  2
DIMSTYLE
  5
A
330
0
100
AcDbSymbolTable
 70
     1
100
AcDbDimStyleTable
  0
DIMSTYLE
105
27
330
A
100
AcDbSymbolTableRecord
100
AcDbDimStyleTableRecord
  2
ISO-25
 70
     0
 41
2.5
 42
0.625
 43
3.75
 44
1.25
 73
     0
 74
     0
 77
     1
 78
     8
140
2.5
141
2.5
143
0.0393700787
147
0.625
171
     3
172
     1
178
     0
271
     2
272
     2
274
     3
278
    44
283
     0
284
     8
340
11
  0
ENDTAB
  0
TABLE
  2
BLOCK_RECORD
  5
1
330
0
100
AcDbSymbolTable
 70
     1
  0
BLOCK_RECORD
  5
1F
330
1
100
AcDbSymbolTableRecord
100
AcDbBlockTableRecord
  2
*Model_Space
340
22
  0
BLOCK_RECORD
  5
1B
330
1
100
AcDbSymbolTableRecord
100
AcDbBlockTableRecord
  2
*Paper_Space
340
1E
  0
BLOCK_RECORD
  5
23
330
1
100
AcDbSymbolTableRecord
100
AcDbBlockTableRecord
  2
*Paper_Space0
340
26
  0
ENDTAB
  0
ENDSEC
  0
SECTION
  2
BLOCKS
  0
BLOCK
  5
20
330
1F
100
AcDbEntity
  8
0
100
AcDbBlockBegin
  2
*Model_Space
 70
     0
 10
0.0
 20
0.0
 30
0.0
  3
*Model_Space
  1

  0
ENDBLK
  5
21
330
1F
100
AcDbEntity
  8
0
100
AcDbBlockEnd
  0
BLOCK
  5
1C
330
1B
100
AcDbEntity
 67
     1
  8
0
100
AcDbBlockBegin
  2
*Paper_Space
 70
     0
 10
0.0
 20
0.0
 30
0.0
  3
*Paper_Space
  1

  0
ENDBLK
  5
1D
330
1B
100
AcDbEntity
 67
     1
  8
0
100
AcDbBlockEnd
  0
BLOCK
  5
24
330
23
100
AcDbEntity
  8
0
100
AcDbBlockBegin
  2
*Paper_Space0
 70
     0
 10
0.0
 20
0.0
 30
0.0
  3
*Paper_Space0
  1

  0
ENDBLK
  5
25
330
23
100
AcDbEntity
  8
0
100
AcDbBlockEnd
  0
ENDSEC
  0
SECTION
  2
ENTITIES
  0
LWPOLYLINE
  5
73
330
1F
100
AcDbEntity
  8
0
  6
Continuous
 62
     7
100
AcDbPolyline
 90
       17
 70
   128
 43
0.0
 10
-2.5198054314
 20
0.0972774792
 10
-2.1732036729
 20
-0.5588243949
 10
-1.505280395
 20
-1.0481783378
 10
-0.6177208622
 20
-1.2962846479
 10
0.3543520325
 20
-1.2653713884
 10
1.2629490026
 20
-0.9601448229
 10
1.9697443961
 20
-0.427072929
 10
2.3671350212
 20
0.2526889295
 10
2.3946217577
 20
0.975653172
 10
2.0480199992
 20
1.6317550461
 10
1.3800967214
 20
2.121108989
 10
0.4925371886
 20
2.3692152991
 10
-0.4795357061
 20
2.3383020396
 10
-1.3881326763
 20
2.033075474
 10
-2.0949280697
 20
1.5000035802
 10
-2.4923186949
 20
0.8202417216
 10
-2.5198054314
 20
0.0972774792
  0
LINE
  5
74
330
1F
100
AcDbEntity
  8
0
  6
Continuous
 62
     7
100
AcDbLine
 10
47.0298232849
 20
33.8680926161
 30
0.0
 11
-35.0321982549
 21
37.4141396439
 31
0.0
  0
LINE
  5
75
330
1F
100
AcDbEntity
  8
0
  6
Continuous
 62
     7
100
AcDbLine
 10
46.8252189186
 20
32.6831255003
 30
0.0
 11
-35.2368026212
 21
36.2291725282
 31
0.0
  0
LINE
  5
76
330
1F
100
AcDbEntity
  8
0
  6
Continuous
 62
     7
100
AcDbLine
 10
-35.2368026212
 20
36.2291725282
 30
0.0
 11
-35.0321982549
 21
37.4141396439
 31
0.0
  0
LINE
  5
77
330
1F
100
AcDbEntity
  8
0
  6
Continuous
 62
     7
100
AcDbLine
 10
47.0298232849
 20
33.8680926161
 30
0.0
 11
46.8252189186
 21
32.6831255003
 31
0.0
  0
LINE
  5
78
330
1F
100
AcDbEntity
  8
0
  6
Continuous
 62
     7
100
AcDbLine
 10
-42.7058612124
 20
-32.9874175266
 30
0.0
 11
30.4578688351
 21
-36.148953431
 31
0.0
  0
LINE
  5
79
330
1F
100
AcDbEntity
  8
0
  6
Continuous
 62
     7
100
AcDbLine
 10
-47.0143414567
 20
-31.9804970728
 30
0.0
 11
-35.3646803502
 21
35.4885680808
 31
0.0
  0
LINE
  5
7A
330
1F
100
AcDbEntity
  8
0
  6
Continuous
 62
     7
100
AcDbLine
 10
35.0476800831
 20
-35.5265441007
 30
0.0
 11
46.6973411896
 21
31.9425210529
 31
0.0
  0
LINE
  5
7B
330
1F
100
AcDbEntity
  8
0
  6
Continuous
 62
     7
100
AcDbLine
 10
-41.6200012784
 20
33.2966418077
 30
0.0
 11
-52.2210650076
 21
-28.0994668776
 31
0.0
  0
LINE
  5
7C
330
1F
100
AcDbEntity
  8
0
  6
Continuous
 62
     7
100
AcDbLine
 10
41.4948176047
 20
-32.2237111566
 30
0.0
 11
52.1086691068
 21
29.2464579735
 31
0.0
  0
LINE
  5
7D
330
1F
100
AcDbEntity
  8
0
  6
Continuous
 62
     7
100
AcDbLine
 10
41.5076053776
 20
-32.1496507118
 30
0.0
 11
41.4087354722
 21
-32.145378366
 31
0.0
  0
LINE
  5
7E
330
1F
100
AcDbEntity
  8
0
  6
CENTERX2
 62
     7
100
AcDbLine
 10
-44.4298576304
 20
31.4452922944
 30
0.0
 11
54.2423080282
 21
27.1814911693
 31
0.0
  0
LINE
  5
7F
330
1F
100
AcDbEntity
  8
0
  6
CENTERX2
 62
     7
100
AcDbLine
 10
-0.731156962
 20
-3.3355326302
 30
0.0
 11
7.2739680868
 21
43.02618541
 31
0.0
  0
LINE
  5
80
330
1F
100
AcDbEntity
  8
0
  6
CENTERX2
 62
     7
100
AcDbLine
 10
-44.6247432894
 20
30.3166111166
 30
0.0
 11
54.0474223693
 21
26.0528099915
 31
0.0
  0
LINE
  5
81
330
1F
100
AcDbEntity
  8
0
  6
CENTERX2
 62
     7
100
AcDbLine
 10
-34.7659637721
 20
30.4591468523
 30
0.0
 11
11.2561276768
 21
28.4704497968
 31
0.0
  0
LINE
  5
82
330
1F
100
AcDbEntity
  8
0
  6
CENTERX2
 62
     7
100
AcDbLine
 10
-21.5226251716
 20
37.7763834404
 30
0.0
 11
-23.3721224888
 21
27.0650113362
 31
0.0
  0
LINE
  5
83
330
1F
100
AcDbEntity
  8
0
  6
Continuous
 62
     7
100
AcDbLine
 10
-28.7691557811
 20
29.8023265955
 30
0.0
 11
-28.8016367242
 21
29.6142130659
 31
0.0
  0
LINE
  5
84
330
1F
100
AcDbEntity
  8
0
  6
Continuous
 62
     7
100
AcDbLine
 10
-28.6067510653
 20
30.7428942436
 30
0.0
 11
-28.6392320085
 21
30.554780714
 31
0.0
  0
LINE
  5
85
330
1F
100
AcDbEntity
  8
0
  6
Continuous
 62
     7
100
AcDbLine
 10
-28.798439781
 20
29.632728177
 30
0.0
 11
-28.6035541221
 21
30.7614093548
 31
0.0
  0
LINE
  5
86
330
1F
100
AcDbEntity
  8
0
  6
Continuous
 62
     7
100
AcDbLine
 10
-28.6035541221
 20
30.7614093548
 30
0.0
 11
-4.3946645484
 21
29.7152998475
 31
0.0
  0
LINE
  5
87
330
1F
100
AcDbEntity
  8
0
  6
Continuous
 62
     7
100
AcDbLine
 10
-4.5895502073
 20
28.5866186697
 30
0.0
 11
-28.798439781
 21
29.632728177
 31
0.0
  0
LINE
  5
88
330
1F
100
AcDbEntity
  8
0
  6
Continuous
 62
     7
100
AcDbLine
 10
-4.3946645484
 20
29.7152998475
 30
0.0
 11
-4.5895502073
 21
28.5866186697
 31
0.0
  0
LINE
  5
89
330
1F
100
AcDbEntity
  8
0
  6
CENTERX2
 62
     7
100
AcDbLine
 10
-28.6035541221
 20
30.7614093548
 30
0.0
 11
-4.5895502073
 21
28.5866186697
 31
0.0
  0
LINE
  5
8A
330
1F
100
AcDbEntity
  8
0
  6
CENTERX2
 62
     7
100
AcDbLine
 10
-4.3946645484
 20
29.7152998475
 30
0.0
 11
-28.798439781
 21
29.632728177
 31
0.0
  0
LINE
  5
8B
330
1F
100
AcDbEntity
  8
0
  6
CENTERX2
 62
     7
100
AcDbLine
 10
-36.5721759076
 20
5.0645001692
 30
0.0
 11
-37.9494190483
 21
-2.9118097288
 31
0.0
  0
LINE
  5
8C
330
1F
100
AcDbEntity
  8
0
  6
CENTERX2
 62
     7
100
AcDbLine
 10
38.074602722
 20
1.8388790776
 30
0.0
 11
36.6973595813
 21
-6.1374308204
 31
0.0
  0
LINE
  5
8D
330
1F
100
AcDbEntity
  8
0
  6
CENTERX2
 62
     7
100
AcDbLine
 10
37.3859811516
 20
-2.1492758714
 30
0.0
 11
-37.260797478
 21
1.0763452202
 31
0.0
  0
LINE
  5
8E
330
1F
100
AcDbEntity
  8
0
  6
CENTERX2
 62
     7
100
AcDbLine
 10
-0.4341683052
 20
27.6514183841
 30
0.0
 11
10.2141205139
 21
27.1912867397
 31
0.0
  0
LINE
  5
8F
330
1F
100
AcDbEntity
  8
0
  6
CENTERX2
 62
     7
100
AcDbLine
 10
-10.0889368402
 20
-28.2642173908
 30
0.0
 11
0.5593519789
 21
-28.7243490353
 31
0.0
  0
LINE
  5
90
330
1F
100
AcDbEntity
  8
0
  6
CENTERX2
 62
     7
100
AcDbLine
 10
-4.7647924307
 20
-28.4942832131
 30
0.0
 11
4.8899761043
 21
27.4213525619
 31
0.0
  0
LINE
  5
91
330
1F
100
AcDbEntity
  8
0
  6
CENTERX2
 62
     7
100
AcDbLine
 10
0.0625918368
 20
-0.5364653256
 30
0.0
 11
42.2133654191
 21
25.8085420161
 31
0.0
  0
LINE
  5
92
330
1F
100
AcDbEntity
  8
0
  6
CENTERX2
 62
     7
100
AcDbLine
 10
0.0625918368
 20
-0.5364653256
 30
0.0
 11
-42.0881817455
 21
-26.8814726672
 31
0.0
  0
LINE
  5
93
330
1F
100
AcDbEntity
  8
0
  6
CENTERX2
 62
     7
100
AcDbLine
 10
0.0625918368
 20
-0.5364653256
 30
0.0
 11
32.5585968841
 21
-30.1070937589
 31
0.0
  0
LINE
  5
94
330
1F
100
AcDbEntity
  8
0
  6
CENTERX2
 62
     7
100
AcDbLine
 10
0.0625918368
 20
-0.5364653256
 30
0.0
 11
-32.4334132104
 21
29.0341631077
 31
0.0
  0
LINE
  5
95
330
1F
100
AcDbEntity
  8
0
  6
Continuous
 62
     7
100
AcDbLine
 10
10.4310195469
 20
24.495845243
 30
0.0
 11
-1.5717869771
 21
25.0145080251
 31
0.0
  0
LINE
  5
96
330
1F
100
AcDbEntity
  8
0
  6
Continuous
 62
     7
100
AcDbLine
 10
-34.4776988067
 20
-3.5729282269
 30
0.0
 11
-32.9252631774
 21
5.4180097639
 31
0.0
  0
LINE
  5
97
330
1F
100
AcDbEntity
  8
0
  6
Continuous
 62
     7
100
AcDbLine
 10
1.6969706507
 20
-26.0874386763
 30
0.0
 11
-10.3058358733
 21
-25.5687758942
 31
0.0
  0
LINE
  5
98
330
1F
100
AcDbEntity
  8
0
  6
Continuous
 62
     7
100
AcDbLine
 10
33.050446851
 20
-6.4909404151
 30
0.0
 11
34.6028824804
 21
2.4999975757
 31
0.0
  0
LINE
  5
99
330
1F
100
AcDbEntity
  8
0
  6
CENTERX2
 62
     7
100
AcDbLine
 10
-30.226783824
 20
27.0261803547
 30
0.0
 11
39.351132492
 21
24.0195938884
 31
0.0
  0
LINE
  5
9A
330
1F
100
AcDbEntity
  8
0
  6
Continuous
 62
     7
100
AcDbLine
 10
1.3844231965
 20
24.8867648852
 30
0.0
 11
1.1866833855
 21
24.8953095768
 31
0.0
  0
LINE
  5
9B
330
1F
100
AcDbEntity
  8
0
  6
Continuous
 62
     7
100
AcDbLine
 10
5.1513665949
 20
24.7239885096
 30
0.0
 11
4.9536267839
 21
24.7325332012
 31
0.0
  0
LINE
  5
9C
330
1F
100
AcDbEntity
  8
0
  6
Continuous
 62
     7
100
AcDbLine
 10
7.6626621938
 20
24.6154709258
 30
0.0
 11
7.4649223829
 21
24.6240156175
 31
0.0
  0
LINE
  5
9D
330
1F
100
AcDbEntity
  8
0
  6
Continuous
 62
     7
100
AcDbLine
 10
-1.5717869771
 20
25.0145080251
 30
0.0
 11
-0.7808277333
 21
24.9803292586
 31
0.0
  0
LINE
  5
9E
330
1F
100
AcDbEntity
  8
0
  6
Continuous
 62
     7
100
AcDbLine
 10
9.6400603032
 20
24.5300240095
 30
0.0
 11
10.4310195469
 21
24.495845243
 31
0.0
  0
LINE
  5
9F
330
1F
100
AcDbEntity
  8
0
  6
Continuous
 62
     7
100
AcDbLine
 10
-33.0275653605
 20
4.825526206
 30
0.0
 11
-32.9252631774
 21
5.4180097639
 31
0.0
  0
LINE
  5
A0
330
1F
100
AcDbEntity
  8
0
  6
Continuous
 62
     7
100
AcDbLine
 10
-33.4457255342
 20
2.4037496632
 30
0.0
 11
-33.4713010799
 21
2.2556287737
 31
0.0
  0
LINE
  5
A1
330
1F
100
AcDbEntity
  8
0
  6
Continuous
 62
     7
100
AcDbLine
 10
-34.0953443972
 20
-1.3585209293
 30
0.0
 11
-34.120919943
 21
-1.5066418188
 31
0.0
  0
LINE
  5
A2
330
1F
100
AcDbEntity
  8
0
  6
Continuous
 62
     7
100
AcDbLine
 10
-34.4776988067
 20
-3.5729282269
 30
0.0
 11
-34.3753966236
 21
-2.980444669
 31
0.0
  0
LINE
  5
A3
330
1F
100
AcDbEntity
  8
0
  6
Continuous
 62
     7
100
AcDbLine
 10
-7.5374785201
 20
-25.688401577
 30
0.0
 11
-7.3397387092
 21
-25.6969462687
 31
0.0
  0
LINE
  5
A4
330
1F
100
AcDbEntity
  8
0
  6
Continuous
 62
     7
100
AcDbLine
 10
-9.5148766295
 20
-25.6029546607
 30
0.0
 11
-10.3058358733
 21
-25.5687758942
 31
0.0
  0
LINE
  5
A5
330
1F
100
AcDbEntity
  8
0
  6
Continuous
 62
     7
100
AcDbLine
 10
1.6969706507
 20
-26.0874386763
 30
0.0
 11
0.906011407
 21
-26.0532599098
 31
0.0
  0
LINE
  5
A6
330
1F
100
AcDbEntity
  8
0
  6
Continuous
 62
     7
100
AcDbLine
 10
-1.2592395228
 20
-25.9596955364
 30
0.0
 11
-1.0614997119
 21
-25.968240228
 31
0.0
  0
LINE
  5
A7
330
1F
100
AcDbEntity
  8
0
  6
Continuous
 62
     7
100
AcDbLine
 10
33.1527490342
 20
-5.8984568572
 30
0.0
 11
33.050446851
 21
-6.4909404151
 31
0.0
  0
LINE
  5
A8
330
1F
100
AcDbEntity
  8
0
  6
Continuous
 62
     7
100
AcDbLine
 10
33.4085044921
 20
-4.4172479625
 30
0.0
 11
33.4340800378
 21
-4.2691270731
 31
0.0
  0
LINE
  5
A9
330
1F
100
AcDbEntity
  8
0
  6
Continuous
 62
     7
100
AcDbLine
 10
34.2205280708
 20
0.2855902781
 30
0.0
 11
34.2461036166
 21
0.4337111676
 31
0.0
  0
LINE
  5
AA
330
1F
100
AcDbEntity
  8
0
  6
Continuous
 62
     7
100
AcDbLine
 10
34.6028824804
 20
2.4999975757
 30
0.0
 11
34.5005802972
 21
1.9075140178
 31
0.0
  0
LINE
  5
AB
330
1F
100
AcDbEntity
  8
0
  6
Continuous
 62
     7
100
AcDbLine
 10
33.1365289836
 20
-6.5692732057
 30
0.0
 11
34.1252280383
 21
-6.6119966638
 31
0.0
  0
LINE
  5
AC
330
1F
100
AcDbEntity
  8
0
  6
Continuous
 62
     7
100
AcDbLine
 10
35.7032392134
 20
2.5270622165
 30
0.0
 11
34.7145401587
 21
2.5697856746
 31
0.0
  0
LINE
  5
AD
330
1F
100
AcDbEntity
  8
0
  6
Continuous
 62
     7
100
AcDbLine
 10
-10.4174935517
 20
-25.6385639931
 30
0.0
 11
-10.5453712806
 21
-26.3791684404
 31
0.0
  0
LINE
  5
AE
330
1F
100
AcDbEntity
  8
0
  6
Continuous
 62
     7
100
AcDbLine
 10
1.6551750544
 20
-26.9063759142
 30
0.0
 11
1.7830527833
 21
-26.1657714669
 31
0.0
  0
LINE
  5
AF
330
1F
100
AcDbEntity
  8
0
  6
Continuous
 62
     7
100
AcDbLine
 10
-38.9435396381
 20
5.7526833035
 30
0.0
 11
-39.9322386928
 21
5.7954067616
 31
0.0
  0
LINE
  5
B0
330
1F
100
AcDbEntity
  8
0
  6
Continuous
 62
     7
100
AcDbLine
 10
-33.0113453099
 20
5.4963425545
 30
0.0
 11
-34.0000443646
 21
5.5390660126
 31
0.0
  0
LINE
  5
B1
330
1F
100
AcDbEntity
  8
0
  6
Continuous
 62
     7
100
AcDbLine
 10
-41.5102498679
 20
-3.3436521187
 30
0.0
 11
-40.5215508132
 21
-3.3863755768
 31
0.0
  0
LINE
  5
B2
330
1F
100
AcDbEntity
  8
0
  6
Continuous
 62
     7
100
AcDbLine
 10
-35.5780555398
 20
-3.5999928677
 30
0.0
 11
-34.5893564851
 21
-3.6427163258
 31
0.0
  0
LINE
  5
B3
330
1F
100
AcDbEntity
  8
0
  6
Continuous
 62
     7
100
AcDbLine
 10
-1.5299913807
 20
25.833445263
 30
0.0
 11
-1.6578691096
 21
25.0928408157
 31
0.0
  0
LINE
  5
B4
330
1F
100
AcDbEntity
  8
0
  6
Continuous
 62
     7
100
AcDbLine
 10
10.5426772253
 20
24.5656333419
 30
0.0
 11
10.6705549543
 21
25.3062377892
 31
0.0
  0
LINE
  5
B5
330
1F
100
AcDbEntity
  8
0
  6
CENTERX2
 62
     7
100
AcDbLine
 10
-30.226783824
 20
27.0261803547
 30
0.0
 11
-39.2259488183
 21
-25.0925245396
 31
0.0
  0
LINE
  5
B6
330
1F
100
AcDbEntity
  8
0
  6
CENTERX2
 62
     7
100
AcDbLine
 10
-39.2259488183
 20
-25.0925245396
 30
0.0
 11
30.3519674977
 21
-28.0991110059
 31
0.0
  0
LINE
  5
B7
330
1F
100
AcDbEntity
  8
0
  6
CENTERX2
 62
     7
100
AcDbLine
 10
39.351132492
 20
24.0195938884
 30
0.0
 11
30.3519674977
 21
-28.0991110059
 31
0.0
  0
LINE
  5
B8
330
1F
100
AcDbEntity
  8
0
  6
CENTERX2
 62
     7
100
AcDbLine
 10
-30.226783824
 20
27.0261803547
 30
0.0
 11
30.3519674977
 21
-28.0991110059
 31
0.0
  0
LINE
  5
B9
330
1F
100
AcDbEntity
  8
0
  6
CENTERX2
 62
     7
100
AcDbLine
 10
-39.2259488183
 20
-25.0925245396
 30
0.0
 11
39.351132492
 21
24.0195938884
 31
0.0
  0
LINE
  5
BA
330
1F
100
AcDbEntity
  8
0
  6
CENTERX2
 62
     7
100
AcDbLine
 10
-36.4688364359
 20
27.2959106355
 30
0.0
 11
39.351132492
 21
24.0195938884
 31
0.0
  0
LINE
  5
BB
330
1F
100
AcDbEntity
  8
0
  6
Continuous
 62
     7
100
AcDbLine
 10
-35.5780555398
 20
-3.5999928677
 30
0.0
 11
-40.5215508132
 21
-3.3863755768
 31
0.0
  0
LINE
  5
BC
330
1F
100
AcDbEntity
  8
0
  6
Continuous
 62
     7
100
AcDbLine
 10
-41.5102498679
 20
-3.3436521187
 30
0.0
 11
-41.7574245219
 21
-3.3329712589
 31
0.0
  0
LINE
  5
BD
330
1F
100
AcDbEntity
  8
0
  6
Continuous
 62
     7
100
AcDbLine
 10
-41.7574245219
 20
-3.3329712589
 30
0.0
 11
-40.1794133467
 21
5.8060876214
 31
0.0
  0
LINE
  5
BE
330
1F
100
AcDbEntity
  8
0
  6
Continuous
 62
     7
100
AcDbLine
 10
-40.1794133467
 20
5.8060876214
 30
0.0
 11
-39.9322386928
 21
5.7954067616
 31
0.0
  0
LINE
  5
BF
330
1F
100
AcDbEntity
  8
0
  6
Continuous
 62
     7
100
AcDbLine
 10
-38.9435396381
 20
5.7526833035
 30
0.0
 11
-34.0000443646
 21
5.5390660126
 31
0.0
  0
LINE
  5
C0
330
1F
100
AcDbEntity
  8
0
  6
Continuous
 62
     7
100
AcDbLine
 10
-34.5893564851
 20
-3.6427163258
 30
0.0
 11
-34.4904865796
 21
-3.6469886716
 31
0.0
  0
LINE
  5
C1
330
1F
100
AcDbEntity
  8
0
  6
Continuous
 62
     7
100
AcDbLine
 10
-34.4904865796
 20
-3.6469886716
 30
0.0
 11
-34.4776988067
 21
-3.5729282269
 31
0.0
  0
LINE
  5
C2
330
1F
100
AcDbEntity
  8
0
  6
Continuous
 62
     7
100
AcDbLine
 10
-32.9252631774
 20
5.4180097639
 30
0.0
 11
-32.9124754045
 21
5.4920702087
 31
0.0
  0
LINE
  5
C3
330
1F
100
AcDbEntity
  8
0
  6
Continuous
 62
     7
100
AcDbLine
 10
-32.9124754045
 20
5.4920702087
 30
0.0
 11
-33.0113453099
 21
5.4963425545
 31
0.0
  0
LINE
  5
C4
330
1F
100
AcDbEntity
  8
0
  6
Continuous
 62
     7
100
AcDbLine
 10
1.6551750544
 20
-26.9063759142
 30
0.0
 11
0.1014606619
 21
-35.9047198673
 31
0.0
  0
LINE
  5
C5
330
1F
100
AcDbEntity
  8
0
  6
Continuous
 62
     7
100
AcDbLine
 10
0.1014606619
 20
-35.9047198673
 30
0.0
 11
-12.099085673
 21
-35.3775123935
 31
0.0
  0
LINE
  5
C6
330
1F
100
AcDbEntity
  8
0
  6
Continuous
 62
     7
100
AcDbLine
 10
-12.099085673
 20
-35.3775123935
 30
0.0
 11
-10.5453712806
 21
-26.3791684404
 31
0.0
  0
LINE
  5
C7
330
1F
100
AcDbEntity
  8
0
  6
Continuous
 62
     7
100
AcDbLine
 10
-10.4174935517
 20
-25.6385639931
 30
0.0
 11
-10.4047057788
 21
-25.5645035483
 31
0.0
  0
LINE
  5
C8
330
1F
100
AcDbEntity
  8
0
  6
Continuous
 62
     7
100
AcDbLine
 10
-10.4047057788
 20
-25.5645035483
 30
0.0
 11
-10.3058358733
 21
-25.5687758942
 31
0.0
  0
LINE
  5
C9
330
1F
100
AcDbEntity
  8
0
  6
Continuous
 62
     7
100
AcDbLine
 10
1.6969706507
 20
-26.0874386763
 30
0.0
 11
1.7958405562
 21
-26.0917110221
 31
0.0
  0
LINE
  5
CA
330
1F
100
AcDbEntity
  8
0
  6
Continuous
 62
     7
100
AcDbLine
 10
1.7958405562
 20
-26.0917110221
 30
0.0
 11
1.7830527833
 21
-26.1657714669
 31
0.0
  0
LINE
  5
CB
330
1F
100
AcDbEntity
  8
0
  6
Continuous
 62
     7
100
AcDbLine
 10
34.1252280383
 20
-6.6119966638
 30
0.0
 11
46.1379214431
 21
-7.1310866758
 31
0.0
  0
LINE
  5
CC
330
1F
100
AcDbEntity
  8
0
  6
Continuous
 62
     7
100
AcDbLine
 10
46.1379214431
 20
-7.1310866758
 30
0.0
 11
47.7159326182
 21
2.0079722045
 31
0.0
  0
LINE
  5
CD
330
1F
100
AcDbEntity
  8
0
  6
Continuous
 62
     7
100
AcDbLine
 10
47.7159326182
 20
2.0079722045
 30
0.0
 11
35.7032392134
 21
2.5270622165
 31
0.0
  0
LINE
  5
CE
330
1F
100
AcDbEntity
  8
0
  6
Continuous
 62
     7
100
AcDbLine
 10
34.7145401587
 20
2.5697856746
 30
0.0
 11
34.6156702533
 21
2.5740580205
 31
0.0
  0
LINE
  5
CF
330
1F
100
AcDbEntity
  8
0
  6
Continuous
 62
     7
100
AcDbLine
 10
34.6156702533
 20
2.5740580205
 30
0.0
 11
34.6028824804
 21
2.4999975757
 31
0.0
  0
LINE
  5
D0
330
1F
100
AcDbEntity
  8
0
  6
Continuous
 62
     7
100
AcDbLine
 10
33.050446851
 20
-6.4909404151
 30
0.0
 11
33.0376590781
 21
-6.5650008598
 31
0.0
  0
LINE
  5
D1
330
1F
100
AcDbEntity
  8
0
  6
Continuous
 62
     7
100
AcDbLine
 10
33.0376590781
 20
-6.5650008598
 30
0.0
 11
33.1365289836
 21
-6.5692732057
 31
0.0
  0
LINE
  5
D2
330
1F
100
AcDbEntity
  8
0
  6
Continuous
 62
     7
100
AcDbLine
 10
10.6705549543
 20
25.3062377892
 30
0.0
 11
11.1316820306
 21
27.9768573442
 31
0.0
  0
LINE
  5
D3
330
1F
100
AcDbEntity
  8
0
  6
Continuous
 62
     7
100
AcDbLine
 10
11.1316820306
 20
27.9768573442
 30
0.0
 11
-1.0688643043
 21
28.5040648179
 31
0.0
  0
LINE
  5
D4
330
1F
100
AcDbEntity
  8
0
  6
Continuous
 62
     7
100
AcDbLine
 10
-1.0688643043
 20
28.5040648179
 30
0.0
 11
-1.5299913807
 21
25.833445263
 31
0.0
  0
LINE
  5
D5
330
1F
100
AcDbEntity
  8
0
  6
Continuous
 62
     7
100
AcDbLine
 10
-1.6578691096
 20
25.0928408157
 30
0.0
 11
-1.6706568825
 21
25.0187803709
 31
0.0
  0
LINE
  5
D6
330
1F
100
AcDbEntity
  8
0
  6
Continuous
 62
     7
100
AcDbLine
 10
-1.6706568825
 20
25.0187803709
 30
0.0
 11
-1.5717869771
 21
25.0145080251
 31
0.0
  0
LINE
  5
D7
330
1F
100
AcDbEntity
  8
0
  6
Continuous
 62
     7
100
AcDbLine
 10
10.4310195469
 20
24.495845243
 30
0.0
 11
10.5298894524
 21
24.4915728972
 31
0.0
  0
LINE
  5
D8
330
1F
100
AcDbEntity
  8
0
  6
Continuous
 62
     7
100
AcDbLine
 10
10.5298894524
 20
24.4915728972
 30
0.0
 11
10.5426772253
 21
24.5656333419
 31
0.0
  0
LINE
  5
D9
330
1F
100
AcDbEntity
  8
0
  6
Continuous
 62
     7
100
AcDbLine
 10
39.3698189041
 20
24.018786415
 30
0.0
 11
40.1216288321
 21
23.9862993606
 31
0.0
  0
LINE
  5
DA
330
1F
100
AcDbEntity
  8
0
  6
Continuous
 62
     7
100
AcDbLine
 10
39.5516460972
 20
25.0722250368
 30
0.0
 11
37.1660474553
 21
25.1753110297
 31
0.0
  0
LINE
  5
DB
330
1F
100
AcDbEntity
  8
0
  6
CENTERX2
 62
     7
100
AcDbLine
 10
-36.4688364359
 20
27.2959106355
 30
0.0
 11
-46.2753446841
 21
-29.4985263767
 31
0.0
  0
LINE
  5
DC
330
1F
100
AcDbEntity
  8
0
  6
CENTERX2
 62
     7
100
AcDbLine
 10
-46.2753446841
 20
-29.4985263767
 30
0.0
 11
29.5446242438
 21
-32.7748431238
 31
0.0
  0
LINE
  5
DD
330
1F
100
AcDbEntity
  8
0
  6
CENTERX2
 62
     7
100
AcDbLine
 10
39.351132492
 20
24.0195938884
 30
0.0
 11
29.5446242438
 21
-32.7748431238
 31
0.0
  0
LINE
  5
DE
330
1F
100
AcDbEntity
  8
0
  6
CENTERX2
 62
     7
100
AcDbLine
 10
39.351132492
 20
24.0195938884
 30
0.0
 11
-46.2753446841
 21
-29.4985263767
 31
0.0
  0
POINT
  5
DF
330
1F
100
AcDbEntity
  8
0
  6
Continuous
 62
     7
100
AcDbPoint
 10
4.8087823694
 20
28.7490511429
 30
0.0
  0
POINT
  5
E0
330
1F
100
AcDbEntity
  8
0
  6
Continuous
 62
     7
100
AcDbPoint
 10
-22.8747911621
 20
29.9453079716
 30
0.0
  0
POINT
  5
E1
330
1F
100
AcDbEntity
  8
0
  6
Continuous
 62
     7
100
AcDbPoint
 10
-16.5965521647
 20
29.6740140123
 30
0.0
  0
POINT
  5
E2
330
1F
100
AcDbEntity
  8
0
  6
Continuous
 62
     7
100
AcDbPoint
 10
0.0625918368
 20
-0.5364653256
 30
0.0
  0
POINT
  5
E3
330
1F
100
AcDbEntity
  8
0
  6
Continuous
 62
     7
100
AcDbPoint
 10
0.0625918368
 20
-0.5364653256
 30
0.0
  0
LWPOLYLINE
  5
F0
330
1F
100
AcDbEntity
  8
0
  6
Continuous
 62
     7
370
    25
100
AcDbPolyline
 90
        9
 70
   128
 43
0.0
 10
23.5005252249
 20
31.8257016359
 10
23.503500291
 20
31.8983544756
 10
23.4873634519
 20
31.9690362266
 10
23.4527348373
 20
32.0350306291
 10
23.4009452053
 20
32.0938015549
 10
23.3339848025
 20
32.1430904705
 10
23.2544268797
 20
32.1810032304
 10
23.1653288032
 20
32.2060828686
 10
23.0701145621
 20
32.2173655886
  0
LWPOLYLINE
  5
F2
330
1F
100
AcDbEntity
  8
0
  6
Continuous
 62
     7
370
    25
100
AcDbPolyline
 90
        9
 70
   128
 43
0.0
 10
23.6751804299
 20
29.9528287884
 10
23.5799661888
 20
29.9641115084
 10
23.4908681123
 20
29.9891911466
 10
23.4113101894
 20
30.0271039065
 10
23.3443497867
 20
30.0763928221
 10
23.2925601547
 20
30.135163748
 10
23.2579315401
 20
30.2011581504
 10
23.2417947009
 20
30.2718399015
 10
23.244769767
 20
30.3444927412
  0
LWPOLYLINE
  5
F5
330
1F
100
AcDbEntity
  8
0
  6
Continuous
 62
     7
370
    25
100
AcDbPolyline
 90
        9
 70
   128
 43
0.0
 10
25.2914302761
 20
26.7492405883
 10
25.196216035
 20
26.7605233083
 10
25.1071179584
 20
26.7856029465
 10
25.0275600356
 20
26.8235157065
 10
24.9605996329
 20
26.872804622
 10
24.9088100009
 20
26.9315755479
 10
24.8741813862
 20
26.9975699503
 10
24.8580445471
 20
27.0682517014
 10
24.8610196132
 20
27.1409045411
  0
LWPOLYLINE
  5
FB
330
1F
100
AcDbEntity
  8
0
  6
Continuous
 62
     7
370
    25
100
AcDbPolyline
 90
        9
 70
   128
 43
0.0
 10
31.2236246043
 20
26.4928998393
 10
31.1284103632
 20
26.5041825593
 10
31.0393122866
 20
26.5292621975
 10
30.9597543638
 20
26.5671749575
 10
30.892793961
 20
26.616463873
 10
30.8410043291
 20
26.6752347989
 10
30.8063757144
 20
26.7412292013
 10
30.7902388753
 20
26.8119109524
 10
30.7932139414
 20
26.8845637921
  0
LWPOLYLINE
  5
101
330
1F
100
AcDbEntity
  8
0
  6
Continuous
 62
     7
370
    25
100
AcDbPolyline
 90
        9
 70
   128
 43
0.0
 10
37.1558189325
 20
26.2365590903
 10
37.0606046913
 20
26.2478418103
 10
36.9715066148
 20
26.2729214485
 10
36.891948692
 20
26.3108342085
 10
36.8249882892
 20
26.360123124
 10
36.7731986573
 20
26.4188940499
 10
36.7385700426
 20
26.4848884523
 10
36.7224332035
 20
26.5555702034
 10
36.7254082696
 20
26.6282230431
  0
LWPOLYLINE
  5
118
330
1F
100
AcDbEntity
  8
0
  6
Continuous
 62
     7
370
    25
100
AcDbPolyline
 90
        9
 70
   128
 43
0.0
 10
-40.3909991281
 20
-34.5797074126
 10
-40.3939741942
 20
-34.6523602523
 10
-40.3778373551
 20
-34.7230420033
 10
-40.3432087404
 20
-34.7890364057
 10
-40.2914191084
 20
-34.8478073316
 10
-40.2244587057
 20
-34.8970962472
 10
-40.1449007828
 20
-34.9350090071
 10
-40.0558027063
 20
-34.9600886453
 10
-39.9605884652
 20
-34.9713713653
  0
LWPOLYLINE
  5
11A
330
1F
100
AcDbEntity
  8
0
  6
Continuous
 62
     7
370
    25
100
AcDbPolyline
 90
        9
 70
   128
 43
0.0
 10
-40.4889276957
 20
-32.2624718967
 10
-40.3937134546
 20
-32.2737546167
 10
-40.304615378
 20
-32.2988342549
 10
-40.2250574552
 20
-32.3367470148
 10
-40.1580970524
 20
-32.3860359304
 10
-40.1063074205
 20
-32.4448068563
 10
-40.0716788058
 20
-32.5108012587
 10
-40.0555419667
 20
-32.5814830098
 10
-40.0585170328
 20
-32.6541358494
  0
LWPOLYLINE
  5
11C
330
1F
100
AcDbEntity
  8
0
  6
Continuous
 62
     7
370
    25
100
AcDbPolyline
 90
        9
 70
   128
 43
0.0
 10
-52.5365522512
 20
-31.3688073105
 10
-52.5395273174
 20
-31.4414601502
 10
-52.5233904782
 20
-31.5121419012
 10
-52.4887618636
 20
-31.5781363036
 10
-52.4369722316
 20
-31.6369072295
 10
-52.3700118289
 20
-31.6861961451
 10
-52.290453906
 20
-31.724108905
 10
-52.2013558295
 20
-31.7491885432
 10
-52.1061415884
 20
-31.7604712632
  0
LWPOLYLINE
  5
11E
330
1F
100
AcDbEntity
  8
0
  6
Continuous
 62
     7
370
    25
100
AcDbPolyline
 90
        9
 70
   128
 43
0.0
 10
-52.4682397713
 20
-28.088786013
 10
-52.3730255301
 20
-28.100068733
 10
-52.2839274536
 20
-28.1251483712
 10
-52.2043695308
 20
-28.1630611312
 10
-52.137409128
 20
-28.2123500468
 10
-52.085619496
 20
-28.2711209726
 10
-52.0509908814
 20
-28.337115375
 10
-52.0348540423
 20
-28.4077971261
 10
-52.0378291084
 20
-28.4804499658
  0
LWPOLYLINE
  5
120
330
1F
100
AcDbEntity
  8
0
  6
Continuous
 62
     7
370
    25
100
AcDbPolyline
 90
        9
 70
   128
 43
0.0
 10
-54.6288737799
 20
-27.6223560085
 10
-54.631848846
 20
-27.6950088482
 10
-54.6157120068
 20
-27.7656905993
 10
-54.5810833922
 20
-27.8316850017
 10
-54.5292937602
 20
-27.8904559275
 10
-54.4623333575
 20
-27.9397448431
 10
-54.3827754346
 20
-27.9776576031
 10
-54.2936773581
 20
-28.0027372413
 10
-54.198463117
 20
-28.0140199613
  0
LWPOLYLINE
  5
122
330
1F
100
AcDbEntity
  8
0
  6
Continuous
 62
     7
370
    25
100
AcDbPolyline
 90
       17
 70
   128
 43
0.0
 10
39.8259928357
 20
26.240556934
 10
39.763897978
 20
26.2341528385
 10
39.7081415836
 20
26.2106836583
 10
39.6672120579
 20
26.1737223633
 10
39.6473405503
 20
26.1288959757
 10
39.6515523177
 20
26.0830289067
 10
39.6792061566
 20
26.0431040017
 10
39.7260920208
 20
26.0151994655
 10
39.7850719624
 20
26.0035635109
 10
39.8471668201
 20
26.0099676064
 10
39.9029232145
 20
26.0334367866
 10
39.9438527402
 20
26.0703980816
 10
39.9637242478
 20
26.1152244691
 10
39.9595124804
 20
26.1610915382
 10
39.9318586415
 20
26.2010164432
 10
39.8849727773
 20
26.2289209794
 10
39.8259928357
 20
26.240556934
  0
LWPOLYLINE
  5
123
330
1F
100
AcDbEntity
  8
0
  6
Continuous
 62
     7
370
    25
100
AcDbPolyline
 90
       17
 70
   128
 43
0.0
 10
36.6819298417
 20
26.376417531
 10
36.6198349841
 20
26.3700134354
 10
36.5640785896
 20
26.3465442552
 10
36.523149064
 20
26.3095829603
 10
36.5032775564
 20
26.2647565727
 10
36.5074893237
 20
26.2188895037
 10
36.5351431626
 20
26.1789645986
 10
36.5820290268
 20
26.1510600625
 10
36.6410089685
 20
26.1394241078
 10
36.7031038261
 20
26.1458282034
 10
36.7588602206
 20
26.1692973836
 10
36.7997897463
 20
26.2062586785
 10
36.8196612539
 20
26.2510850661
 10
36.8154494865
 20
26.2969521351
 10
36.7877956476
 20
26.3368770402
 10
36.7409097834
 20
26.3647815764
 10
36.6819298417
 20
26.376417531
  0
LWPOLYLINE
  5
124
330
1F
100
AcDbEntity
  8
0
  6
Continuous
 62
     7
370
    25
100
AcDbPolyline
 90
       17
 70
   128
 43
0.0
 10
33.8937985075
 20
26.496897683
 10
33.8317036498
 20
26.4904935875
 10
33.7759472554
 20
26.4670244073
 10
33.7350177297
 20
26.4300631123
 10
33.7151462221
 20
26.3852367247
 10
33.7193579895
 20
26.3393696557
 10
33.7470118284
 20
26.2994447507
 10
33.7938976926
 20
26.2715402145
 10
33.8528776342
 20
26.2599042599
 10
33.9149724919
 20
26.2663083554
 10
33.9707288864
 20
26.2897775356
 10
34.011658412
 20
26.3267388306
 10
34.0315299196
 20
26.3715652181
 10
34.0273181523
 20
26.4174322872
 10
33.9996643133
 20
26.4573571922
 10
33.9527784492
 20
26.4852617284
 10
33.8937985075
 20
26.496897683
  0
LWPOLYLINE
  5
125
330
1F
100
AcDbEntity
  8
0
  6
Continuous
 62
     7
370
    25
100
AcDbPolyline
 90
       17
 70
   128
 43
0.0
 10
30.7497355136
 20
26.63275828
 10
30.6876406559
 20
26.6263541844
 10
30.6318842614
 20
26.6028850042
 10
30.5909547358
 20
26.5659237093
 10
30.5710832282
 20
26.5210973217
 10
30.5752949955
 20
26.4752302527
 10
30.6029488345
 20
26.4353053476
 10
30.6498346987
 20
26.4074008115
 10
30.7088146403
 20
26.3957648568
 10
30.770909498
 20
26.4021689524
 10
30.8266658924
 20
26.4256381326
 10
30.8675954181
 20
26.4625994275
 10
30.8874669257
 20
26.5074258151
 10
30.8832551583
 20
26.5532928842
 10
30.8556013194
 20
26.5932177892
 10
30.8087154552
 20
26.6211223254
 10
30.7497355136
 20
26.63275828
  0
LWPOLYLINE
  5
126
330
1F
100
AcDbEntity
  8
0
  6
Continuous
 62
     7
370
    25
100
AcDbPolyline
 90
       17
 70
   128
 43
0.0
 10
27.9616041793
 20
26.753238432
 10
27.8995093217
 20
26.7468343365
 10
27.8437529272
 20
26.7233651563
 10
27.8028234015
 20
26.6864038613
 10
27.7829518939
 20
26.6415774737
 10
27.7871636613
 20
26.5957104047
 10
27.8148175002
 20
26.5557854997
 10
27.8617033644
 20
26.5278809635
 10
27.9206833061
 20
26.5162450089
 10
27.9827781637
 20
26.5226491044
 10
28.0385345582
 20
26.5461182846
 10
28.0794640838
 20
26.5830795796
 10
28.0993355914
 20
26.6279059671
 10
28.0951238241
 20
26.6737730362
 10
28.0674699852
 20
26.7136979412
 10
28.020584121
 20
26.7416024774
 10
27.9616041793
 20
26.753238432
  0
LWPOLYLINE
  5
127
330
1F
100
AcDbEntity
  8
0
  6
Continuous
 62
     7
370
    25
100
AcDbPolyline
 90
       17
 70
   128
 43
0.0
 10
24.8175411854
 20
26.889099029
 10
24.7554463277
 20
26.8826949334
 10
24.6996899333
 20
26.8592257532
 10
24.6587604076
 20
26.8222644583
 10
24.6388889
 20
26.7774380707
 10
24.6431006674
 20
26.7315710017
 10
24.6707545063
 20
26.6916460966
 10
24.7176403705
 20
26.6637415605
 10
24.7766203121
 20
26.6521056058
 10
24.8387151698
 20
26.6585097014
 10
24.8944715643
 20
26.6819788816
 10
24.9354010899
 20
26.7189401765
 10
24.9552725975
 20
26.7637665641
 10
24.9510608301
 20
26.8096336332
 10
24.9234069912
 20
26.8495585382
 10
24.876521127
 20
26.8774630744
 10
24.8175411854
 20
26.889099029
  0
LWPOLYLINE
  5
128
330
1F
100
AcDbEntity
  8
0
  6
Continuous
 62
     7
370
    25
100
AcDbPolyline
 90
       19
 70
   128
 43
0.0
 10
-38.1769049051
 20
-2.4313626355
 10
-37.9002113346
 20
-2.4073213315
 10
-37.6445519392
 20
-2.3147175024
 10
-37.4407630151
 20
-2.1647205366
 10
-37.3134245141
 20
-1.975422282
 10
-37.2778953387
 20
-1.7696549017
 10
-37.3384608319
 20
-1.5722369787
 10
-37.4878159014
 20
-1.4069800281
 10
-37.7079461214
 20
-1.2938164769
 10
-37.9723005388
 20
-1.2463955197
 10
-38.2489941093
 20
-1.2704368237
 10
-38.5046535047
 20
-1.3630406528
 10
-38.7084424288
 20
-1.5130376186
 10
-38.8357809299
 20
-1.7023358732
 10
-38.8713101052
 20
-1.9081032534
 10
-38.810744612
 20
-2.1055211764
 10
-38.6613895425
 20
-2.2707781271
 10
-38.4412593225
 20
-2.3839416782
 10
-38.1769049051
 20
-2.4313626355
  0
LWPOLYLINE
  5
129
330
1F
100
AcDbEntity
  8
0
  6
Continuous
 62
     7
370
    25
100
AcDbPolyline
 90
       19
 70
   128
 43
0.0
 10
-36.7996617644
 20
5.5449472625
 10
-36.522968194
 20
5.5689885665
 10
-36.2673087985
 20
5.6615923956
 10
-36.0635198744
 20
5.8115893614
 10
-35.9361813734
 20
6.000887616
 10
-35.900652198
 20
6.2066549962
 10
-35.9612176912
 20
6.4040729192
 10
-36.1105727607
 20
6.5693298699
 10
-36.3307029808
 20
6.682493421
 10
-36.5950573981
 20
6.7299143783
 10
-36.8717509686
 20
6.7058730743
 10
-37.127410364
 20
6.6132692452
 10
-37.3311992881
 20
6.4632722794
 10
-37.4585377892
 20
6.2739740248
 10
-37.4940669645
 20
6.0682066445
 10
-37.4335014713
 20
5.8707887215
 10
-37.2841464018
 20
5.7055317709
 10
-37.0640161818
 20
5.5923682197
 10
-36.7996617644
 20
5.5449472625
  0
LWPOLYLINE
  5
12A
330
1F
100
AcDbEntity
  8
0
  6
Continuous
 62
     7
370
    25
100
AcDbPolyline
 90
       19
 70
   128
 43
0.0
 10
-10.316422697
 20
-27.7837702975
 10
-10.0397291266
 20
-27.7597289936
 10
-9.7840697312
 20
-27.6671251644
 10
-9.580280807
 20
-27.5171281987
 10
-9.452942306
 20
-27.327829944
 10
-9.4174131306
 20
-27.1220625638
 10
-9.4779786239
 20
-26.9246446408
 10
-9.6273336933
 20
-26.7593876901
 10
-9.8474639134
 20
-26.646224139
 10
-10.1118183307
 20
-26.5988031818
 10
-10.3885119012
 20
-26.6228444857
 10
-10.6441712966
 20
-26.7154483149
 10
-10.8479602208
 20
-26.8654452806
 10
-10.9752987218
 20
-27.0547435353
 10
-11.0108278971
 20
-27.2605109155
 10
-10.9502624039
 20
-27.4579288385
 10
-10.8009073345
 20
-27.6231857892
 10
-10.5807771144
 20
-27.7363493403
 10
-10.316422697
 20
-27.7837702975
  0
LWPOLYLINE
  5
12B
330
1F
100
AcDbEntity
  8
0
  6
Continuous
 62
     7
370
    25
100
AcDbPolyline
 90
       19
 70
   128
 43
0.0
 10
0.331866122
 20
-28.243901942
 10
0.6085596925
 20
-28.219860638
 10
0.8642190879
 20
-28.1272568089
 10
1.0680080121
 20
-27.9772598431
 10
1.1953465131
 20
-27.7879615885
 10
1.2308756884
 20
-27.5821942083
 10
1.1703101952
 20
-27.3847762853
 10
1.0209551258
 20
-27.2195193346
 10
0.8008249057
 20
-27.1063557835
 10
0.5364704883
 20
-27.0589348262
 10
0.2597769179
 20
-27.0829761302
 10
0.0041175225
 20
-27.1755799593
 10
-0.1996714017
 20
-27.3255769251
 10
-0.3270099027
 20
-27.5148751797
 10
-0.362539078
 20
-27.72064256
 10
-0.3019735848
 20
-27.918060483
 10
-0.1526185154
 20
-28.0833174336
 10
0.0675117047
 20
-28.1964809848
 10
0.331866122
 20
-28.243901942
  0
LWPOLYLINE
  5
12C
330
1F
100
AcDbEntity
  8
0
  6
Continuous
 62
     7
370
    25
100
AcDbPolyline
 90
       19
 70
   128
 43
0.0
 10
36.4698737245
 20
-5.6569837271
 10
36.7465672949
 20
-5.6329424231
 10
37.0022266903
 20
-5.540338594
 10
37.2060156145
 20
-5.3903416282
 10
37.3333541155
 20
-5.2010433736
 10
37.3688832909
 20
-4.9952759933
 10
37.3083177976
 20
-4.7978580704
 10
37.1589627282
 20
-4.6326011197
 10
36.9388325081
 20
-4.5194375686
 10
36.6744780908
 20
-4.4720166113
 10
36.3977845203
 20
-4.4960579153
 10
36.1421251249
 20
-4.5886617444
 10
35.9383362007
 20
-4.7386587102
 10
35.8109976997
 20
-4.9279569648
 10
35.7754685244
 20
-5.1337243451
 10
35.8360340176
 20
-5.3311422681
 10
35.985389087
 20
-5.4963992187
 10
36.2055193071
 20
-5.6095627699
 10
36.4698737245
 20
-5.6569837271
  0
LWPOLYLINE
  5
12D
330
1F
100
AcDbEntity
  8
0
  6
Continuous
 62
     7
370
    25
100
AcDbPolyline
 90
       19
 70
   128
 43
0.0
 10
37.8471168652
 20
2.3193261709
 10
38.1238104356
 20
2.3433674749
 10
38.379469831
 20
2.435971304
 10
38.5832587552
 20
2.5859682697
 10
38.7105972562
 20
2.7752665244
 10
38.7461264315
 20
2.9810339046
 10
38.6855609383
 20
3.1784518276
 10
38.5362058689
 20
3.3437087783
 10
38.3160756488
 20
3.4568723294
 10
38.0517212315
 20
3.5042932866
 10
37.775027661
 20
3.4802519827
 10
37.5193682656
 20
3.3876481536
 10
37.3155793414
 20
3.2376511878
 10
37.1882408404
 20
3.0483529332
 10
37.1527116651
 20
2.8425855529
 10
37.2132771583
 20
2.6451676299
 10
37.3626322277
 20
2.4799106792
 10
37.5827624478
 20
2.3667471281
 10
37.8471168652
 20
2.3193261709
  0
LWPOLYLINE
  5
12E
330
1F
100
AcDbEntity
  8
0
  6
Continuous
 62
     7
370
    25
100
AcDbPolyline
 90
       19
 70
   128
 43
0.0
 10
9.9866346571
 20
27.6717338329
 10
10.2633282275
 20
27.6957751369
 10
10.518987623
 20
27.788378966
 10
10.7227765471
 20
27.9383759318
 10
10.8501150481
 20
28.1276741864
 10
10.8856442235
 20
28.3334415667
 10
10.8250787303
 20
28.5308594897
 10
10.6757236608
 20
28.6961164403
 10
10.4555934407
 20
28.8092799915
 10
10.1912390234
 20
28.8567009487
 10
9.9145454529
 20
28.8326596447
 10
9.6588860575
 20
28.7400558156
 10
9.4550971334
 20
28.5900588499
 10
9.3277586323
 20
28.4007605952
 10
9.292229457
 20
28.194993215
 10
9.3527949502
 20
27.997575292
 10
9.5021500197
 20
27.8323183413
 10
9.7222802397
 20
27.7191547902
 10
9.9866346571
 20
27.6717338329
  0
LWPOLYLINE
  5
12F
330
1F
100
AcDbEntity
  8
0
  6
Continuous
 62
     7
370
    25
100
AcDbPolyline
 90
       19
 70
   128
 43
0.0
 10
-0.661654162
 20
28.1318654774
 10
-0.3849605915
 20
28.1559067814
 10
-0.1293011961
 20
28.2485106105
 10
0.074487728
 20
28.3985075763
 10
0.201826229
 20
28.5878058309
 10
0.2373554044
 20
28.7935732111
 10
0.1767899112
 20
28.9909911341
 10
0.0274348417
 20
29.1562480848
 10
-0.1926953783
 20
29.2694116359
 10
-0.4570497957
 20
29.3168325932
 10
-0.7337433662
 20
29.2927912892
 10
-0.9894027616
 20
29.2001874601
 10
-1.1931916857
 20
29.0501904943
 10
-1.3205301867
 20
28.8608922397
 10
-1.3560593621
 20
28.6551248594
 10
-1.2954938689
 20
28.4577069364
 10
-1.1461387994
 20
28.2924499858
 10
-0.9260085794
 20
28.1792864346
 10
-0.661654162
 20
28.1318654774
  0
LWPOLYLINE
  5
130
330
1F
100
AcDbEntity
  8
0
  6
Continuous
 62
     7
370
    25
100
AcDbPolyline
 90
       19
 70
   128
 43
0.0
 10
-39.1775590485
 20
19.1750423193
 10
-38.9008654781
 20
19.1990836232
 10
-38.6452060826
 20
19.2916874523
 10
-38.4414171585
 20
19.4416844181
 10
-38.3140786575
 20
19.6309826727
 10
-38.2785494821
 20
19.836750053
 10
-38.3391149753
 20
20.034167976
 10
-38.4884700448
 20
20.1994249266
 10
-38.7086002649
 20
20.3125884778
 10
-38.9729546822
 20
20.360009435
 10
-39.2496482527
 20
20.335968131
 10
-39.5053076481
 20
20.2433643019
 10
-39.7090965723
 20
20.0933673362
 10
-39.8364350733
 20
19.9040690815
 10
-39.8719642486
 20
19.6983017013
 10
-39.8113987554
 20
19.5008837783
 10
-39.662043686
 20
19.3356268276
 10
-39.4419134659
 20
19.2224632765
 10
-39.1775590485
 20
19.1750423193
  0
LWPOLYLINE
  5
131
330
1F
100
AcDbEntity
  8
0
  6
Continuous
 62
     7
370
    25
100
AcDbPolyline
 90
       19
 70
   128
 43
0.0
 10
-37.8003159078
 20
27.1513522172
 10
-37.5236223374
 20
27.1753935212
 10
-37.267962942
 20
27.2679973503
 10
-37.0641740178
 20
27.4179943161
 10
-36.9368355168
 20
27.6072925707
 10
-36.9013063414
 20
27.8130599509
 10
-36.9618718347
 20
28.0104778739
 10
-37.1112269041
 20
28.1757348246
 10
-37.3313571242
 20
28.2888983757
 10
-37.5957115415
 20
28.336319333
 10
-37.872405112
 20
28.312278029
 10
-38.1280645074
 20
28.2196741999
 10
-38.3318534316
 20
28.0696772341
 10
-38.4591919326
 20
27.8803789795
 10
-38.4947211079
 20
27.6746115992
 10
-38.4341556147
 20
27.4771936762
 10
-38.2848005453
 20
27.3119367256
 10
-38.0646703252
 20
27.1987731744
 10
-37.8003159078
 20
27.1513522172
  0
LWPOLYLINE
  5
132
330
1F
100
AcDbEntity
  8
0
  6
Continuous
 62
     7
370
    25
100
AcDbPolyline
 90
       37
 70
   128
 43
0.0
 10
-32.4513163692
 20
-15.3344858722
 10
-32.4515090602
 20
-15.3603903781
 10
-32.4431989843
 20
-15.3858749555
 10
-32.426638639
 20
-15.4101652685
 10
-32.4023312021
 20
-15.432523268
 10
-32.3710152427
 20
-15.4522696177
 10
-32.3336422804
 20
-15.4688043347
 10
-32.2913478737
 20
-15.48162502
 10
-32.2454171168
 20
-15.4903421235
 10
-32.1972455926
 20
-15.4946907804
 10
-32.1482969683
 20
-15.4945388592
 10
-32.1000585231
 20
-15.4898909756
 10
-32.0539959579
 20
-15.4808883535
 10
-32.0115088603
 20
-15.4678045328
 10
-31.9738881794
 20
-15.4510370589
 10
-31.9422770004
 20
-15.431095403
 10
-31.917635813
 20
-15.4085854821
 10
-31.9007133272
 20
-15.3841912489
 10
-31.8920237243
 20
-15.3586539098
 10
-31.8918310334
 20
-15.3327494038
 10
-31.9001411093
 20
-15.3072648264
 10
-31.9167014546
 20
-15.2829745135
 10
-31.9410088915
 20
-15.2606165139
 10
-31.9723248509
 20
-15.2408701642
 10
-32.0096978132
 20
-15.2243354473
 10
-32.0519922198
 20
-15.211514762
 10
-32.0979229767
 20
-15.2027976585
 10
-32.146094501
 20
-15.1984490015
 10
-32.1950431253
 20
-15.1986009228
 10
-32.2432815704
 20
-15.2032488063
 10
-32.2893441356
 20
-15.2122514285
 10
-32.3318312332
 20
-15.2253352491
 10
-32.3694519142
 20
-15.242102723
 10
-32.4010630932
 20
-15.262044379
 10
-32.4257042806
 20
-15.2845542998
 10
-32.4426267663
 20
-15.3089485331
 10
-32.4513163692
 20
-15.3344858722
  0
LWPOLYLINE
  5
133
330
1F
100
AcDbEntity
  8
0
  6
Continuous
 62
     7
370
    25
100
AcDbPolyline
 90
       37
 70
   128
 43
0.0
 10
-33.6323708586
 20
-18.4095891834
 10
-33.6325635495
 20
-18.4354936894
 10
-33.6242534737
 20
-18.4609782668
 10
-33.6076931284
 20
-18.4852685797
 10
-33.5833856915
 20
-18.5076265793
 10
-33.5520697321
 20
-18.527372929
 10
-33.5146967698
 20
-18.5439076459
 10
-33.4724023631
 20
-18.5567283312
 10
-33.4264716062
 20
-18.5654454347
 10
-33.378300082
 20
-18.5697940917
 10
-33.3293514577
 20
-18.5696421704
 10
-33.2811130125
 20
-18.5649942869
 10
-33.2350504473
 20
-18.5559916647
 10
-33.1925633497
 20
-18.5429078441
 10
-33.1549426688
 20
-18.5261403702
 10
-33.1233314898
 20
-18.5061987142
 10
-33.0986903024
 20
-18.4836887934
 10
-33.0817678166
 20
-18.4592945602
 10
-33.0730782137
 20
-18.433757221
 10
-33.0728855228
 20
-18.4078527151
 10
-33.0811955987
 20
-18.3823681377
 10
-33.097755944
 20
-18.3580778248
 10
-33.1220633809
 20
-18.3357198252
 10
-33.1533793403
 20
-18.3159734755
 10
-33.1907523026
 20
-18.2994387585
 10
-33.2330467092
 20
-18.2866180733
 10
-33.2789774661
 20
-18.2779009697
 10
-33.3271489904
 20
-18.2735523128
 10
-33.3760976147
 20
-18.2737042341
 10
-33.4243360598
 20
-18.2783521176
 10
-33.470398625
 20
-18.2873547397
 10
-33.5128857226
 20
-18.3004385604
 10
-33.5505064036
 20
-18.3172060343
 10
-33.5821175826
 20
-18.3371476902
 10
-33.60675877
 20
-18.3596576111
 10
-33.6236812557
 20
-18.3840518443
 10
-33.6323708586
 20
-18.4095891834
  0
LWPOLYLINE
  5
134
330
1F
100
AcDbEntity
  8
0
  6
Continuous
 62
     7
370
    25
100
AcDbPolyline
 90
       37
 70
   128
 43
0.0
 10
-33.5228813318
 20
-21.5404592146
 10
-33.5230740227
 20
-21.5663637206
 10
-33.5147639468
 20
-21.591848298
 10
-33.4982036016
 20
-21.6161386109
 10
-33.4738961646
 20
-21.6384966105
 10
-33.4425802052
 20
-21.6582429602
 10
-33.4052072429
 20
-21.6747776771
 10
-33.3629128363
 20
-21.6875983624
 10
-33.3169820794
 20
-21.6963154659
 10
-33.2688105551
 20
-21.7006641229
 10
-33.2198619308
 20
-21.7005122016
 10
-33.1716234857
 20
-21.6958643181
 10
-33.1255609205
 20
-21.6868616959
 10
-33.0830738229
 20
-21.6737778753
 10
-33.0454531419
 20
-21.6570104014
 10
-33.0138419629
 20
-21.6370687454
 10
-32.9892007755
 20
-21.6145588246
 10
-32.9722782898
 20
-21.5901645914
 10
-32.9635886869
 20
-21.5646272522
 10
-32.963395996
 20
-21.5387227463
 10
-32.9717060719
 20
-21.5132381689
 10
-32.9882664171
 20
-21.4889478559
 10
-33.0125738541
 20
-21.4665898564
 10
-33.0438898134
 20
-21.4468435067
 10
-33.0812627758
 20
-21.4303087897
 10
-33.1235571824
 20
-21.4174881044
 10
-33.1694879393
 20
-21.4087710009
 10
-33.2176594636
 20
-21.404422344
 10
-33.2666080879
 20
-21.4045742653
 10
-33.314846533
 20
-21.4092221488
 10
-33.3609090982
 20
-21.4182247709
 10
-33.4033961958
 20
-21.4313085916
 10
-33.4410168768
 20
-21.4480760655
 10
-33.4726280558
 20
-21.4680177214
 10
-33.4972692431
 20
-21.4905276423
 10
-33.5141917289
 20
-21.5149218755
 10
-33.5228813318
 20
-21.5404592146
  0
LWPOLYLINE
  5
135
330
1F
100
AcDbEntity
  8
0
  6
Continuous
 62
     7
370
    25
100
AcDbPolyline
 90
       37
 70
   128
 43
0.0
 10
19.0163261983
 20
-22.4966401333
 10
19.0512128489
 20
-22.494941514
 10
19.0861384715
 20
-22.4869297276
 10
19.120041869
 20
-22.4728482081
 10
19.1518929037
 20
-22.4531248154
 10
19.180723798
 20
-22.4283588347
 10
19.2056585398
 20
-22.399302768
 10
19.2259394996
 20
-22.366839469
 10
19.2409504507
 20
-22.3319553186
 10
19.250235293
 20
-22.2957102542
 10
19.2535119112
 20
-22.2592055637
 10
19.2506807468
 20
-22.2235504235
 10
19.2418278235
 20
-22.1898281972
 10
19.2272221328
 20
-22.1590635175
 10
19.2073074613
 20
-22.1321911536
 10
19.1826889061
 20
-22.1100276087
 10
19.1541144895
 20
-22.0932463108
 10
19.1224524309
 20
-22.0823571514
 10
19.0886647658
 20
-22.0776909918
 10
19.0537781153
 20
-22.0793896111
 10
19.0188524926
 20
-22.0874013975
 10
18.9849490951
 20
-22.101482917
 10
18.9530980605
 20
-22.1212063097
 10
18.9242671661
 20
-22.1459722904
 10
18.8993324243
 20
-22.1750283572
 10
18.8790514645
 20
-22.2074916562
 10
18.8640405134
 20
-22.2423758065
 10
18.8547556711
 20
-22.2786208709
 10
18.851479053
 20
-22.3151255615
 10
18.8543102173
 20
-22.3507807016
 10
18.8631631406
 20
-22.3845029279
 10
18.8777688313
 20
-22.4152676076
 10
18.8976835028
 20
-22.4421399716
 10
18.9223020581
 20
-22.4643035165
 10
18.9508764746
 20
-22.4810848143
 10
18.9825385332
 20
-22.4919739738
 10
19.0163261983
 20
-22.4966401333
  0
LWPOLYLINE
  5
136
330
1F
100
AcDbEntity
  8
0
  6
Continuous
 62
     7
370
    25
100
AcDbPolyline
 90
       37
 70
   128
 43
0.0
 10
23.0753212927
 20
-23.1589966752
 10
23.1102079432
 20
-23.1572980559
 10
23.1451335659
 20
-23.1492862695
 10
23.1790369634
 20
-23.13520475
 10
23.2108879981
 20
-23.1154813573
 10
23.2397188924
 20
-23.0907153766
 10
23.2646536342
 20
-23.0616593098
 10
23.284934594
 20
-23.0291960108
 10
23.2999455451
 20
-22.9943118605
 10
23.3092303874
 20
-22.9580667961
 10
23.3125070055
 20
-22.9215621055
 10
23.3096758412
 20
-22.8859069654
 10
23.3008229179
 20
-22.8521847391
 10
23.2862172272
 20
-22.8214200594
 10
23.2663025557
 20
-22.7945476954
 10
23.2416840005
 20
-22.7723841505
 10
23.2131095839
 20
-22.7556028527
 10
23.1814475253
 20
-22.7447136932
 10
23.1476598602
 20
-22.7400475337
 10
23.1127732097
 20
-22.741746153
 10
23.077847587
 20
-22.7497579394
 10
23.0439441895
 20
-22.7638394589
 10
23.0120931548
 20
-22.7835628516
 10
22.9832622605
 20
-22.8083288323
 10
22.9583275187
 20
-22.837384899
 10
22.9380465589
 20
-22.8698481981
 10
22.9230356078
 20
-22.9047323484
 10
22.9137507655
 20
-22.9409774128
 10
22.9104741474
 20
-22.9774821034
 10
22.9133053117
 20
-23.0131372435
 10
22.922158235
 20
-23.0468594698
 10
22.9367639257
 20
-23.0776241495
 10
22.9566785972
 20
-23.1044965134
 10
22.9812971524
 20
-23.1266600583
 10
23.009871569
 20
-23.1434413562
 10
23.0415336276
 20
-23.1543305157
 10
23.0753212927
 20
-23.1589966752
  0
LWPOLYLINE
  5
137
330
1F
100
AcDbEntity
  8
0
  6
Continuous
 62
     7
370
    25
100
AcDbPolyline
 90
       37
 70
   128
 43
0.0
 10
27.3012345581
 20
-22.8546458723
 10
27.3361212086
 20
-22.852947253
 10
27.3710468313
 20
-22.8449354666
 10
27.4049502288
 20
-22.8308539471
 10
27.4368012635
 20
-22.8111305544
 10
27.4656321578
 20
-22.7863645737
 10
27.4905668996
 20
-22.757308507
 10
27.5108478594
 20
-22.724845208
 10
27.5258588105
 20
-22.6899610576
 10
27.5351436528
 20
-22.6537159932
 10
27.5384202709
 20
-22.6172113027
 10
27.5355891066
 20
-22.5815561625
 10
27.5267361833
 20
-22.5478339362
 10
27.5121304926
 20
-22.5170692565
 10
27.4922158211
 20
-22.4901968926
 10
27.4675972659
 20
-22.4680333477
 10
27.4390228493
 20
-22.4512520498
 10
27.4073607907
 20
-22.4403628904
 10
27.3735731256
 20
-22.4356967308
 10
27.3386864751
 20
-22.4373953501
 10
27.3037608524
 20
-22.4454071365
 10
27.2698574549
 20
-22.459488656
 10
27.2380064202
 20
-22.4792120488
 10
27.2091755259
 20
-22.5039780294
 10
27.1842407841
 20
-22.5330340962
 10
27.1639598243
 20
-22.5654973952
 10
27.1489488732
 20
-22.6003815455
 10
27.1396640309
 20
-22.6366266099
 10
27.1363874128
 20
-22.6731313005
 10
27.1392185771
 20
-22.7087864406
 10
27.1480715004
 20
-22.7425086669
 10
27.1626771911
 20
-22.7732733467
 10
27.1825918626
 20
-22.8001457106
 10
27.2072104178
 20
-22.8223092555
 10
27.2357848344
 20
-22.8390905533
 10
27.267446893
 20
-22.8499797128
 10
27.3012345581
 20
-22.8546458723
  0
LWPOLYLINE
  5
138
330
1F
100
AcDbEntity
  8
0
  6
Continuous
 62
     7
370
    25
100
AcDbPolyline
 90
       37
 70
   128
 43
0.0
 10
32.3261326956
 20
16.4074165234
 10
32.3263253865
 20
16.4333210293
 10
32.3180153106
 20
16.4588056067
 10
32.3014549653
 20
16.4830959196
 10
32.2771475284
 20
16.5054539192
 10
32.245831569
 20
16.5252002689
 10
32.2084586067
 20
16.5417349859
 10
32.1661642001
 20
16.5545556711
 10
32.1202334432
 20
16.5632727746
 10
32.0720619189
 20
16.5676214316
 10
32.0231132946
 20
16.5674695103
 10
31.9748748495
 20
16.5628216268
 10
31.9288122843
 20
16.5538190047
 10
31.8863251867
 20
16.540735184
 10
31.8487045057
 20
16.5239677101
 10
31.8170933267
 20
16.5040260541
 10
31.7924521393
 20
16.4815161333
 10
31.7755296536
 20
16.4571219001
 10
31.7668400507
 20
16.431584561
 10
31.7666473598
 20
16.405680055
 10
31.7749574357
 20
16.3801954776
 10
31.7915177809
 20
16.3559051647
 10
31.8158252178
 20
16.3335471651
 10
31.8471411772
 20
16.3138008154
 10
31.8845141395
 20
16.2972660984
 10
31.9268085462
 20
16.2844454132
 10
31.9727393031
 20
16.2757283097
 10
32.0209108273
 20
16.2713796527
 10
32.0698594516
 20
16.271531574
 10
32.1180978968
 20
16.2761794575
 10
32.164160462
 20
16.2851820796
 10
32.2066475596
 20
16.2982659003
 10
32.2442682405
 20
16.3150333742
 10
32.2758794196
 20
16.3349750302
 10
32.3005206069
 20
16.357484951
 10
32.3174430927
 20
16.3818791842
 10
32.3261326956
 20
16.4074165234
  0
LWPOLYLINE
  5
139
330
1F
100
AcDbEntity
  8
0
  6
Continuous
 62
     7
370
    25
100
AcDbPolyline
 90
       37
 70
   128
 43
0.0
 10
33.507187185
 20
19.4825198346
 10
33.5073798759
 20
19.5084243405
 10
33.4990698
 20
19.533908918
 10
33.4825094547
 20
19.5581992309
 10
33.4582020178
 20
19.5805572304
 10
33.4268860584
 20
19.6003035801
 10
33.3895130961
 20
19.6168382971
 10
33.3472186895
 20
19.6296589824
 10
33.3012879326
 20
19.6383760859
 10
33.2531164083
 20
19.6427247429
 10
33.204167784
 20
19.6425728216
 10
33.1559293389
 20
19.6379249381
 10
33.1098667737
 20
19.6289223159
 10
33.0673796761
 20
19.6158384953
 10
33.0297589951
 20
19.5990710213
 10
32.9981478161
 20
19.5791293654
 10
32.9735066287
 20
19.5566194445
 10
32.956584143
 20
19.5322252113
 10
32.9478945401
 20
19.5066878722
 10
32.9477018492
 20
19.4807833663
 10
32.956011925
 20
19.4552987889
 10
32.9725722703
 20
19.4310084759
 10
32.9968797072
 20
19.4086504764
 10
33.0281956666
 20
19.3889041267
 10
33.0655686289
 20
19.3723694097
 10
33.1078630356
 20
19.3595487244
 10
33.1537937925
 20
19.3508316209
 10
33.2019653167
 20
19.3464829639
 10
33.250913941
 20
19.3466348852
 10
33.2991523862
 20
19.3512827688
 10
33.3452149514
 20
19.3602853909
 10
33.387702049
 20
19.3733692116
 10
33.4253227299
 20
19.3901366855
 10
33.4569339089
 20
19.4100783414
 10
33.4815750963
 20
19.4325882623
 10
33.4984975821
 20
19.4569824955
 10
33.507187185
 20
19.4825198346
  0
LWPOLYLINE
  5
13A
330
1F
100
AcDbEntity
  8
0
  6
Continuous
 62
     7
370
    25
100
AcDbPolyline
 90
       37
 70
   128
 43
0.0
 10
33.3976976581
 20
22.6133898658
 10
33.3978903491
 20
22.6392943717
 10
33.3895802732
 20
22.6647789492
 10
33.3730199279
 20
22.6890692621
 10
33.348712491
 20
22.7114272616
 10
33.3173965316
 20
22.7311736113
 10
33.2800235693
 20
22.7477083283
 10
33.2377291626
 20
22.7605290136
 10
33.1917984058
 20
22.7692461171
 10
33.1436268815
 20
22.7735947741
 10
33.0946782572
 20
22.7734428528
 10
33.0464398121
 20
22.7687949693
 10
33.0003772468
 20
22.7597923471
 10
32.9578901493
 20
22.7467085265
 10
32.9202694683
 20
22.7299410525
 10
32.8886582893
 20
22.7099993966
 10
32.8640171019
 20
22.6874894757
 10
32.8470946162
 20
22.6630952425
 10
32.8384050132
 20
22.6375579034
 10
32.8382123223
 20
22.6116533975
 10
32.8465223982
 20
22.5861688201
 10
32.8630827435
 20
22.5618785071
 10
32.8873901804
 20
22.5395205076
 10
32.9187061398
 20
22.5197741579
 10
32.9560791021
 20
22.5032394409
 10
32.9983735088
 20
22.4904187556
 10
33.0443042656
 20
22.4817016521
 10
33.0924757899
 20
22.4773529951
 10
33.1414244142
 20
22.4775049164
 10
33.1896628593
 20
22.4821527999
 10
33.2357254245
 20
22.4911554221
 10
33.2782125221
 20
22.5042392428
 10
33.3158332031
 20
22.5210067167
 10
33.3474443821
 20
22.5409483726
 10
33.3720855695
 20
22.5634582935
 10
33.3890080552
 20
22.5878525267
 10
33.3976976581
 20
22.6133898658
  0
LWPOLYLINE
  5
13B
330
1F
100
AcDbEntity
  8
0
  6
Continuous
 62
     7
370
    25
100
AcDbPolyline
 90
       37
 70
   128
 43
0.0
 10
-19.141509872
 20
23.5695707845
 10
-19.1763965225
 20
23.5678721652
 10
-19.2113221452
 20
23.5598603788
 10
-19.2452255427
 20
23.5457788593
 10
-19.2770765773
 20
23.5260554666
 10
-19.3059074716
 20
23.5012894859
 10
-19.3308422135
 20
23.4722334191
 10
-19.3511231733
 20
23.4397701201
 10
-19.3661341244
 20
23.4048859698
 10
-19.3754189667
 20
23.3686409054
 10
-19.3786955848
 20
23.3321362148
 10
-19.3758644205
 20
23.2964810747
 10
-19.3670114972
 20
23.2627588484
 10
-19.3524058065
 20
23.2319941687
 10
-19.3324911349
 20
23.2051218047
 10
-19.3078725797
 20
23.1829582598
 10
-19.2792981632
 20
23.166176962
 10
-19.2476361046
 20
23.1552878025
 10
-19.2138484394
 20
23.150621643
 10
-19.1789617889
 20
23.1523202623
 10
-19.1440361662
 20
23.1603320487
 10
-19.1101327688
 20
23.1744135682
 10
-19.0782817341
 20
23.1941369609
 10
-19.0494508398
 20
23.2189029416
 10
-19.024516098
 20
23.2479590083
 10
-19.0042351381
 20
23.2804223074
 10
-18.989224187
 20
23.3153064577
 10
-18.9799393448
 20
23.3515515221
 10
-18.9766627266
 20
23.3880562127
 10
-18.9794938909
 20
23.4237113528
 10
-18.9883468142
 20
23.4574335791
 10
-19.0029525049
 20
23.4881982588
 10
-19.0228671765
 20
23.5150706227
 10
-19.0474857317
 20
23.5372341677
 10
-19.0760601482
 20
23.5540154655
 10
-19.1077222069
 20
23.564904625
 10
-19.141509872
 20
23.5695707845
  0
LWPOLYLINE
  5
13C
330
1F
100
AcDbEntity
  8
0
  6
Continuous
 62
     7
370
    25
100
AcDbPolyline
 90
       37
 70
   128
 43
0.0
 10
-23.2005049664
 20
24.2319273264
 10
-23.2353916169
 20
24.2302287071
 10
-23.2703172396
 20
24.2222169207
 10
-23.304220637
 20
24.2081354012
 10
-23.3360716717
 20
24.1884120084
 10
-23.364902566
 20
24.1636460278
 10
-23.3898373079
 20
24.134589961
 10
-23.4101182677
 20
24.102126662
 10
-23.4251292188
 20
24.0672425117
 10
-23.434414061
 20
24.0309974473
 10
-23.4376906792
 20
23.9944927567
 10
-23.4348595149
 20
23.9588376166
 10
-23.4260065916
 20
23.9251153903
 10
-23.4114009009
 20
23.8943507105
 10
-23.3914862293
 20
23.8674783466
 10
-23.3668676741
 20
23.8453148017
 10
-23.3382932576
 20
23.8285335039
 10
-23.306631199
 20
23.8176443444
 10
-23.2728435338
 20
23.8129781849
 10
-23.2379568833
 20
23.8146768041
 10
-23.2030312606
 20
23.8226885906
 10
-23.1691278632
 20
23.8367701101
 10
-23.1372768285
 20
23.8564935028
 10
-23.1084459342
 20
23.8812594834
 10
-23.0835111924
 20
23.9103155502
 10
-23.0632302325
 20
23.9427788492
 10
-23.0482192814
 20
23.9776629996
 10
-23.0389344392
 20
24.013908064
 10
-23.035657821
 20
24.0504127545
 10
-23.0384889853
 20
24.0860678947
 10
-23.0473419086
 20
24.119790121
 10
-23.0619475993
 20
24.1505548007
 10
-23.0818622709
 20
24.1774271646
 10
-23.1064808261
 20
24.1995907095
 10
-23.1350552426
 20
24.2163720073
 10
-23.1667173013
 20
24.2272611668
 10
-23.2005049664
 20
24.2319273264
  0
LWPOLYLINE
  5
13D
330
1F
100
AcDbEntity
  8
0
  6
Continuous
 62
     7
370
    25
100
AcDbPolyline
 90
       37
 70
   128
 43
0.0
 10
-27.4264182318
 20
23.9275765235
 10
-27.4613048823
 20
23.9258779042
 10
-27.496230505
 20
23.9178661178
 10
-27.5301339024
 20
23.9037845983
 10
-27.5619849371
 20
23.8840612056
 10
-27.5908158314
 20
23.8592952249
 10
-27.6157505733
 20
23.8302391581
 10
-27.6360315331
 20
23.7977758591
 10
-27.6510424842
 20
23.7628917088
 10
-27.6603273264
 20
23.7266466444
 10
-27.6636039446
 20
23.6901419538
 10
-27.6607727803
 20
23.6544868137
 10
-27.651919857
 20
23.6207645874
 10
-27.6373141663
 20
23.5899999077
 10
-27.6173994947
 20
23.5631275438
 10
-27.5927809395
 20
23.5409639988
 10
-27.564206523
 20
23.524182701
 10
-27.5325444644
 20
23.5132935415
 10
-27.4987567992
 20
23.508627382
 10
-27.4638701487
 20
23.5103260013
 10
-27.428944526
 20
23.5183377877
 10
-27.3950411286
 20
23.5324193072
 10
-27.3631900939
 20
23.5521426999
 10
-27.3343591996
 20
23.5769086806
 10
-27.3094244578
 20
23.6059647473
 10
-27.2891434979
 20
23.6384280464
 10
-27.2741325468
 20
23.6733121967
 10
-27.2648477046
 20
23.7095572611
 10
-27.2615710864
 20
23.7460619517
 10
-27.2644022507
 20
23.7817170918
 10
-27.273255174
 20
23.8154393181
 10
-27.2878608647
 20
23.8462039978
 10
-27.3077755363
 20
23.8730763617
 10
-27.3323940915
 20
23.8952399067
 10
-27.360968508
 20
23.9120212045
 10
-27.3926305667
 20
23.922910364
 10
-27.4264182318
 20
23.9275765235
  0
LWPOLYLINE
  5
158
330
1F
100
AcDbEntity
  8
0
  6
Continuous
 62
     7
370
    25
100
AcDbPolyline
 90
        3
 70
   128
 43
0.0
 10
-40.1822476339
 20
-33.3707221867
 10
-40.2685297809
 20
-33.3466852679
 10
-40.363744022
 20
-33.3354025479
  0
LWPOLYLINE
  5
15E
330
1F
100
AcDbEntity
  8
0
  6
Continuous
 62
     7
370
    25
100
AcDbPolyline
 90
        3
 70
   128
 43
0.0
 10
-52.1615597094
 20
-29.1970363031
 10
-52.2478418565
 20
-29.1729993842
 10
-52.3430560976
 20
-29.1617166642
  0
LWPOLYLINE
  5
171
330
1F
100
AcDbEntity
  8
0
  6
Continuous
 62
     7
370
    25
100
AcDbPolyline
 90
        3
 70
   128
 43
0.0
 10
23.6279904916
 20
30.8320769136
 10
23.6286839647
 20
30.8254238244
 10
23.6257088986
 20
30.7527709847
  0
LINE
  5
177
330
1F
100
AcDbEntity
  8
0
  6
Continuous
 62
     7
370
    25
100
AcDbLine
 10
-40.3932807211
 20
-34.6590133415
 30
0.0
 11
-40.2680970474
 21
-35.7319439927
 31
0.0
  0
LINE
  5
178
330
1F
100
AcDbEntity
  8
0
  6
Continuous
 62
     7
370
    25
100
AcDbLine
 10
-52.5388338443
 20
-31.4481132394
 30
0.0
 11
-52.4136501706
 21
-32.5210438906
 31
0.0
  0
LINE
  5
179
330
1F
100
AcDbEntity
  8
0
  6
Continuous
 62
     7
370
    25
100
AcDbLine
 10
-54.6311553729
 20
-27.7016619374
 30
0.0
 11
-54.5059716992
 21
-28.7745925886
 31
0.0
  0
LINE
  5
17A
330
1F
100
AcDbEntity
  8
0
  6
Continuous
 62
     7
370
    25
100
AcDbLine
 10
23.6279904916
 20
30.8320769136
 30
0.0
 11
23.5028068179
 21
31.9050075648
 31
0.0
  0
LINE
  5
17B
330
1F
100
AcDbEntity
  8
0
  6
Continuous
 62
     7
370
    25
100
AcDbLine
 10
-37.9352978924
 20
35.5996490721
 30
0.0
 11
-44.4114432375
 21
31.5519393348
 31
0.0
  0
LINE
  5
17C
330
1F
100
AcDbEntity
  8
0
  6
Continuous
 62
     7
370
    25
100
AcDbLine
 10
-35.0997592369
 20
35.4771203647
 30
0.0
 11
-37.9352978924
 21
35.5996490721
 31
0.0
  0
LINE
  5
17D
330
1F
100
AcDbEntity
  8
0
  6
Continuous
 62
     7
370
    25
100
AcDbLine
 10
-12.3596809789
 20
34.4944808269
 30
0.0
 11
-31.6748052447
 21
35.3291219643
 31
0.0
  0
LINE
  5
17E
330
1F
100
AcDbEntity
  8
0
  6
Continuous
 62
     7
370
    25
100
AcDbLine
 10
20.2673878261
 20
33.0846067073
 30
0.0
 11
-8.9347269866
 21
34.3464824264
 31
0.0
  0
LINE
  5
17F
330
1F
100
AcDbEntity
  8
0
  6
Continuous
 62
     7
370
    25
100
AcDbLine
 10
21.8519870933
 20
32.2700030598
 30
0.0
 11
23.0701145621
 21
32.2173655886
 31
0.0
  0
LINE
  5
180
330
1F
100
AcDbEntity
  8
0
  6
Continuous
 62
     7
370
    25
100
AcDbLine
 10
23.5005252249
 20
31.8257016359
 30
0.0
 11
23.244769767
 21
30.3444927412
 31
0.0
  0
LINE
  5
181
330
1F
100
AcDbEntity
  8
0
  6
Continuous
 62
     7
370
    25
100
AcDbLine
 10
25.3341672103
 20
29.8811409963
 30
0.0
 11
23.6751804299
 21
29.9528287884
 31
0.0
  0
LINE
  5
182
330
1F
100
AcDbEntity
  8
0
  6
Continuous
 62
     7
370
    25
100
AcDbLine
 10
24.8610196132
 20
27.1409045411
 30
0.0
 11
25.3341672103
 21
29.8811409963
 31
0.0
  0
LINE
  5
183
330
1F
100
AcDbEntity
  8
0
  6
Continuous
 62
     7
370
    25
100
AcDbLine
 10
25.2914302761
 20
26.7492405883
 30
0.0
 11
27.4467942153
 21
26.6561034495
 31
0.0
  0
LINE
  5
184
330
1F
100
AcDbEntity
  8
0
  6
Continuous
 62
     7
370
    25
100
AcDbLine
 10
28.0050826072
 20
27.0050439441
 30
0.0
 11
28.4782302042
 21
29.7452803993
 31
0.0
  0
LINE
  5
185
330
1F
100
AcDbEntity
  8
0
  6
Continuous
 62
     7
370
    25
100
AcDbLine
 10
31.2663615385
 20
29.6248002473
 30
0.0
 11
28.4782302042
 21
29.7452803993
 31
0.0
  0
LINE
  5
186
330
1F
100
AcDbEntity
  8
0
  6
Continuous
 62
     7
370
    25
100
AcDbLine
 10
30.7932139414
 20
26.8845637921
 30
0.0
 11
31.2663615385
 21
29.6248002473
 31
0.0
  0
LINE
  5
187
330
1F
100
AcDbEntity
  8
0
  6
Continuous
 62
     7
370
    25
100
AcDbLine
 10
31.2236246043
 20
26.4928998393
 30
0.0
 11
33.3789885435
 21
26.3997627005
 31
0.0
  0
LINE
  5
188
330
1F
100
AcDbEntity
  8
0
  6
Continuous
 62
     7
370
    25
100
AcDbLine
 10
33.9372769353
 20
26.7487031951
 30
0.0
 11
34.4104245324
 21
29.4889396503
 31
0.0
  0
LINE
  5
189
330
1F
100
AcDbEntity
  8
0
  6
Continuous
 62
     7
370
    25
100
AcDbLine
 10
37.1985558667
 20
29.3684594983
 30
0.0
 11
34.4104245324
 21
29.4889396503
 31
0.0
  0
LINE
  5
18A
330
1F
100
AcDbEntity
  8
0
  6
Continuous
 62
     7
370
    25
100
AcDbLine
 10
36.7254082696
 20
26.6282230431
 30
0.0
 11
37.1985558667
 21
29.3684594983
 31
0.0
  0
LINE
  5
18B
330
1F
100
AcDbEntity
  8
0
  6
Continuous
 62
     7
370
    25
100
AcDbLine
 10
37.1558189325
 20
26.2365590903
 30
0.0
 11
39.3111828717
 21
26.1434219515
 31
0.0
  0
LINE
  5
18C
330
1F
100
AcDbEntity
  8
0
  6
Continuous
 62
     7
370
    25
100
AcDbLine
 10
39.8694712635
 20
26.4923624461
 30
0.0
 11
40.3426188606
 21
29.2325989013
 31
0.0
  0
LINE
  5
18D
330
1F
100
AcDbEntity
  8
0
  6
Continuous
 62
     7
370
    25
100
AcDbLine
 10
42.001605641
 20
29.1609111092
 30
0.0
 11
40.3426188606
 21
29.2325989013
 31
0.0
  0
LINE
  5
18E
330
1F
100
AcDbEntity
  8
0
  6
Continuous
 62
     7
370
    25
100
AcDbLine
 10
42.8156494907
 20
30.9910604985
 30
0.0
 11
42.5598940328
 21
29.5098516038
 31
0.0
  0
LINE
  5
18F
330
1F
100
AcDbEntity
  8
0
  6
Continuous
 62
     7
370
    25
100
AcDbLine
 10
44.5920653513
 20
31.2873635219
 30
0.0
 11
43.3739378825
 21
31.3400009931
 31
0.0
  0
LINE
  5
190
330
1F
100
AcDbEntity
  8
0
  6
Continuous
 62
     7
370
    25
100
AcDbLine
 10
49.2679587318
 20
31.8314400617
 30
0.0
 11
46.4324200764
 21
31.9539687691
 31
0.0
  0
LINE
  5
191
330
1F
100
AcDbEntity
  8
0
  6
Continuous
 62
     7
370
    25
100
AcDbLine
 10
54.2607224212
 20
27.2881382097
 30
0.0
 11
49.2679587318
 21
31.8314400617
 31
0.0
  0
LINE
  5
192
330
1F
100
AcDbEntity
  8
0
  6
Continuous
 62
     7
370
    25
100
AcDbLine
 10
44.0432918788
 20
-31.8861571336
 30
0.0
 11
54.2607224212
 21
27.2881382097
 31
0.0
  0
LINE
  5
193
330
1F
100
AcDbEntity
  8
0
  6
Continuous
 62
     7
370
    25
100
AcDbLine
 10
41.7547801413
 20
-32.1603315764
 30
0.0
 11
43.485003487
 21
-32.2350976282
 31
0.0
  0
LINE
  5
194
330
1F
100
AcDbEntity
  8
0
  6
Continuous
 62
     7
370
    25
100
AcDbLine
 10
40.6977686066
 20
-35.3976294156
 30
0.0
 11
41.1964917495
 21
-32.509272071
 31
0.0
  0
LINE
  5
195
330
1F
100
AcDbEntity
  8
0
  6
Continuous
 62
     7
370
    25
100
AcDbLine
 10
28.5222663221
 20
-35.2445692768
 30
0.0
 11
40.1394802148
 21
-35.7465699102
 31
0.0
  0
LINE
  5
196
330
1F
100
AcDbEntity
  8
0
  6
Continuous
 62
     7
370
    25
100
AcDbLine
 10
27.631495835
 20
-37.5190813345
 30
0.0
 11
27.9639779303
 21
-35.5935097714
 31
0.0
  0
LINE
  5
197
330
1F
100
AcDbEntity
  8
0
  6
Continuous
 62
     7
370
    25
100
AcDbLine
 10
-39.9605884652
 20
-34.9713713653
 30
0.0
 11
27.0732074432
 21
-37.8680218291
 31
0.0
  0
LINE
  5
198
330
1F
100
AcDbEntity
  8
0
  6
Continuous
 62
     7
370
    25
100
AcDbLine
 10
-40.0585170328
 20
-32.6541358494
 30
0.0
 11
-40.3909991281
 21
-34.5797074126
 31
0.0
  0
LINE
  5
199
330
1F
100
AcDbEntity
  8
0
  6
Continuous
 62
     7
370
    25
100
AcDbLine
 10
-52.1061415884
 20
-31.7604712632
 30
0.0
 11
-40.4889276957
 21
-32.2624718967
 31
0.0
  0
LINE
  5
19A
330
1F
100
AcDbEntity
  8
0
  6
Continuous
 62
     7
370
    25
100
AcDbLine
 10
-52.0378291084
 20
-28.4804499658
 30
0.0
 11
-52.5365522512
 21
-31.3688073105
 31
0.0
  0
LINE
  5
19B
330
1F
100
AcDbEntity
  8
0
  6
Continuous
 62
     7
370
    25
100
AcDbLine
 10
-54.198463117
 20
-28.0140199613
 30
0.0
 11
-52.4682397713
 21
-28.088786013
 31
0.0
  0
LINE
  5
19C
330
1F
100
AcDbEntity
  8
0
  6
Continuous
 62
     7
370
    25
100
AcDbLine
 10
-44.4114432375
 20
31.5519393348
 30
0.0
 11
-54.6288737799
 21
-27.6223560085
 31
0.0
  0
LINE
  5
19D
330
1F
100
AcDbEntity
  8
0
  6
Continuous
 62
     7
370
    25
100
AcDbLine
 10
27.1983911169
 20
-38.9409524802
 30
0.0
 11
27.0732074432
 21
-37.8680218291
 31
0.0
  0
LINE
  5
19E
330
1F
100
AcDbEntity
  8
0
  6
Continuous
 62
     7
370
    25
100
AcDbLine
 10
27.631495835
 20
-37.5190813345
 30
0.0
 11
27.7566795087
 21
-38.5920119856
 31
0.0
  0
LINE
  5
19F
330
1F
100
AcDbEntity
  8
0
  6
Continuous
 62
     7
370
    25
100
AcDbLine
 10
-39.9605884652
 20
-34.9713713653
 30
0.0
 11
-39.8354047915
 21
-36.0443020165
 31
0.0
  0
LINE
  5
1A0
330
1F
100
AcDbEntity
  8
0
  6
Continuous
 62
     7
370
    25
100
AcDbLine
 10
-39.8354047915
 20
-36.0443020165
 30
0.0
 11
27.1983911169
 21
-38.9409524802
 31
0.0
  0
LINE
  5
1A1
330
1F
100
AcDbEntity
  8
0
  6
Continuous
 62
     7
370
    25
100
AcDbLine
 10
28.0891616039
 20
-36.6664404225
 30
0.0
 11
27.9639779303
 21
-35.5935097714
 31
0.0
  0
LINE
  5
1A2
330
1F
100
AcDbEntity
  8
0
  6
Continuous
 62
     7
370
    25
100
AcDbLine
 10
27.7566795087
 20
-38.5920119856
 30
0.0
 11
28.0891616039
 21
-36.6664404225
 31
0.0
  0
LINE
  5
1A3
330
1F
100
AcDbEntity
  8
0
  6
Continuous
 62
     7
370
    25
100
AcDbLine
 10
40.2646638884
 20
-36.8195005614
 30
0.0
 11
40.1394802148
 21
-35.7465699102
 31
0.0
  0
LINE
  5
1A4
330
1F
100
AcDbEntity
  8
0
  6
Continuous
 62
     7
370
    25
100
AcDbLine
 10
40.6977686066
 20
-35.3976294156
 30
0.0
 11
40.8229522803
 21
-36.4705600668
 31
0.0
  0
LINE
  5
1A5
330
1F
100
AcDbEntity
  8
0
  6
Continuous
 62
     7
370
    25
100
AcDbLine
 10
28.5222663221
 20
-35.2445692768
 30
0.0
 11
28.6474499958
 21
-36.3174999279
 31
0.0
  0
LINE
  5
1A6
330
1F
100
AcDbEntity
  8
0
  6
Continuous
 62
     7
370
    25
100
AcDbLine
 10
28.6474499958
 20
-36.3174999279
 30
0.0
 11
40.2646638884
 21
-36.8195005614
 31
0.0
  0
LINE
  5
1A7
330
1F
100
AcDbEntity
  8
0
  6
Continuous
 62
     7
370
    25
100
AcDbLine
 10
41.3216754231
 20
-33.5822027221
 30
0.0
 11
41.1964917495
 21
-32.509272071
 31
0.0
  0
LINE
  5
1A8
330
1F
100
AcDbEntity
  8
0
  6
Continuous
 62
     7
370
    25
100
AcDbLine
 10
40.8229522803
 20
-36.4705600668
 30
0.0
 11
41.3216754231
 21
-33.5822027221
 31
0.0
  0
LINE
  5
1A9
330
1F
100
AcDbEntity
  8
0
  6
Continuous
 62
     7
370
    25
100
AcDbLine
 10
41.7547801413
 20
-32.1603315764
 30
0.0
 11
41.879963815
 21
-33.2332622276
 31
0.0
  0
LINE
  5
1AA
330
1F
100
AcDbEntity
  8
0
  6
Continuous
 62
     7
370
    25
100
AcDbLine
 10
43.6101871607
 20
-33.3080282793
 30
0.0
 11
43.485003487
 21
-32.2350976282
 31
0.0
  0
LINE
  5
1AB
330
1F
100
AcDbEntity
  8
0
  6
Continuous
 62
     7
370
    25
100
AcDbLine
 10
44.0432918788
 20
-31.8861571336
 30
0.0
 11
44.1684755525
 21
-32.9590877848
 31
0.0
  0
LINE
  5
1AC
330
1F
100
AcDbEntity
  8
0
  6
Continuous
 62
     7
370
    25
100
AcDbLine
 10
41.879963815
 20
-33.2332622276
 30
0.0
 11
43.6101871607
 21
-33.3080282793
 31
0.0
  0
LINE
  5
1AD
330
1F
100
AcDbEntity
  8
0
  6
Continuous
 62
     7
370
    25
100
AcDbLine
 10
54.3859060949
 20
26.2152075585
 30
0.0
 11
54.2607224212
 21
27.2881382097
 31
0.0
  0
LINE
  5
1AE
330
1F
100
AcDbEntity
  8
0
  6
Continuous
 62
     7
370
    25
100
AcDbLine
 10
44.1684755525
 20
-32.9590877848
 30
0.0
 11
54.3859060949
 21
26.2152075585
 31
0.0
  0
LINE
  5
1AF
330
1F
100
AcDbEntity
  8
0
  6
Continuous
 62
     7
370
    25
100
AcDbLine
 10
-40.363744022
 20
-33.3354025479
 30
0.0
 11
-40.4889276957
 21
-32.2624718967
 31
0.0
  0
LINE
  5
1B0
330
1F
100
AcDbEntity
  8
0
  6
Continuous
 62
     7
370
    25
100
AcDbLine
 10
-52.1061415884
 20
-31.7604712632
 30
0.0
 11
-51.9809579147
 21
-32.8334019144
 31
0.0
  0
LINE
  5
1B1
330
1F
100
AcDbEntity
  8
0
  6
Continuous
 62
     7
370
    25
100
AcDbLine
 10
-51.9809579147
 20
-32.8334019144
 30
0.0
 11
-40.363744022
 21
-33.3354025479
 31
0.0
  0
LINE
  5
1B2
330
1F
100
AcDbEntity
  8
0
  6
Continuous
 62
     7
370
    25
100
AcDbLine
 10
-52.3430560976
 20
-29.1617166642
 30
0.0
 11
-52.4682397713
 21
-28.088786013
 31
0.0
  0
LINE
  5
1B3
330
1F
100
AcDbEntity
  8
0
  6
Continuous
 62
     7
370
    25
100
AcDbLine
 10
-54.198463117
 20
-28.0140199613
 30
0.0
 11
-54.0732794433
 21
-29.0869506124
 31
0.0
  0
LINE
  5
1B4
330
1F
100
AcDbEntity
  8
0
  6
Continuous
 62
     7
370
    25
100
AcDbLine
 10
-54.0732794433
 20
-29.0869506124
 30
0.0
 11
-52.3430560976
 21
-29.1617166642
 31
0.0
  0
LINE
  5
1B5
330
1F
100
AcDbEntity
  8
0
  6
Continuous
 62
     7
370
    25
100
AcDbLine
 10
37.3237395403
 20
28.2955288471
 30
0.0
 11
37.1985558667
 21
29.3684594983
 31
0.0
  0
LINE
  5
1B6
330
1F
100
AcDbEntity
  8
0
  6
Continuous
 62
     7
370
    25
100
AcDbLine
 10
36.9743225443
 20
26.2718787292
 30
0.0
 11
37.3237395403
 21
28.2955288471
 31
0.0
  0
LINE
  5
1B7
330
1F
100
AcDbEntity
  8
0
  6
Continuous
 62
     7
370
    25
100
AcDbLine
 10
31.3915452121
 20
28.5518695961
 30
0.0
 11
31.2663615385
 21
29.6248002473
 31
0.0
  0
LINE
  5
1B8
330
1F
100
AcDbEntity
  8
0
  6
Continuous
 62
     7
370
    25
100
AcDbLine
 10
31.0421282161
 20
26.5282194782
 30
0.0
 11
31.3915452121
 21
28.5518695961
 31
0.0
  0
LINE
  5
1B9
330
1F
100
AcDbEntity
  8
0
  6
Continuous
 62
     7
370
    25
100
AcDbLine
 10
25.459350884
 20
28.8082103451
 30
0.0
 11
25.3341672103
 21
29.8811409963
 31
0.0
  0
LINE
  5
1BA
330
1F
100
AcDbEntity
  8
0
  6
Continuous
 62
     7
370
    25
100
AcDbLine
 10
25.1099338879
 20
26.7845602272
 30
0.0
 11
25.459350884
 21
28.8082103451
 31
0.0
  0
LINE
  5
1BB
330
1F
100
AcDbEntity
  8
0
  6
Continuous
 62
     7
370
    25
100
AcDbLine
 10
23.6257088986
 20
30.7527709847
 30
0.0
 11
23.5005252249
 21
31.8257016359
 31
0.0
  0
LINE
  5
1BC
330
1F
100
AcDbEntity
  8
0
  6
Continuous
 62
     7
370
    25
100
AcDbLine
 10
23.6257088986
 20
30.7527709847
 30
0.0
 11
23.4936840417
 21
29.9881484273
 31
0.0
  0
LINE
  5
1BD
330
1F
100
AcDbEntity
  8
0
  6
Continuous
 62
     8
370
    25
100
AcDbLine
 10
36.7254082696
 20
26.6282230431
 30
0.0
 11
36.7436044112
 21
26.4722666189
 31
0.0
  0
LINE
  5
1BE
330
1F
100
AcDbEntity
  8
0
  6
Continuous
 62
     8
370
    25
100
AcDbLine
 10
30.7932139414
 20
26.8845637921
 30
0.0
 11
30.8114100831
 21
26.7286073679
 31
0.0
  0
LINE
  5
1BF
330
1F
100
AcDbEntity
  8
0
  6
Continuous
 62
     8
370
    25
100
AcDbLine
 10
24.8610196132
 20
27.1409045411
 30
0.0
 11
24.8792157549
 21
26.9849481169
 31
0.0
  0
LINE
  5
1C0
330
1F
100
AcDbEntity
  8
0
  6
Continuous
 62
     8
370
    25
100
AcDbLine
 10
23.244769767
 20
30.3444927412
 30
0.0
 11
23.2629659087
 21
30.188536317
 31
0.0
  0
ARC
  5
1C1
330
1F
100
AcDbEntity
  8
0
  6
Continuous
 62
     7
370
    25
100
AcDbCircle
 10
-33.3208227321
 20
36.941115893
 30
0.0
 40
2.303887582990529
100
AcDbArc
 50
219.4530513126
 51
315.5983206342
  0
ARC
  5
1C2
330
1F
100
AcDbEntity
  8
0
  6
Continuous
 62
     7
370
    25
100
AcDbCircle
 10
-10.580744474
 20
35.9584763551
 30
0.0
 40
2.303887582990518
100
AcDbArc
 50
219.4530513126
 51
315.5983206342
  0
ARC
  5
1C3
330
1F
100
AcDbEntity
  8
0
  6
Continuous
 62
     7
370
    25
100
AcDbCircle
 10
21.8212918517
 20
34.1588079005
 30
0.0
 40
1.889054240690827
100
AcDbArc
 50
214.6557893869
 51
270.9310400707
  0
ARC
  5
1C4
330
1F
100
AcDbEntity
  8
0
  6
Continuous
 62
     7
370
    25
100
AcDbCircle
 10
27.513236107
 20
27.1708873871
 30
0.0
 40
0.5190539734341407
100
AcDbArc
 50
262.6456327779
 51
341.366646474
  0
ARC
  5
1C5
330
1F
100
AcDbEntity
  8
0
  6
Continuous
 62
     7
370
    25
100
AcDbCircle
 10
33.4454304351
 20
26.9145466381
 30
0.0
 40
0.5190539734341466
100
AcDbArc
 50
262.6456327779
 51
341.366646474
  0
ARC
  5
1C6
330
1F
100
AcDbEntity
  8
0
  6
Continuous
 62
     7
370
    25
100
AcDbCircle
 10
39.3776247633
 20
26.6582058891
 30
0.0
 40
0.5190539734341468
100
AcDbArc
 50
262.6456327779
 51
341.366646474
  0
ARC
  5
1C7
330
1F
100
AcDbEntity
  8
0
  6
Continuous
 62
     7
370
    25
100
AcDbCircle
 10
42.0680475326
 20
29.6756950467
 30
0.0
 40
0.5190539734341612
100
AcDbArc
 50
262.6456327779
 51
341.366646474
  0
ARC
  5
1C8
330
1F
100
AcDbEntity
  8
0
  6
Continuous
 62
     7
370
    25
100
AcDbCircle
 10
43.3074959909
 20
30.8252170555
 30
0.0
 40
0.5190539734341466
100
AcDbArc
 50
82.6456327779
 51
161.366646474
  0
ARC
  5
1C9
330
1F
100
AcDbEntity
  8
0
  6
Continuous
 62
     7
370
    25
100
AcDbCircle
 10
44.7440169943
 20
33.7415732926
 30
0.0
 40
2.458909290737433
100
AcDbArc
 50
266.4570720061
 51
313.3652850588
  0
ARC
  5
1CA
330
1F
100
AcDbEntity
  8
0
  6
Continuous
 62
     7
370
    25
100
AcDbCircle
 10
43.5514453786
 20
-31.7203136906
 30
0.0
 40
0.5190539734341612
100
AcDbArc
 50
262.6456327779
 51
341.366646474
  0
ARC
  5
1CB
330
1F
100
AcDbEntity
  8
0
  6
Continuous
 62
     7
370
    25
100
AcDbCircle
 10
41.6883382497
 20
-32.6751155139
 30
0.0
 40
0.5190539734341646
100
AcDbArc
 50
82.6456327779
 51
161.366646474
  0
ARC
  5
1CC
330
1F
100
AcDbEntity
  8
0
  6
Continuous
 62
     7
370
    25
100
AcDbCircle
 10
40.2059221064
 20
-35.2317859727
 30
0.0
 40
0.519053973434145
100
AcDbArc
 50
262.6456327779
 51
341.366646474
  0
ARC
  5
1CD
330
1F
100
AcDbEntity
  8
0
  6
Continuous
 62
     7
370
    25
100
AcDbCircle
 10
28.4558244305
 20
-35.7593532143
 30
0.0
 40
0.5190539734341556
100
AcDbArc
 50
82.6456327779
 51
161.366646474
  0
ARC
  5
1CE
330
1F
100
AcDbEntity
  8
0
  6
Continuous
 62
     7
370
    25
100
AcDbCircle
 10
27.1396493348
 20
-37.3532378915
 30
0.0
 40
0.5190539734341544
100
AcDbArc
 50
262.6456327779
 51
341.366646474
  0
ARC
  5
1CF
330
1F
100
AcDbEntity
  8
0
  6
Continuous
 62
     7
370
    25
100
AcDbCircle
 10
27.2648330085
 20
-38.4261685427
 30
0.0
 40
0.5190539734341432
100
AcDbArc
 50
262.6456327779
 51
341.366646474
  0
ARC
  5
1D0
330
1F
100
AcDbEntity
  8
0
  6
Continuous
 62
     7
370
    25
100
AcDbCircle
 10
40.3311057801
 20
-36.3047166238
 30
0.0
 40
0.5190539734341459
100
AcDbArc
 50
262.6456327779
 51
341.366646474
  0
ARC
  5
1D1
330
1F
100
AcDbEntity
  8
0
  6
Continuous
 62
     7
370
    25
100
AcDbCircle
 10
28.5810081041
 20
-36.8322838655
 30
0.0
 40
0.519053973434168
100
AcDbArc
 50
82.6456327779
 51
161.366646474
  0
ARC
  5
1D2
330
1F
100
AcDbEntity
  8
0
  6
Continuous
 62
     7
370
    25
100
AcDbCircle
 10
41.8135219233
 20
-33.7480461651
 30
0.0
 40
0.5190539734341781
100
AcDbArc
 50
82.6456327779
 51
161.366646474
  0
ARC
  5
1D3
330
1F
100
AcDbEntity
  8
0
  6
Continuous
 62
     7
370
    25
100
AcDbCircle
 10
43.6766290523
 20
-32.7932443418
 30
0.0
 40
0.5190539734341759
100
AcDbArc
 50
262.6456327779
 51
341.366646474
  0
ARC
  5
1D4
330
1F
100
AcDbEntity
  8
0
  6
Continuous
 62
     7
370
    25
100
AcDbCircle
 10
-39.8719323942
 20
-35.6390303692
 30
0.0
 40
0.4069144552375449
100
AcDbArc
 50
193.1991833818
 51
275.1502188618
  0
ARC
  5
1D5
330
1F
100
AcDbEntity
  8
0
  6
Continuous
 62
     7
370
    25
100
AcDbCircle
 10
0.6130324014
 20
-29.184435954
 30
0.0
 40
1.053847591759256
100
AcDbArc
 50
78.839412223
 51
114.4703262295
  0
ARC
  5
1D6
330
1F
100
AcDbEntity
  8
0
  6
Continuous
 62
     7
370
    25
100
AcDbCircle
 10
-10.0352564177
 20
-28.7243043095
 30
0.0
 40
1.053847591758985
100
AcDbArc
 50
78.839412223
 51
114.4703262295
  0
ARC
  5
1D7
330
1F
100
AcDbEntity
  8
0
  6
Continuous
 62
     7
370
    25
100
AcDbCircle
 10
-52.0174855174
 20
-32.4281302671
 30
0.0
 40
0.4069144552375791
100
AcDbArc
 50
193.1991833818
 51
275.1502188618
  0
ARC
  5
1D8
330
1F
100
AcDbEntity
  8
0
  6
Continuous
 62
     7
370
    25
100
AcDbCircle
 10
-54.109807046
 20
-28.6816789651
 30
0.0
 40
0.4069144552375347
100
AcDbArc
 50
193.1991833818
 51
275.1502188618
  0
ARC
  5
1D9
330
1F
100
AcDbEntity
  8
0
  6
Continuous
 62
     7
370
    25
100
AcDbCircle
 10
36.7517558341
 20
-6.6036530141
 30
0.0
 40
1.059729969058219
100
AcDbArc
 50
78.9415887824
 51
114.3681496701
  0
ARC
  5
1DA
330
1F
100
AcDbEntity
  8
0
  6
Continuous
 62
     7
370
    25
100
AcDbCircle
 10
38.1289989748
 20
1.3726568839
 30
0.0
 40
1.059729969058229
100
AcDbArc
 50
78.9415887824
 51
114.3681496701
  0
ARC
  5
1DB
330
1F
100
AcDbEntity
  8
0
  6
Continuous
 62
     7
370
    25
100
AcDbCircle
 10
-37.8950227955
 20
-3.3780319225
 30
0.0
 40
1.059729969058153
100
AcDbArc
 50
78.9415887824
 51
114.3681496701
  0
ARC
  5
1DC
330
1F
100
AcDbEntity
  8
0
  6
Continuous
 62
     7
370
    25
100
AcDbCircle
 10
-36.5177796548
 20
4.5982779755
 30
0.0
 40
1.059729969058199
100
AcDbArc
 50
78.9415887824
 51
114.3681496701
  0
ARC
  5
1DD
330
1F
100
AcDbEntity
  8
0
  6
Continuous
 62
     7
370
    25
100
AcDbCircle
 10
-38.8956769389
 20
18.2283730322
 30
0.0
 40
1.05972996905819
100
AcDbArc
 50
78.9415887824
 51
114.3681496701
  0
ARC
  5
1DE
330
1F
100
AcDbEntity
  8
0
  6
Continuous
 62
     7
370
    25
100
AcDbCircle
 10
10.2678009364
 20
26.731199821
 30
0.0
 40
1.053847591760196
100
AcDbArc
 50
78.8394122236
 51
114.470326229
  0
ARC
  5
1DF
330
1F
100
AcDbEntity
  8
0
  6
Continuous
 62
     7
370
    25
100
AcDbCircle
 10
-0.3804878827
 20
27.1913314654
 30
0.0
 40
1.053847591759014
100
AcDbArc
 50
78.8394122231
 51
114.4703262294
  0
ARC
  5
1E0
330
1F
100
AcDbEntity
  8
0
  6
Continuous
 62
     7
370
    25
100
AcDbCircle
 10
-37.5184337982
 20
26.2046829302
 30
0.0
 40
1.059729969058213
100
AcDbArc
 50
78.9415887824
 51
114.3681496701
  0
MTEXT
  5
1E2
330
1F
100
AcDbEntity
  8
0
  6
Continuous
 62
     7
100
AcDbMText
 10
-54.631848846
 20
-39.9647889078
 30
0.0
 40
4.83362
 41
0.0
 71
     1
 72
     1
  1
SOLIDWORKS Educational Product.
  7
SLDTEXTSTYLE0
 73
     1
 44
1.0
  0
MTEXT
  5
1E3
330
1F
100
AcDbEntity
  8
0
  6
Continuous
 62
     7
100
AcDbMText
 10
-54.631848846
 20
-47.2152189078
 30
0.0
 40
4.83362
 41
0.0
 71
     1
 72
     1
  1
For Instructional Use Only.
  7
SLDTEXTSTYLE0
 73
     1
 44
1.0
  0
ENDSEC
  0
SECTION
  2
OBJECTS
  0
DICTIONARY
  5
C
330
0
100
AcDbDictionary
281
     1
  3
ACAD_GROUP
350
D
  3
ACAD_LAYOUT
350
1A
  3
ACAD_MLINESTYLE
350
17
  3
ACAD_PLOTSETTINGS
350
19
  3
ACAD_PLOTSTYLENAME
350
E
  3
ACAD_SCALELIST
350
47
  0
DICTIONARY
  5
D
102
{ACAD_REACTORS
330
C
102
}
330
C
100
AcDbDictionary
281
     1
  0
DICTIONARY
  5
1A
102
{ACAD_REACTORS
330
C
102
}
330
C
100
AcDbDictionary
281
     1
  3
Layout1
350
1E
  3
Layout2
350
26
  3
Model
350
22
  0
DICTIONARY
  5
17
102
{ACAD_REACTORS
330
C
102
}
330
C
100
AcDbDictionary
281
     1
  3
Standard
350
18
  0
DICTIONARY
  5
19
102
{ACAD_REACTORS
330
C
102
}
330
C
100
AcDbDictionary
281
     1
  0
ACDBDICTIONARYWDFLT
  5
E
102
{ACAD_REACTORS
330
C
102
}
330
C
100
AcDbDictionary
281
     1
  3
Normal
350
F
100
AcDbDictionaryWithDefault
340
F
  0
DICTIONARY
  5
47
102
{ACAD_REACTORS
330
C
102
}
330
C
100
AcDbDictionary
281
     1
  3
A0
350
48
  3
A1
350
49
  3
A2
350
4A
  3
A3
350
4B
  3
A4
350
4C
  3
A5
350
4D
  3
A6
350
4E
  3
A7
350
4F
  3
A8
350
50
  3
A9
350
51
  3
B0
350
52
  3
B1
350
53
  3
B2
350
54
  3
B3
350
55
  3
B4
350
56
  3
B5
350
57
  3
B6
350
58
  3
B7
350
59
  3
B8
350
5A
  3
B9
350
5B
  3
C0
350
5C
  3
C1
350
5D
  3
C2
350
5E
  3
C3
350
5F
  3
C4
350
60
  3
C5
350
61
  3
C6
350
62
  3
C7
350
63
  3
C8
350
64
  3
C9
350
65
  3
D0
350
66
  3
D1
350
67
  3
D2
350
68
  0
LAYOUT
  5
1E
102
{ACAD_REACTORS
330
1A
102
}
330
1A
100
AcDbPlotSettings
  1

  2
none_device
  4

  6

 40
0.0
 41
0.0
 42
0.0
 43
0.0
 44
0.0
 45
0.0
 46
0.0
 47
0.0
 48
0.0
 49
0.0
140
0.0
141
0.0
142
1.0
143
1.0
 70
   688
 72
     1
 73
     0
 74
     5
  7

 75
    16
147
1.0
148
0.0
149
0.0
100
AcDbLayout
  1
Layout1
 70
     1
 71
     1
 10
0.0
 20
0.0
 11
420.0
 21
297.0
 12
0.0
 22
0.0
 32
0.0
 14
1.0000000000E+20
 24
1.0000000000E+20
 34
1.0000000000E+20
 15
-1.0000000000E+20
 25
-1.0000000000E+20
 35
-1.0000000000E+20
146
0.0
 13
0.0
 23
0.0
 33
0.0
 16
1.0
 26
0.0
 36
0.0
 17
0.0
 27
1.0
 37
0.0
 76
     0
330
1B
  0
LAYOUT
  5
26
102
{ACAD_REACTORS
330
1A
102
}
330
1A
100
AcDbPlotSettings
  1

  2
none_device
  4

  6

 40
0.0
 41
0.0
 42
0.0
 43
0.0
 44
0.0
 45
0.0
 46
0.0
 47
0.0
 48
0.0
 49
0.0
140
0.0
141
0.0
142
1.0
143
1.0
 70
   688
 72
     1
 73
     0
 74
     5
  7

 75
    16
147
1.0
148
0.0
149
0.0
100
AcDbLayout
  1
Layout2
 70
     1
 71
     2
 10
0.0
 20
0.0
 11
0.0
 21
0.0
 12
0.0
 22
0.0
 32
0.0
 14
0.0
 24
0.0
 34
0.0
 15
0.0
 25
0.0
 35
0.0
146
0.0
 13
0.0
 23
0.0
 33
0.0
 16
1.0
 26
0.0
 36
0.0
 17
0.0
 27
1.0
 37
0.0
 76
     0
330
23
  0
LAYOUT
  5
22
102
{ACAD_REACTORS
330
1A
102
}
330
1A
100
AcDbPlotSettings
  1

  2
none_device
  4
ANSI_A_(11.00_x_8.50_Inches)
  6

 40
6.35
 41
19.05
 42
6.35000508
 43
19.05000254
 44
279.4
 45
215.9
 46
133.6620073736
 47
83.722774053
 48
0.0
 49
0.0
140
0.0
141
0.0
142
0.0998919855
143
1.0
 70
  1696
 72
     0
 73
     0
 74
     0
  7

 75
     0
147
0.0179189148
148
-1300.4909072572
149
0.0
100
AcDbLayout
  1
Model
 70
     1
 71
     0
 10
0.0
 20
0.0
 11
420.0
 21
297.0
 12
0.0
 22
0.0
 32
0.0
 14
-54.631848846
 24
-38.9452225161
 34
0.0
 15
54.3859060949
 25
43.02618541
 35
0.0
146
0.0
 13
0.0
 23
0.0
 33
0.0
 16
1.0
 26
0.0
 36
0.0
 17
0.0
 27
1.0
 37
0.0
 76
     0
330
1F
331
29
  0
MLINESTYLE
  5
18
102
{ACAD_REACTORS
330
17
102
}
330
17
100
AcDbMlineStyle
  2
Standard
 70
     0
  3

 62
   256
 51
90.0
 52
90.0
 71
     2
 49
0.5
 62
   256
  6
BYLAYER
 49
-0.5
 62
   256
  6
BYLAYER
  0
ACDBPLACEHOLDER
  5
F
102
{ACAD_REACTORS
330
E
102
}
330
E
  0
SCALE
  5
48
102
{ACAD_REACTORS
330
47
102
}
330
47
100
AcDbScale
 70
     0
300
1:1
140
1.0
141
1.0
290
     1
  0
SCALE
  5
49
102
{ACAD_REACTORS
330
47
102
}
330
47
100
AcDbScale
 70
     0
300
1:2
140
1.0
141
2.0
290
     0
  0
SCALE
  5
4A
102
{ACAD_REACTORS
330
47
102
}
330
47
100
AcDbScale
 70
     0
300
1:4
140
1.0
141
4.0
290
     0
  0
SCALE
  5
4B
102
{ACAD_REACTORS
330
47
102
}
330
47
100
AcDbScale
 70
     0
300
1:5
140
1.0
141
5.0
290
     0
  0
SCALE
  5
4C
102
{ACAD_REACTORS
330
47
102
}
330
47
100
AcDbScale
 70
     0
300
1:8
140
1.0
141
8.0
290
     0
  0
SCALE
  5
4D
102
{ACAD_REACTORS
330
47
102
}
330
47
100
AcDbScale
 70
     0
300
1:10
140
1.0
141
10.0
290
     0
  0
SCALE
  5
4E
102
{ACAD_REACTORS
330
47
102
}
330
47
100
AcDbScale
 70
     0
300
1:16
140
1.0
141
16.0
290
     0
  0
SCALE
  5
4F
102
{ACAD_REACTORS
330
47
102
}
330
47
100
AcDbScale
 70
     0
300
1:20
140
1.0
141
20.0
290
     0
  0
SCALE
  5
50
102
{ACAD_REACTORS
330
47
102
}
330
47
100
AcDbScale
 70
     0
300
1:30
140
1.0
141
30.0
290
     0
  0
SCALE
  5
51
102
{ACAD_REACTORS
330
47
102
}
330
47
100
AcDbScale
 70
     0
300
1:40
140
1.0
141
40.0
290
     0
  0
SCALE
  5
52
102
{ACAD_REACTORS
330
47
102
}
330
47
100
AcDbScale
 70
     0
300
1:50
140
1.0
141
50.0
290
     0
  0
SCALE
  5
53
102
{ACAD_REACTORS
330
47
102
}
330
47
100
AcDbScale
 70
     0
300
1:100
140
1.0
141
100.0
290
     0
  0
SCALE
  5
54
102
{ACAD_REACTORS
330
47
102
}
330
47
100
AcDbScale
 70
     0
300
2:1
140
2.0
141
1.0
290
     0
  0
SCALE
  5
55
102
{ACAD_REACTORS
330
47
102
}
330
47
100
AcDbScale
 70
     0
300
4:1
140
4.0
141
1.0
290
     0
  0
SCALE
  5
56
102
{ACAD_REACTORS
330
47
102
}
330
47
100
AcDbScale
 70
     0
300
8:1
140
8.0
141
1.0
290
     0
  0
SCALE
  5
57
102
{ACAD_REACTORS
330
47
102
}
330
47
100
AcDbScale
 70
     0
300
10:1
140
10.0
141
1.0
290
     0
  0
SCALE
  5
58
102
{ACAD_REACTORS
330
47
102
}
330
47
100
AcDbScale
 70
     0
300
100:1
140
100.0
141
1.0
290
     0
  0
SCALE
  5
59
102
{ACAD_REACTORS
330
47
102
}
330
47
100
AcDbScale
 70
     0
300
1/128" = 1'-0"
140
0.0078125
141
12.0
290
     0
  0
SCALE
  5
5A
102
{ACAD_REACTORS
330
47
102
}
330
47
100
AcDbScale
 70
     0
300
1/64" = 1'-0"
140
0.015625
141
12.0
290
     0
  0
SCALE
  5
5B
102
{ACAD_REACTORS
330
47
102
}
330
47
100
AcDbScale
 70
     0
300
1/32" = 1'-0"
140
0.03125
141
12.0
290
     0
  0
SCALE
  5
5C
102
{ACAD_REACTORS
330
47
102
}
330
47
100
AcDbScale
 70
     0
300
1/16" = 1'-0"
140
0.0625
141
12.0
290
     0
  0
SCALE
  5
5D
102
{ACAD_REACTORS
330
47
102
}
330
47
100
AcDbScale
 70
     0
300
3/32" = 1'-0"
140
0.09375
141
12.0
290
     0
  0
SCALE
  5
5E
102
{ACAD_REACTORS
330
47
102
}
330
47
100
AcDbScale
 70
     0
300
1/8" = 1'-0"
140
0.125
141
12.0
290
     0
  0
SCALE
  5
5F
102
{ACAD_REACTORS
330
47
102
}
330
47
100
AcDbScale
 70
     0
300
3/16" = 1'-0"
140
0.1875
141
12.0
290
     0
  0
SCALE
  5
60
102
{ACAD_REACTORS
330
47
102
}
330
47
100
AcDbScale
 70
     0
300
1/4" = 1'-0"
140
0.25
141
12.0
290
     0
  0
SCALE
  5
61
102
{ACAD_REACTORS
330
47
102
}
330
47
100
AcDbScale
 70
     0
300
3/8" = 1'-0"
140
0.375
141
12.0
290
     0
  0
SCALE
  5
62
102
{ACAD_REACTORS
330
47
102
}
330
47
100
AcDbScale
 70
     0
300
1/2" = 1'-0"
140
0.5
141
12.0
290
     0
  0
SCALE
  5
63
102
{ACAD_REACTORS
330
47
102
}
330
47
100
AcDbScale
 70
     0
300
3/4" = 1'-0"
140
0.75
141
12.0
290
     0
  0
SCALE
  5
64
102
{ACAD_REACTORS
330
47
102
}
330
47
100
AcDbScale
 70
     0
300
1" = 1'-0"
140
1.0
141
12.0
290
     0
  0
SCALE
  5
65
102
{ACAD_REACTORS
330
47
102
}
330
47
100
AcDbScale
 70
     0
300
1-1/2" = 1'-0"
140
1.5
141
12.0
290
     0
  0
SCALE
  5
66
102
{ACAD_REACTORS
330
47
102
}
330
47
100
AcDbScale
 70
     0
300
3" = 1'-0"
140
3.0
141
12.0
290
     0
  0
SCALE
  5
67
102
{ACAD_REACTORS
330
47
102
}
330
47
100
AcDbScale
 70
     0
300
6" = 1'-0"
140
6.0
141
12.0
290
     0
  0
SCALE
  5
68
102
{ACAD_REACTORS
330
47
102
}
330
47
100
AcDbScale
 70
     0
300
1'-0" = 1'-0"
140
12.0
141
12.0
290
     0
  0
ENDSEC
  0
EOF
